STARTFONT 2.1
FONT -FontForge-Source Serif Pro Black-Black-R-Normal--20-190-75-75-P-111-ISO10646-1
SIZE 19 75 75
FONTBOUNDINGBOX 53 27 -6 -6
COMMENT "Generated by fontforge, http://fontforge.sourceforge.net"
COMMENT "(c) 2014 - 2019 Adobe Systems Incorporated (http://www.adobe.com/), with Reserved Font Name `Source'."
STARTPROPERTIES 40
FOUNDRY "FontForge"
FAMILY_NAME "Source Serif Pro Black"
WEIGHT_NAME "Black"
SLANT "R"
SETWIDTH_NAME "Normal"
ADD_STYLE_NAME ""
PIXEL_SIZE 20
POINT_SIZE 190
RESOLUTION_X 75
RESOLUTION_Y 75
SPACING "P"
AVERAGE_WIDTH 111
CHARSET_REGISTRY "ISO10646"
CHARSET_ENCODING "1"
FONTNAME_REGISTRY ""
CHARSET_COLLECTIONS "ISO8859-5 ISO8859-7 ISO10646-1"
FONT_NAME "SourceSerifPro-Black"
FACE_NAME "Source Serif Pro Black"
COPYRIGHT "(c) 2014 - 2019 Adobe Systems Incorporated (http://www.adobe.com/), with Reserved Font Name `Source'."
FONT_VERSION "3.001;hotconv 1.0.111;makeotfexe 2.5.65597"
FONT_ASCENT 16
FONT_DESCENT 4
UNDERLINE_POSITION -2
UNDERLINE_THICKNESS 1
X_HEIGHT 9
CAP_HEIGHT 12
RAW_ASCENT 800
RAW_DESCENT 200
NORM_SPACE 4
RELATIVE_WEIGHT 90
RELATIVE_SETWIDTH 50
SUPERSCRIPT_X 0
SUPERSCRIPT_Y 7
SUPERSCRIPT_SIZE 12
SUBSCRIPT_X 0
SUBSCRIPT_Y 1
SUBSCRIPT_SIZE 12
FIGURE_WIDTH 11
AVG_LOWERCASE_WIDTH 111
AVG_UPPERCASE_WIDTH 135
ENDPROPERTIES
CHARS 1458
STARTCHAR space.dup1
ENCODING 32
SWIDTH 206 0
DWIDTH 4 0
BBX 1 1 0 0
BITMAP
00
ENDCHAR
STARTCHAR exclam
ENCODING 33
SWIDTH 370 0
DWIDTH 7 0
BBX 5 13 1 0
BITMAP
70
F8
78
78
70
70
30
20
00
30
78
78
70
ENDCHAR
STARTCHAR quotedbl
ENCODING 34
SWIDTH 484 0
DWIDTH 10 0
BBX 8 7 1 8
BITMAP
42
EF
EF
EF
E6
E6
46
ENDCHAR
STARTCHAR numbersign
ENCODING 35
SWIDTH 583 0
DWIDTH 12 0
BBX 11 13 0 0
BITMAP
0CC0
18C0
18C0
7FE0
7FE0
7FE0
1980
1180
FFE0
FFE0
3180
3300
3300
ENDCHAR
STARTCHAR dollar
ENCODING 36
SWIDTH 560 0
DWIDTH 11 0
BBX 9 17 1 -2
BITMAP
0800
0800
1E00
7B00
EB80
E980
F800
FE00
7F00
3F80
0F80
4B80
EB80
EB80
7F00
0800
0800
ENDCHAR
STARTCHAR percent
ENCODING 37
SWIDTH 880 0
DWIDTH 18 0
BBX 16 14 1 -1
BITMAP
7818
CC10
CC30
CC60
CC40
CCDC
CDB6
7937
0377
0677
0477
0C36
181C
1000
ENDCHAR
STARTCHAR ampersand
ENCODING 38
SWIDTH 721 0
DWIDTH 14 0
BBX 14 13 0 0
BITMAP
1F80
19C0
39C0
39C0
3DBC
1E3C
1F10
7F90
77E0
F3E0
F1F0
7FFC
3F7C
ENDCHAR
STARTCHAR quotesingle
ENCODING 39
SWIDTH 257 0
DWIDTH 5 0
BBX 3 7 1 8
BITMAP
40
E0
E0
E0
E0
E0
40
ENDCHAR
STARTCHAR parenleft
ENCODING 40
SWIDTH 393 0
DWIDTH 8 0
BBX 6 17 1 -3
BITMAP
0C
1C
38
30
70
60
60
E0
E0
E0
60
70
70
30
38
1C
0C
ENDCHAR
STARTCHAR parenright
ENCODING 41
SWIDTH 393 0
DWIDTH 8 0
BBX 5 17 1 -3
BITMAP
C0
E0
70
30
38
38
18
18
18
18
18
38
38
30
60
E0
C0
ENDCHAR
STARTCHAR asterisk
ENCODING 42
SWIDTH 427 0
DWIDTH 9 0
BBX 8 8 0 7
BITMAP
08
18
18
EF
7F
3C
76
66
ENDCHAR
STARTCHAR plus
ENCODING 43
SWIDTH 550 0
DWIDTH 11 0
BBX 9 10 1 1
BITMAP
1C00
1C00
1C00
1C00
FF80
FF80
1C00
1C00
1C00
1C00
ENDCHAR
STARTCHAR comma
ENCODING 44
SWIDTH 300 0
DWIDTH 6 0
BBX 5 8 0 -4
BITMAP
30
78
78
78
18
30
60
C0
ENDCHAR
STARTCHAR hyphen.dup2
ENCODING 45
SWIDTH 350 0
DWIDTH 7 0
BBX 5 2 1 4
BITMAP
F8
F8
ENDCHAR
STARTCHAR period
ENCODING 46
SWIDTH 300 0
DWIDTH 6 0
BBX 4 4 1 0
BITMAP
60
F0
F0
F0
ENDCHAR
STARTCHAR slash
ENCODING 47
SWIDTH 410 0
DWIDTH 8 0
BBX 8 17 0 -3
BITMAP
07
06
06
0E
0E
0C
0C
1C
18
18
38
30
30
70
60
60
E0
ENDCHAR
STARTCHAR zero
ENCODING 48
SWIDTH 560 0
DWIDTH 11 0
BBX 10 13 1 0
BITMAP
1C00
7700
7380
E380
E380
E380
E3C0
E3C0
E380
E380
E380
7700
3E00
ENDCHAR
STARTCHAR one
ENCODING 49
SWIDTH 560 0
DWIDTH 11 0
BBX 9 13 1 0
BITMAP
0600
7E00
7E00
1E00
1E00
1E00
1E00
1E00
1E00
1E00
1E00
3E00
FF80
ENDCHAR
STARTCHAR two
ENCODING 50
SWIDTH 560 0
DWIDTH 11 0
BBX 9 13 1 0
BITMAP
1E00
6F00
E780
E780
4780
0780
0F00
0E00
1800
3000
7F80
FF80
FF80
ENDCHAR
STARTCHAR three
ENCODING 51
SWIDTH 560 0
DWIDTH 11 0
BBX 10 13 1 0
BITMAP
1E00
6780
6780
E380
0780
0700
1E00
0780
0380
C3C0
E3C0
E780
7F00
ENDCHAR
STARTCHAR four
ENCODING 52
SWIDTH 560 0
DWIDTH 11 0
BBX 11 13 0 0
BITMAP
0380
0780
0780
0F80
1F80
1780
2780
6780
7FE0
FFE0
FFE0
0780
0780
ENDCHAR
STARTCHAR five
ENCODING 53
SWIDTH 560 0
DWIDTH 11 0
BBX 10 12 1 0
BITMAP
7F80
7F80
6000
6000
7C00
7F80
0780
03C0
C3C0
E3C0
E780
7F00
ENDCHAR
STARTCHAR six
ENCODING 54
SWIDTH 560 0
DWIDTH 11 0
BBX 11 13 0 0
BITMAP
00C0
0780
1E00
3C00
7800
7F80
7FC0
F1C0
F1E0
71E0
71C0
3BC0
1F80
ENDCHAR
STARTCHAR seven
ENCODING 55
SWIDTH 560 0
DWIDTH 11 0
BBX 9 12 1 0
BITMAP
FF80
FF80
0180
0300
0300
0600
0E00
0E00
1C00
3C00
3800
7800
ENDCHAR
STARTCHAR eight
ENCODING 56
SWIDTH 560 0
DWIDTH 11 0
BBX 9 13 1 0
BITMAP
1E00
7700
E380
E380
F300
FE00
7F00
3F80
6780
E380
E380
E380
7F00
ENDCHAR
STARTCHAR nine
ENCODING 57
SWIDTH 560 0
DWIDTH 11 0
BBX 10 13 1 0
BITMAP
1E00
7700
E380
E380
E3C0
E3C0
F3C0
7F80
0780
0780
0F00
1C00
7800
ENDCHAR
STARTCHAR colon
ENCODING 58
SWIDTH 300 0
DWIDTH 6 0
BBX 4 11 1 0
BITMAP
60
F0
F0
F0
00
00
00
60
F0
F0
F0
ENDCHAR
STARTCHAR semicolon
ENCODING 59
SWIDTH 300 0
DWIDTH 6 0
BBX 5 15 0 -4
BITMAP
30
78
78
78
00
00
00
30
78
78
78
18
30
60
C0
ENDCHAR
STARTCHAR less
ENCODING 60
SWIDTH 550 0
DWIDTH 11 0
BBX 9 11 1 1
BITMAP
0080
0380
0F80
3E00
F800
E000
F000
3E00
0F80
0380
0080
ENDCHAR
STARTCHAR equal
ENCODING 61
SWIDTH 550 0
DWIDTH 11 0
BBX 9 6 1 3
BITMAP
FF80
FF80
0000
0000
FF80
FF80
ENDCHAR
STARTCHAR greater
ENCODING 62
SWIDTH 550 0
DWIDTH 11 0
BBX 9 11 1 1
BITMAP
8000
E000
F800
3E00
0F80
0380
0780
3E00
F800
E000
8000
ENDCHAR
STARTCHAR question
ENCODING 63
SWIDTH 462 0
DWIDTH 9 0
BBX 7 13 1 0
BITMAP
70
FC
7E
06
1E
7E
7C
20
00
70
78
F8
70
ENDCHAR
STARTCHAR at
ENCODING 64
SWIDTH 913 0
DWIDTH 18 0
BBX 16 16 1 -3
BITMAP
03F0
0E0C
1806
31D3
63F9
4771
CE71
CE71
CE73
CE73
CFF6
CF3C
6000
7000
3C60
0FC0
ENDCHAR
STARTCHAR A
ENCODING 65
SWIDTH 680 0
DWIDTH 14 0
BBX 13 13 0 0
BITMAP
0300
0780
0780
0780
0BC0
0BC0
09C0
11E0
1FE0
10E0
20F0
20F0
F1F8
ENDCHAR
STARTCHAR B
ENCODING 66
SWIDTH 660 0
DWIDTH 13 0
BBX 12 13 1 0
BITMAP
FF80
79E0
79E0
79E0
79E0
7B80
7FC0
79E0
78F0
78F0
78F0
79E0
FF80
ENDCHAR
STARTCHAR C
ENCODING 67
SWIDTH 618 0
DWIDTH 12 0
BBX 11 13 1 0
BITMAP
1FE0
7860
7060
F060
F000
F000
F000
F000
F000
F060
7860
7860
1FE0
ENDCHAR
STARTCHAR D
ENCODING 68
SWIDTH 703 0
DWIDTH 14 0
BBX 13 13 1 0
BITMAP
FF80
7BC0
78E0
78F0
78F0
78F0
78F8
78F0
78F0
78F0
78E0
7BC0
FF00
ENDCHAR
STARTCHAR E
ENCODING 69
SWIDTH 591 0
DWIDTH 12 0
BBX 10 13 1 0
BITMAP
FFC0
78C0
78C0
7800
7900
7900
7F00
7900
7800
7800
78C0
78C0
FFC0
ENDCHAR
STARTCHAR F
ENCODING 70
SWIDTH 580 0
DWIDTH 12 0
BBX 10 13 1 0
BITMAP
FFC0
78C0
78C0
7800
7900
7900
7F00
7900
7900
7800
7800
7800
FE00
ENDCHAR
STARTCHAR G
ENCODING 71
SWIDTH 672 0
DWIDTH 13 0
BBX 12 13 1 0
BITMAP
1FE0
7860
7860
F060
F000
F000
F3F0
F3F0
F1E0
F1E0
79E0
79E0
1FE0
ENDCHAR
STARTCHAR H
ENCODING 72
SWIDTH 756 0
DWIDTH 15 0
BBX 14 13 1 0
BITMAP
FDFC
78F0
78F0
78F0
78F0
78F0
7FF0
78F0
78F0
78F0
78F0
78F0
FDFC
ENDCHAR
STARTCHAR I
ENCODING 73
SWIDTH 395 0
DWIDTH 8 0
BBX 6 13 1 0
BITMAP
FC
78
78
78
78
78
78
78
78
78
78
78
FC
ENDCHAR
STARTCHAR J
ENCODING 74
SWIDTH 404 0
DWIDTH 8 0
BBX 10 17 -2 -4
BITMAP
1FC0
0F00
0F00
0F00
0F00
0F00
0F00
0F00
0F00
0F00
0F00
0F00
0F00
4E00
EE00
FC00
2000
ENDCHAR
STARTCHAR K
ENCODING 75
SWIDTH 708 0
DWIDTH 14 0
BBX 13 13 1 0
BITMAP
FCF0
7840
7880
7980
7B00
7B80
7F80
7BC0
7BC0
79E0
79E0
78F0
FDF8
ENDCHAR
STARTCHAR L
ENCODING 76
SWIDTH 574 0
DWIDTH 11 0
BBX 10 13 1 0
BITMAP
FE00
7800
7800
7800
7800
7800
7800
7800
7800
78C0
78C0
78C0
FFC0
ENDCHAR
STARTCHAR M
ENCODING 77
SWIDTH 893 0
DWIDTH 18 0
BBX 17 13 0 0
BITMAP
FE0F80
3E1F00
3E1F00
3F1F00
3F3F00
3F2F00
37AF00
37EF00
37CF00
33CF00
33CF00
338F00
F99F80
ENDCHAR
STARTCHAR N
ENCODING 78
SWIDTH 725 0
DWIDTH 15 0
BBX 14 13 0 0
BITMAP
FC7C
3E10
3E10
3F10
3F90
37D0
33D0
33F0
31F0
30F0
30F0
3070
FC30
ENDCHAR
STARTCHAR O
ENCODING 79
SWIDTH 700 0
DWIDTH 14 0
BBX 12 13 1 0
BITMAP
1F80
79E0
70E0
F0F0
F0F0
F0F0
F0F0
F0F0
F0F0
F0F0
70E0
79E0
1F80
ENDCHAR
STARTCHAR P
ENCODING 80
SWIDTH 622 0
DWIDTH 12 0
BBX 11 13 1 0
BITMAP
FF80
7BC0
79E0
78E0
78E0
79E0
7BC0
7F80
7800
7800
7800
7800
FE00
ENDCHAR
STARTCHAR Q
ENCODING 81
SWIDTH 700 0
DWIDTH 14 0
BBX 12 17 1 -4
BITMAP
1F80
79E0
70E0
F0F0
F0F0
F0F0
F0F0
F0F0
F0F0
F0F0
70E0
79E0
1F80
0F00
0F00
07E0
03F0
ENDCHAR
STARTCHAR R
ENCODING 82
SWIDTH 696 0
DWIDTH 14 0
BBX 13 13 1 0
BITMAP
FFC0
79E0
79E0
78E0
79E0
79C0
7F80
79C0
79E0
79E0
79E0
79E0
FCF8
ENDCHAR
STARTCHAR S
ENCODING 83
SWIDTH 553 0
DWIDTH 11 0
BBX 10 13 1 0
BITMAP
7F80
F380
E180
F000
F800
FE00
7F00
3F80
0FC0
C3C0
C380
C380
FF00
ENDCHAR
STARTCHAR T
ENCODING 84
SWIDTH 646 0
DWIDTH 13 0
BBX 13 13 0 0
BITMAP
FFF8
EF38
CF38
CF18
0F00
0F00
0F00
0F00
0F00
0F00
0F00
0F00
1FC0
ENDCHAR
STARTCHAR U
ENCODING 85
SWIDTH 732 0
DWIDTH 15 0
BBX 14 13 0 0
BITMAP
FE7C
3C18
3C18
3C18
3C18
3C18
3C18
3C18
3C18
3C10
3E30
1FF0
0FE0
ENDCHAR
STARTCHAR V
ENCODING 86
SWIDTH 656 0
DWIDTH 13 0
BBX 13 13 0 0
BITMAP
FE78
7830
3C20
3C20
3C60
1E40
1E40
1EC0
0F80
0F80
0F80
0700
0700
ENDCHAR
STARTCHAR W
ENCODING 87
SWIDTH 989 0
DWIDTH 20 0
BBX 20 13 0 0
BITMAP
FEFCF0
787840
3C7840
3C78C0
3CFC80
3CBC80
1EBD80
1E9D00
1F1F00
0F1F00
0F0E00
0F0E00
060E00
ENDCHAR
STARTCHAR X
ENCODING 88
SWIDTH 657 0
DWIDTH 13 0
BBX 13 13 0 0
BITMAP
FEF0
3C60
3C40
1E80
1F80
0F00
0F80
0F80
0BC0
1BC0
31E0
21F0
F3F8
ENDCHAR
STARTCHAR Y
ENCODING 89
SWIDTH 621 0
DWIDTH 12 0
BBX 12 13 0 0
BITMAP
FEF0
7C20
3C60
3E40
1EC0
1E80
0F80
0F00
0F00
0F00
0F00
0F00
1FC0
ENDCHAR
STARTCHAR Z
ENCODING 90
SWIDTH 568 0
DWIDTH 11 0
BBX 11 13 0 0
BITMAP
7FE0
63E0
63C0
4780
0780
0F00
1F00
1E00
3E00
3C60
7C60
7860
FFE0
ENDCHAR
STARTCHAR bracketleft
ENCODING 91
SWIDTH 360 0
DWIDTH 7 0
BBX 5 17 2 -3
BITMAP
F8
E0
E0
E0
E0
E0
E0
E0
E0
E0
E0
E0
E0
E0
E0
E0
F8
ENDCHAR
STARTCHAR backslash
ENCODING 92
SWIDTH 410 0
DWIDTH 8 0
BBX 8 17 0 -3
BITMAP
E0
60
60
70
30
30
38
18
18
1C
0C
0C
0E
0E
06
06
07
ENDCHAR
STARTCHAR bracketright
ENCODING 93
SWIDTH 360 0
DWIDTH 7 0
BBX 5 17 0 -3
BITMAP
F8
38
38
38
38
38
38
38
38
38
38
38
38
38
38
38
F8
ENDCHAR
STARTCHAR asciicircum
ENCODING 94
SWIDTH 550 0
DWIDTH 11 0
BBX 9 7 1 3
BITMAP
1C00
3E00
3600
6700
E380
C180
4100
ENDCHAR
STARTCHAR underscore
ENCODING 95
SWIDTH 550 0
DWIDTH 11 0
BBX 9 2 1 -2
BITMAP
FF80
FF80
ENDCHAR
STARTCHAR grave
ENCODING 96
SWIDTH 400 0
DWIDTH 8 0
BBX 4 5 2 11
BITMAP
C0
C0
E0
70
10
ENDCHAR
STARTCHAR a
ENCODING 97
SWIDTH 540 0
DWIDTH 11 0
BBX 11 10 0 0
BITMAP
1F00
7380
7380
6380
0FC0
3BC0
73C0
F3C0
7FE0
7BC0
ENDCHAR
STARTCHAR b
ENCODING 98
SWIDTH 623 0
DWIDTH 12 0
BBX 12 14 0 0
BITMAP
F800
7800
7800
7800
7BC0
7FE0
79F0
78F0
78F0
78F0
78F0
78F0
7FE0
7FC0
ENDCHAR
STARTCHAR c
ENCODING 99
SWIDTH 523 0
DWIDTH 10 0
BBX 10 10 0 0
BITMAP
1F00
3980
79C0
79C0
F000
F000
7800
7840
7FC0
1F80
ENDCHAR
STARTCHAR d
ENCODING 100
SWIDTH 605 0
DWIDTH 12 0
BBX 12 14 0 0
BITMAP
03E0
01E0
01E0
01E0
1FE0
3FE0
79E0
79E0
F9E0
F1E0
79E0
79E0
7FE0
3FF0
ENDCHAR
STARTCHAR e
ENCODING 101
SWIDTH 526 0
DWIDTH 11 0
BBX 10 10 0 0
BITMAP
1F00
3B80
79C0
71C0
FFC0
F000
7800
7840
3FC0
1F80
ENDCHAR
STARTCHAR f
ENCODING 102
SWIDTH 365 0
DWIDTH 7 0
BBX 9 15 0 0
BITMAP
0300
0F80
1B80
3800
3800
FE00
FE00
7800
7800
7800
7800
7800
7800
7800
7E00
ENDCHAR
STARTCHAR g
ENCODING 103
SWIDTH 553 0
DWIDTH 11 0
BBX 11 14 0 -4
BITMAP
3F60
73E0
7380
7380
7380
3F00
6000
7000
7FC0
7FE0
7FE0
C0E0
E1C0
7F80
ENDCHAR
STARTCHAR h
ENCODING 104
SWIDTH 624 0
DWIDTH 12 0
BBX 12 14 0 0
BITMAP
F800
7800
7800
7800
7BC0
7FE0
7DE0
79E0
79E0
79E0
79E0
79E0
79E0
7DF0
ENDCHAR
STARTCHAR i
ENCODING 105
SWIDTH 324 0
DWIDTH 6 0
BBX 6 15 0 0
BITMAP
30
38
78
30
00
18
F8
78
78
78
78
78
78
78
7C
ENDCHAR
STARTCHAR j
ENCODING 106
SWIDTH 320 0
DWIDTH 6 0
BBX 8 20 -3 -5
BITMAP
06
07
0F
06
00
03
1F
0F
0F
0F
0F
0F
0F
0F
0F
0F
27
F6
7E
30
ENDCHAR
STARTCHAR k
ENCODING 107
SWIDTH 619 0
DWIDTH 12 0
BBX 12 14 0 0
BITMAP
F800
7800
7800
7800
79F0
78C0
7980
7B80
7F80
7FC0
7BC0
79E0
79E0
7CF0
ENDCHAR
STARTCHAR l
ENCODING 108
SWIDTH 334 0
DWIDTH 7 0
BBX 6 14 0 0
BITMAP
F8
78
78
78
78
78
78
78
78
78
78
78
78
7C
ENDCHAR
STARTCHAR m
ENCODING 109
SWIDTH 910 0
DWIDTH 18 0
BBX 18 10 0 0
BITMAP
1BCF00
FFFF80
79E780
79E780
79E780
79E780
79E780
79E780
79E780
FDFFC0
ENDCHAR
STARTCHAR n
ENCODING 110
SWIDTH 620 0
DWIDTH 12 0
BBX 12 10 0 0
BITMAP
1BC0
FFE0
79E0
79E0
79E0
79E0
79E0
79E0
79E0
FDF0
ENDCHAR
STARTCHAR o
ENCODING 111
SWIDTH 572 0
DWIDTH 11 0
BBX 11 10 0 0
BITMAP
1F00
3BC0
79C0
71E0
F1E0
F1E0
71E0
79E0
39C0
1F80
ENDCHAR
STARTCHAR p
ENCODING 112
SWIDTH 623 0
DWIDTH 12 0
BBX 12 14 0 -4
BITMAP
1BC0
FFE0
79F0
78F0
78F0
78F0
78F0
78F0
7FE0
7FC0
7800
7800
7800
7C00
ENDCHAR
STARTCHAR q
ENCODING 113
SWIDTH 594 0
DWIDTH 12 0
BBX 12 14 0 -4
BITMAP
1E60
3FE0
79E0
79E0
F9E0
F1E0
79E0
79E0
7FE0
3FE0
01E0
01E0
01E0
03F0
ENDCHAR
STARTCHAR r
ENCODING 114
SWIDTH 483 0
DWIDTH 10 0
BBX 10 10 0 0
BITMAP
1B80
FBC0
7DC0
7C00
7800
7800
7800
7800
7800
FE00
ENDCHAR
STARTCHAR s
ENCODING 115
SWIDTH 463 0
DWIDTH 9 0
BBX 9 10 0 0
BITMAP
3F00
7300
7300
7C00
7F00
7F80
1F80
4380
E300
7F00
ENDCHAR
STARTCHAR t
ENCODING 116
SWIDTH 372 0
DWIDTH 7 0
BBX 8 13 0 0
BITMAP
18
38
38
FE
FE
78
78
78
78
78
78
7F
3E
ENDCHAR
STARTCHAR u
ENCODING 117
SWIDTH 617 0
DWIDTH 12 0
BBX 12 10 0 0
BITMAP
38E0
FBE0
79E0
79E0
79E0
79E0
79E0
79E0
3FE0
3FF0
ENDCHAR
STARTCHAR v
ENCODING 118
SWIDTH 536 0
DWIDTH 11 0
BBX 11 10 0 0
BITMAP
FDE0
7880
7880
3D80
3D00
3D00
1E00
1E00
0E00
0C00
ENDCHAR
STARTCHAR w
ENCODING 119
SWIDTH 800 0
DWIDTH 16 0
BBX 16 10 0 0
BITMAP
FBEF
71C6
79E4
79E4
3AEC
3EF8
3E78
1C78
1C70
0C30
ENDCHAR
STARTCHAR x
ENCODING 120
SWIDTH 563 0
DWIDTH 11 0
BBX 11 10 0 0
BITMAP
FDE0
7C80
3D80
1F00
1E00
0F00
1F80
1780
27C0
F7E0
ENDCHAR
STARTCHAR y
ENCODING 121
SWIDTH 543 0
DWIDTH 11 0
BBX 11 15 0 -5
BITMAP
FDE0
78C0
7880
3D80
3D00
1D00
1F00
1E00
0E00
0C00
0400
0400
F800
F800
6000
ENDCHAR
STARTCHAR z
ENCODING 122
SWIDTH 468 0
DWIDTH 9 0
BBX 9 10 0 0
BITMAP
7F80
E780
CF00
0F00
1E00
3E00
3C00
7980
7980
FF80
ENDCHAR
STARTCHAR braceleft
ENCODING 123
SWIDTH 334 0
DWIDTH 7 0
BBX 5 17 1 -3
BITMAP
78
70
60
70
70
30
30
60
C0
60
30
30
70
70
60
70
38
ENDCHAR
STARTCHAR bar
ENCODING 124
SWIDTH 280 0
DWIDTH 6 0
BBX 2 20 2 -5
BITMAP
C0
C0
C0
C0
C0
C0
C0
C0
C0
C0
C0
C0
C0
C0
C0
C0
C0
C0
C0
C0
ENDCHAR
STARTCHAR braceright
ENCODING 125
SWIDTH 334 0
DWIDTH 7 0
BBX 5 17 1 -3
BITMAP
E0
70
70
70
60
60
60
70
18
70
60
60
60
70
70
70
E0
ENDCHAR
STARTCHAR asciitilde
ENCODING 126
SWIDTH 550 0
DWIDTH 11 0
BBX 9 4 1 5
BITMAP
7080
F980
DF80
8F00
ENDCHAR
STARTCHAR space
ENCODING 160
SWIDTH 206 0
DWIDTH 4 0
BBX 1 1 0 0
BITMAP
00
ENDCHAR
STARTCHAR exclamdown
ENCODING 161
SWIDTH 370 0
DWIDTH 7 0
BBX 5 13 1 -3
BITMAP
70
78
78
70
00
20
30
70
70
78
78
F8
78
ENDCHAR
STARTCHAR cent
ENCODING 162
SWIDTH 560 0
DWIDTH 11 0
BBX 10 14 1 -1
BITMAP
0400
0400
3F80
7580
F5C0
E480
E400
E400
F400
F4C0
7F80
1F00
0400
0400
ENDCHAR
STARTCHAR sterling
ENCODING 163
SWIDTH 560 0
DWIDTH 11 0
BBX 9 13 1 0
BITMAP
1E00
7B80
7380
7180
7000
7000
FF00
FF00
3000
7000
FF80
FF80
FF80
ENDCHAR
STARTCHAR currency
ENCODING 164
SWIDTH 560 0
DWIDTH 11 0
BBX 11 11 0 1
BITMAP
4040
E0E0
6FC0
1F80
3180
3080
3180
3B80
7FC0
E0E0
4040
ENDCHAR
STARTCHAR yen
ENCODING 165
SWIDTH 560 0
DWIDTH 11 0
BBX 11 13 0 0
BITMAP
FDE0
FDE0
78C0
3880
3D80
1D00
7FC0
7FC0
0E00
7FC0
0E00
0E00
3F80
ENDCHAR
STARTCHAR brokenbar
ENCODING 166
SWIDTH 280 0
DWIDTH 6 0
BBX 2 20 2 -5
BITMAP
C0
C0
C0
C0
C0
C0
C0
C0
C0
00
00
C0
C0
C0
C0
C0
C0
C0
C0
C0
ENDCHAR
STARTCHAR section
ENCODING 167
SWIDTH 549 0
DWIDTH 11 0
BBX 9 15 1 -2
BITMAP
3F00
6380
E380
7000
7E00
7F00
CF80
E180
F980
7F00
3F00
4780
E380
E300
7E00
ENDCHAR
STARTCHAR dieresis
ENCODING 168
SWIDTH 400 0
DWIDTH 8 0
BBX 8 4 0 11
BITMAP
42
E7
E7
42
ENDCHAR
STARTCHAR copyright
ENCODING 169
SWIDTH 740 0
DWIDTH 15 0
BBX 13 13 1 0
BITMAP
1FC0
3060
4730
CC98
9C88
9808
9808
9808
9C88
CE98
4330
3060
1FC0
ENDCHAR
STARTCHAR ordfeminine
ENCODING 170
SWIDTH 357 0
DWIDTH 7 0
BBX 7 7 0 8
BITMAP
38
6C
4C
3C
6C
CC
7E
ENDCHAR
STARTCHAR guillemotleft
ENCODING 171
SWIDTH 578 0
DWIDTH 12 0
BBX 11 10 0 0
BITMAP
0440
0CE0
19C0
7380
E700
F700
3380
19C0
0C60
0440
ENDCHAR
STARTCHAR logicalnot
ENCODING 172
SWIDTH 550 0
DWIDTH 11 0
BBX 9 5 1 3
BITMAP
FF80
FF80
0180
0180
0180
ENDCHAR
STARTCHAR hyphen.dup3
ENCODING 173
SWIDTH 350 0
DWIDTH 7 0
BBX 5 2 1 4
BITMAP
F8
F8
ENDCHAR
STARTCHAR registered
ENCODING 174
SWIDTH 474 0
DWIDTH 9 0
BBX 8 8 1 6
BITMAP
7C
D2
A9
B9
A9
BF
46
3C
ENDCHAR
STARTCHAR macron
ENCODING 175
SWIDTH 400 0
DWIDTH 8 0
BBX 6 2 1 12
BITMAP
FC
FC
ENDCHAR
STARTCHAR degree
ENCODING 176
SWIDTH 328 0
DWIDTH 7 0
BBX 5 5 1 8
BITMAP
F0
88
88
98
70
ENDCHAR
STARTCHAR plusminus
ENCODING 177
SWIDTH 550 0
DWIDTH 11 0
BBX 9 11 1 0
BITMAP
1C00
1C00
1C00
FF80
FF80
1C00
1C00
1C00
0000
FF80
FF80
ENDCHAR
STARTCHAR two.sups
ENCODING 178
SWIDTH 374 0
DWIDTH 7 0
BBX 6 8 1 8
BITMAP
78
DC
9C
18
30
60
FC
FC
ENDCHAR
STARTCHAR three.sups
ENCODING 179
SWIDTH 374 0
DWIDTH 7 0
BBX 6 8 1 8
BITMAP
78
DC
18
78
18
9C
9C
F8
ENDCHAR
STARTCHAR acute
ENCODING 180
SWIDTH 400 0
DWIDTH 8 0
BBX 4 5 2 11
BITMAP
30
30
70
E0
80
ENDCHAR
STARTCHAR mu.dup4
ENCODING 181
SWIDTH 596 0
DWIDTH 12 0
BBX 11 14 1 -4
BITMAP
73C0
F380
F380
F380
F380
F380
7380
7380
7FE0
FDC0
E000
E000
F000
C000
ENDCHAR
STARTCHAR paragraph
ENCODING 182
SWIDTH 651 0
DWIDTH 13 0
BBX 12 15 0 -2
BITMAP
0FF0
3CE0
7CE0
7CE0
FCE0
FCE0
FCE0
7CE0
7CE0
3CE0
0CE0
00E0
00E0
00E0
00E0
ENDCHAR
STARTCHAR periodcentered
ENCODING 183
SWIDTH 300 0
DWIDTH 6 0
BBX 4 4 1 5
BITMAP
60
F0
F0
F0
ENDCHAR
STARTCHAR cedilla
ENCODING 184
SWIDTH 400 0
DWIDTH 8 0
BBX 5 5 1 -5
BITMAP
20
30
18
78
E0
ENDCHAR
STARTCHAR one.sups
ENCODING 185
SWIDTH 374 0
DWIDTH 7 0
BBX 6 8 1 8
BITMAP
70
B0
30
30
30
30
30
FC
ENDCHAR
STARTCHAR ordmasculine
ENCODING 186
SWIDTH 381 0
DWIDTH 8 0
BBX 7 7 0 8
BITMAP
18
64
66
E6
E6
66
3C
ENDCHAR
STARTCHAR guillemotright
ENCODING 187
SWIDTH 578 0
DWIDTH 12 0
BBX 10 10 1 0
BITMAP
8400
CE00
6300
3B80
1DC0
1DC0
3B80
6700
CE00
8400
ENDCHAR
STARTCHAR onequarter
ENCODING 188
SWIDTH 880 0
DWIDTH 18 0
BBX 15 14 1 -1
BITMAP
7008
B018
3030
3020
3060
30CC
309C
F9AC
032C
024C
06FE
0C0C
180C
0800
ENDCHAR
STARTCHAR onehalf
ENCODING 189
SWIDTH 880 0
DWIDTH 18 0
BBX 16 14 1 -1
BITMAP
7018
F010
7030
7060
7040
70FE
71B6
F927
0206
060C
0410
083F
183F
1000
ENDCHAR
STARTCHAR threequarters
ENCODING 190
SWIDTH 880 0
DWIDTH 18 0
BBX 15 14 1 -1
BITMAP
7C08
6C18
0C30
3820
0C60
4ECC
CC9C
7D9C
032C
024C
067E
0C0C
180C
0800
ENDCHAR
STARTCHAR questiondown
ENCODING 191
SWIDTH 462 0
DWIDTH 9 0
BBX 7 13 1 -3
BITMAP
1C
1E
1E
0C
00
0C
7C
FC
F0
C0
7C
3E
1C
ENDCHAR
STARTCHAR Agrave
ENCODING 192
SWIDTH 680 0
DWIDTH 14 0
BBX 13 18 0 0
BITMAP
0800
1C00
1E00
0300
0000
0300
0780
0780
0780
0BC0
0BC0
09C0
11E0
1FE0
10E0
20F0
20F0
F1F8
ENDCHAR
STARTCHAR Aacute
ENCODING 193
SWIDTH 680 0
DWIDTH 14 0
BBX 13 18 0 0
BITMAP
0040
01E0
03C0
0700
0000
0300
0780
0780
0780
0BC0
0BC0
09C0
11E0
1FE0
10E0
20F0
20F0
F1F8
ENDCHAR
STARTCHAR Acircumflex
ENCODING 194
SWIDTH 680 0
DWIDTH 14 0
BBX 13 18 0 0
BITMAP
0300
0780
0FC0
18E0
1020
0300
0780
0780
0780
0BC0
0BC0
09C0
11E0
1FE0
10E0
20F0
20F0
F1F8
ENDCHAR
STARTCHAR Atilde
ENCODING 195
SWIDTH 680 0
DWIDTH 14 0
BBX 13 17 0 0
BITMAP
0E40
1FC0
13C0
0000
0300
0780
0780
0780
0BC0
0BC0
09C0
11E0
1FE0
10E0
20F0
20F0
F1F8
ENDCHAR
STARTCHAR Adieresis
ENCODING 196
SWIDTH 680 0
DWIDTH 14 0
BBX 13 17 0 0
BITMAP
1CE0
1CE0
1CE0
0000
0300
0780
0780
0780
0BC0
0BC0
09C0
11E0
1FE0
10E0
20F0
20F0
F1F8
ENDCHAR
STARTCHAR Aring
ENCODING 197
SWIDTH 680 0
DWIDTH 14 0
BBX 13 18 0 0
BITMAP
0300
0480
0480
0780
0000
0300
0780
0780
0780
0BC0
0BC0
09C0
11E0
1FE0
10E0
20F0
20F0
F1F8
ENDCHAR
STARTCHAR AE
ENCODING 198
SWIDTH 880 0
DWIDTH 18 0
BBX 17 13 0 0
BITMAP
0FFF80
02F180
02F180
06F000
04F200
0CF200
08FE00
1FF200
10F000
30F000
20F180
60F180
F3FF80
ENDCHAR
STARTCHAR Ccedilla
ENCODING 199
SWIDTH 618 0
DWIDTH 12 0
BBX 11 18 1 -5
BITMAP
1FE0
7860
7060
F060
F000
F000
F000
F000
F000
F060
7860
7860
1FE0
0200
0700
0180
0F80
0600
ENDCHAR
STARTCHAR Egrave
ENCODING 200
SWIDTH 591 0
DWIDTH 12 0
BBX 10 18 1 0
BITMAP
2000
7000
3C00
0C00
0000
FFC0
78C0
78C0
7800
7900
7900
7F00
7900
7800
7800
78C0
78C0
FFC0
ENDCHAR
STARTCHAR Eacute
ENCODING 201
SWIDTH 591 0
DWIDTH 12 0
BBX 10 18 1 0
BITMAP
0100
0380
0F00
0C00
0000
FFC0
78C0
78C0
7800
7900
7900
7F00
7900
7800
7800
78C0
78C0
FFC0
ENDCHAR
STARTCHAR Ecircumflex
ENCODING 202
SWIDTH 591 0
DWIDTH 12 0
BBX 10 18 1 0
BITMAP
0C00
1E00
3F00
7180
2080
FFC0
78C0
78C0
7800
7900
7900
7F00
7900
7800
7800
78C0
78C0
FFC0
ENDCHAR
STARTCHAR Edieresis
ENCODING 203
SWIDTH 591 0
DWIDTH 12 0
BBX 10 17 1 0
BITMAP
7380
7380
7380
0000
FFC0
78C0
78C0
7800
7900
7900
7F00
7900
7800
7800
78C0
78C0
FFC0
ENDCHAR
STARTCHAR Igrave
ENCODING 204
SWIDTH 395 0
DWIDTH 8 0
BBX 7 18 0 0
BITMAP
40
F0
78
1C
00
7E
3C
3C
3C
3C
3C
3C
3C
3C
3C
3C
3C
7E
ENDCHAR
STARTCHAR Iacute
ENCODING 205
SWIDTH 395 0
DWIDTH 8 0
BBX 7 18 1 0
BITMAP
04
1E
3C
70
00
FC
78
78
78
78
78
78
78
78
78
78
78
FC
ENDCHAR
STARTCHAR Icircumflex
ENCODING 206
SWIDTH 395 0
DWIDTH 8 0
BBX 8 18 0 0
BITMAP
18
3C
7E
C7
81
7E
3C
3C
3C
3C
3C
3C
3C
3C
3C
3C
3C
7E
ENDCHAR
STARTCHAR Idieresis
ENCODING 207
SWIDTH 395 0
DWIDTH 8 0
BBX 7 17 0 0
BITMAP
66
EE
66
00
7E
3C
3C
3C
3C
3C
3C
3C
3C
3C
3C
3C
7E
ENDCHAR
STARTCHAR Eth
ENCODING 208
SWIDTH 703 0
DWIDTH 14 0
BBX 13 13 1 0
BITMAP
FF80
7BC0
78E0
78F0
78F0
78F0
FEF8
78F0
78F0
78F0
78E0
7BC0
FF00
ENDCHAR
STARTCHAR Ntilde
ENCODING 209
SWIDTH 725 0
DWIDTH 15 0
BBX 14 17 0 0
BITMAP
0720
0FE0
09C0
0000
FC7C
3E10
3E10
3F10
3F90
37D0
33D0
33F0
31F0
30F0
30F0
3070
FC30
ENDCHAR
STARTCHAR Ograve
ENCODING 210
SWIDTH 700 0
DWIDTH 14 0
BBX 12 18 1 0
BITMAP
1000
3C00
1E00
0700
0000
1F80
79E0
70E0
F0F0
F0F0
F0F0
F0F0
F0F0
F0F0
F0F0
70E0
79E0
1F80
ENDCHAR
STARTCHAR Oacute
ENCODING 211
SWIDTH 700 0
DWIDTH 14 0
BBX 12 18 1 0
BITMAP
0080
03C0
0780
0E00
0000
1F80
79E0
70E0
F0F0
F0F0
F0F0
F0F0
F0F0
F0F0
F0F0
70E0
79E0
1F80
ENDCHAR
STARTCHAR Ocircumflex
ENCODING 212
SWIDTH 700 0
DWIDTH 14 0
BBX 12 18 1 0
BITMAP
0600
0F00
1F80
39C0
2040
1F80
79E0
70E0
F0F0
F0F0
F0F0
F0F0
F0F0
F0F0
F0F0
70E0
79E0
1F80
ENDCHAR
STARTCHAR Otilde
ENCODING 213
SWIDTH 700 0
DWIDTH 14 0
BBX 12 17 1 0
BITMAP
1CC0
1F80
3380
0000
1F80
79E0
70E0
F0F0
F0F0
F0F0
F0F0
F0F0
F0F0
F0F0
70E0
79E0
1F80
ENDCHAR
STARTCHAR Odieresis
ENCODING 214
SWIDTH 700 0
DWIDTH 14 0
BBX 12 17 1 0
BITMAP
39C0
39C0
39C0
0000
1F80
79E0
70E0
F0F0
F0F0
F0F0
F0F0
F0F0
F0F0
F0F0
70E0
79E0
1F80
ENDCHAR
STARTCHAR multiply
ENCODING 215
SWIDTH 550 0
DWIDTH 11 0
BBX 9 9 1 2
BITMAP
4100
E380
7700
3E00
1C00
3E00
7700
E380
C180
ENDCHAR
STARTCHAR Oslash
ENCODING 216
SWIDTH 700 0
DWIDTH 14 0
BBX 12 15 1 -1
BITMAP
0020
1FB0
79E0
70E0
F1F0
F1F0
E370
E670
EC70
F8F0
F8F0
70E0
79E0
DF80
4000
ENDCHAR
STARTCHAR Ugrave
ENCODING 217
SWIDTH 732 0
DWIDTH 15 0
BBX 14 18 0 0
BITMAP
0400
0700
0780
01C0
0000
FE7C
3C18
3C18
3C18
3C18
3C18
3C18
3C18
3C18
3C10
3E30
1FF0
0FE0
ENDCHAR
STARTCHAR Uacute
ENCODING 218
SWIDTH 732 0
DWIDTH 15 0
BBX 14 18 0 0
BITMAP
0020
00F0
01E0
0380
0000
FE7C
3C18
3C18
3C18
3C18
3C18
3C18
3C18
3C18
3C10
3E30
1FF0
0FE0
ENDCHAR
STARTCHAR Ucircumflex
ENCODING 219
SWIDTH 732 0
DWIDTH 15 0
BBX 14 18 0 0
BITMAP
0180
03C0
07E0
0E30
0410
FE7C
3C18
3C18
3C18
3C18
3C18
3C18
3C18
3C18
3C10
3E30
1FF0
0FE0
ENDCHAR
STARTCHAR Udieresis
ENCODING 220
SWIDTH 732 0
DWIDTH 15 0
BBX 14 17 0 0
BITMAP
0E30
0E70
0E30
0000
FE7C
3C18
3C18
3C18
3C18
3C18
3C18
3C18
3C18
3C10
3E30
1FF0
0FE0
ENDCHAR
STARTCHAR Yacute
ENCODING 221
SWIDTH 621 0
DWIDTH 12 0
BBX 12 18 0 0
BITMAP
0040
00E0
01E0
0300
0000
FEF0
7C20
3C60
3E40
1EC0
1E80
0F80
0F00
0F00
0F00
0F00
0F00
1FC0
ENDCHAR
STARTCHAR Thorn
ENCODING 222
SWIDTH 626 0
DWIDTH 13 0
BBX 11 13 1 0
BITMAP
FC00
7800
7F00
7FC0
79E0
78E0
78E0
79E0
79E0
7F80
7800
7800
FC00
ENDCHAR
STARTCHAR germandbls
ENCODING 223
SWIDTH 687 0
DWIDTH 14 0
BBX 13 15 1 0
BITMAP
0700
1DE0
38E0
70E0
70E0
F0C0
F300
F300
F7C0
F7F0
F3F0
F0F8
F670
F670
F7E0
ENDCHAR
STARTCHAR agrave
ENCODING 224
SWIDTH 540 0
DWIDTH 11 0
BBX 11 16 0 0
BITMAP
1000
3800
3C00
0C00
0600
0000
1F00
7380
7380
6380
0FC0
3BC0
73C0
F3C0
7FE0
7BC0
ENDCHAR
STARTCHAR aacute
ENCODING 225
SWIDTH 540 0
DWIDTH 11 0
BBX 11 16 0 0
BITMAP
0100
0380
0700
0E00
0C00
0000
1F00
7380
7380
6380
0FC0
3BC0
73C0
F3C0
7FE0
7BC0
ENDCHAR
STARTCHAR acircumflex
ENCODING 226
SWIDTH 540 0
DWIDTH 11 0
BBX 11 15 0 0
BITMAP
0E00
0F00
1B00
3180
0000
1F00
7380
7380
6380
0FC0
3BC0
73C0
F3C0
7FE0
7BC0
ENDCHAR
STARTCHAR atilde
ENCODING 227
SWIDTH 540 0
DWIDTH 11 0
BBX 11 15 0 0
BITMAP
1880
3F80
3F80
2200
0000
1F00
7380
7380
6380
0FC0
3BC0
73C0
F3C0
7FE0
7BC0
ENDCHAR
STARTCHAR adieresis
ENCODING 228
SWIDTH 540 0
DWIDTH 11 0
BBX 11 15 0 0
BITMAP
2100
73C0
7BC0
3180
0000
1F00
7380
7380
6380
0FC0
3BC0
73C0
F3C0
7FE0
7BC0
ENDCHAR
STARTCHAR aring
ENCODING 229
SWIDTH 540 0
DWIDTH 11 0
BBX 11 16 0 0
BITMAP
0E00
1B00
1100
1B00
0E00
0000
1F00
7380
7380
6380
0FC0
3BC0
73C0
F3C0
7FE0
7BC0
ENDCHAR
STARTCHAR ae
ENCODING 230
SWIDTH 792 0
DWIDTH 16 0
BBX 15 10 0 0
BITMAP
1F78
73CE
73CE
63CE
0FFE
3BC0
73C0
F3E2
7BFE
7CFC
ENDCHAR
STARTCHAR ccedilla
ENCODING 231
SWIDTH 523 0
DWIDTH 10 0
BBX 10 15 0 -5
BITMAP
1F00
3980
79C0
79C0
F000
F000
7800
7840
7FC0
1F80
0400
0600
0300
0F00
1C00
ENDCHAR
STARTCHAR egrave
ENCODING 232
SWIDTH 526 0
DWIDTH 11 0
BBX 10 16 0 0
BITMAP
1800
1800
1C00
0E00
0200
0000
1F00
3B80
79C0
71C0
FFC0
F000
7800
7840
3FC0
1F80
ENDCHAR
STARTCHAR eacute
ENCODING 233
SWIDTH 526 0
DWIDTH 11 0
BBX 10 16 0 0
BITMAP
0100
0380
0700
0600
0C00
0000
1F00
3B80
79C0
71C0
FFC0
F000
7800
7840
3FC0
1F80
ENDCHAR
STARTCHAR ecircumflex
ENCODING 234
SWIDTH 526 0
DWIDTH 11 0
BBX 10 15 0 0
BITMAP
0E00
0F00
1B80
3080
0000
1F00
3B80
79C0
71C0
FFC0
F000
7800
7840
3FC0
1F80
ENDCHAR
STARTCHAR edieresis
ENCODING 235
SWIDTH 526 0
DWIDTH 11 0
BBX 10 15 0 0
BITMAP
1080
39C0
39C0
1080
0000
1F00
3B80
79C0
71C0
FFC0
F000
7800
7840
3FC0
1F80
ENDCHAR
STARTCHAR igrave
ENCODING 236
SWIDTH 324 0
DWIDTH 6 0
BBX 6 16 0 0
BITMAP
40
E0
F0
30
18
00
18
F8
78
78
78
78
78
78
78
7C
ENDCHAR
STARTCHAR iacute
ENCODING 237
SWIDTH 324 0
DWIDTH 6 0
BBX 7 16 0 0
BITMAP
04
0E
1C
18
30
00
18
F8
78
78
78
78
78
78
78
7C
ENDCHAR
STARTCHAR icircumflex
ENCODING 238
SWIDTH 324 0
DWIDTH 6 0
BBX 7 15 0 0
BITMAP
38
7C
6C
C6
00
18
F8
78
78
78
78
78
78
78
7C
ENDCHAR
STARTCHAR idieresis
ENCODING 239
SWIDTH 324 0
DWIDTH 6 0
BBX 7 15 0 0
BITMAP
44
EE
EE
44
00
18
F8
78
78
78
78
78
78
78
7C
ENDCHAR
STARTCHAR eth
ENCODING 240
SWIDTH 558 0
DWIDTH 11 0
BBX 11 15 0 0
BITMAP
2040
3DC0
0F00
3F00
3380
0FC0
3BC0
79C0
79E0
F1E0
F1E0
71C0
79C0
3B80
1F00
ENDCHAR
STARTCHAR ntilde
ENCODING 241
SWIDTH 620 0
DWIDTH 12 0
BBX 12 15 0 0
BITMAP
0C40
1FC0
1F80
1100
0000
1BC0
FFE0
79E0
79E0
79E0
79E0
79E0
79E0
79E0
FDF0
ENDCHAR
STARTCHAR ograve
ENCODING 242
SWIDTH 572 0
DWIDTH 11 0
BBX 11 16 0 0
BITMAP
1000
3800
1C00
0C00
0600
0000
1F00
3BC0
79C0
71E0
F1E0
F1E0
71E0
79E0
39C0
1F80
ENDCHAR
STARTCHAR oacute
ENCODING 243
SWIDTH 572 0
DWIDTH 11 0
BBX 11 16 0 0
BITMAP
0180
0380
0380
0700
0400
0000
1F00
3BC0
79C0
71E0
F1E0
F1E0
71E0
79E0
39C0
1F80
ENDCHAR
STARTCHAR ocircumflex
ENCODING 244
SWIDTH 572 0
DWIDTH 11 0
BBX 11 15 0 0
BITMAP
0E00
0F00
1B80
3080
0000
1F00
3BC0
79C0
71E0
F1E0
F1E0
71E0
79E0
39C0
1F80
ENDCHAR
STARTCHAR otilde
ENCODING 245
SWIDTH 572 0
DWIDTH 11 0
BBX 11 15 0 0
BITMAP
0880
1F80
3F80
2300
0000
1F00
3BC0
79C0
71E0
F1E0
F1E0
71E0
79E0
39C0
1F80
ENDCHAR
STARTCHAR odieresis
ENCODING 246
SWIDTH 572 0
DWIDTH 11 0
BBX 11 15 0 0
BITMAP
1080
39C0
39C0
3180
0000
1F00
3BC0
79C0
71E0
F1E0
F1E0
71E0
79E0
39C0
1F80
ENDCHAR
STARTCHAR divide
ENCODING 247
SWIDTH 550 0
DWIDTH 11 0
BBX 9 11 1 1
BITMAP
0800
1C00
1C00
0000
0000
FF80
FF80
0000
1C00
1C00
0800
ENDCHAR
STARTCHAR oslash
ENCODING 248
SWIDTH 572 0
DWIDTH 11 0
BBX 11 12 0 -1
BITMAP
0040
1F40
39C0
71C0
73E0
F7E0
F5E0
7DE0
79E0
39C0
7F80
2000
ENDCHAR
STARTCHAR ugrave
ENCODING 249
SWIDTH 617 0
DWIDTH 12 0
BBX 12 16 0 0
BITMAP
0800
1C00
1E00
0600
0300
0000
38E0
FBE0
79E0
79E0
79E0
79E0
79E0
79E0
3FE0
3FF0
ENDCHAR
STARTCHAR uacute
ENCODING 250
SWIDTH 617 0
DWIDTH 12 0
BBX 12 16 0 0
BITMAP
0100
0380
0380
0700
0400
0000
38E0
FBE0
79E0
79E0
79E0
79E0
79E0
79E0
3FE0
3FF0
ENDCHAR
STARTCHAR ucircumflex
ENCODING 251
SWIDTH 617 0
DWIDTH 12 0
BBX 12 15 0 0
BITMAP
0700
0F00
1D80
10C0
0000
38E0
FBE0
79E0
79E0
79E0
79E0
79E0
79E0
3FE0
3FF0
ENDCHAR
STARTCHAR udieresis
ENCODING 252
SWIDTH 617 0
DWIDTH 12 0
BBX 12 15 0 0
BITMAP
1080
39C0
3DE0
18C0
0000
38E0
FBE0
79E0
79E0
79E0
79E0
79E0
79E0
3FE0
3FF0
ENDCHAR
STARTCHAR yacute
ENCODING 253
SWIDTH 543 0
DWIDTH 11 0
BBX 11 21 0 -5
BITMAP
0080
01C0
03C0
0300
0600
0000
FDE0
78C0
7880
3D80
3D00
1D00
1F00
1E00
0E00
0C00
0400
0400
F800
F800
6000
ENDCHAR
STARTCHAR thorn
ENCODING 254
SWIDTH 623 0
DWIDTH 12 0
BBX 12 18 0 -4
BITMAP
F800
7800
7800
7800
7BC0
7FE0
79F0
78F0
78F0
78F0
78F0
78F0
7FE0
7FC0
7800
7800
7800
7C00
ENDCHAR
STARTCHAR ydieresis
ENCODING 255
SWIDTH 543 0
DWIDTH 11 0
BBX 11 20 0 -5
BITMAP
0840
3CE0
3DE0
18C0
0000
FDE0
78C0
7880
3D80
3D00
1D00
1F00
1E00
0E00
0C00
0400
0400
F800
F800
6000
ENDCHAR
STARTCHAR Amacron
ENCODING 256
SWIDTH 680 0
DWIDTH 14 0
BBX 13 16 0 0
BITMAP
0FC0
0FC0
0000
0300
0780
0780
0780
0BC0
0BC0
09C0
11E0
1FE0
10E0
20F0
20F0
F1F8
ENDCHAR
STARTCHAR amacron
ENCODING 257
SWIDTH 540 0
DWIDTH 11 0
BBX 11 14 0 0
BITMAP
3F80
3F80
0000
0000
1F00
7380
7380
6380
0FC0
3BC0
73C0
F3C0
7FE0
7BC0
ENDCHAR
STARTCHAR Abreve
ENCODING 258
SWIDTH 680 0
DWIDTH 14 0
BBX 13 17 0 0
BITMAP
1840
0FC0
0780
0000
0300
0780
0780
0780
0BC0
0BC0
09C0
11E0
1FE0
10E0
20F0
20F0
F1F8
ENDCHAR
STARTCHAR abreve
ENCODING 259
SWIDTH 540 0
DWIDTH 11 0
BBX 11 15 0 0
BITMAP
2180
3180
1F00
0E00
0000
1F00
7380
7380
6380
0FC0
3BC0
73C0
F3C0
7FE0
7BC0
ENDCHAR
STARTCHAR Aogonek
ENCODING 260
SWIDTH 680 0
DWIDTH 14 0
BBX 14 18 0 -5
BITMAP
0300
0780
0780
0780
0BC0
0BC0
09C0
11E0
1FE0
10E0
20F0
20F0
F1F8
0060
0060
00E0
007C
0020
ENDCHAR
STARTCHAR aogonek
ENCODING 261
SWIDTH 540 0
DWIDTH 11 0
BBX 12 15 0 -5
BITMAP
1F00
7380
7380
6380
0FC0
3BC0
73C0
F3C0
7FE0
7BC0
0080
0180
0380
01F0
0080
ENDCHAR
STARTCHAR Cacute
ENCODING 262
SWIDTH 618 0
DWIDTH 12 0
BBX 11 18 1 0
BITMAP
0040
01C0
03C0
0700
0000
1FE0
7860
7060
F060
F000
F000
F000
F000
F000
F060
7860
7860
1FE0
ENDCHAR
STARTCHAR cacute
ENCODING 263
SWIDTH 523 0
DWIDTH 10 0
BBX 10 16 0 0
BITMAP
0100
0380
0700
0600
0C00
0000
1F00
3980
79C0
79C0
F000
F000
7800
7840
7FC0
1F80
ENDCHAR
STARTCHAR Ccircumflex
ENCODING 264
SWIDTH 618 0
DWIDTH 12 0
BBX 11 18 1 0
BITMAP
0600
0F00
1F80
18C0
2040
1FE0
7860
7060
F060
F000
F000
F000
F000
F000
F060
7860
7860
1FE0
ENDCHAR
STARTCHAR ccircumflex
ENCODING 265
SWIDTH 523 0
DWIDTH 10 0
BBX 10 15 0 0
BITMAP
0600
0F00
1D80
30C0
0000
1F00
3980
79C0
79C0
F000
F000
7800
7840
7FC0
1F80
ENDCHAR
STARTCHAR Cdotaccent
ENCODING 266
SWIDTH 618 0
DWIDTH 12 0
BBX 11 17 1 0
BITMAP
0700
0700
0700
0000
1FE0
7860
7060
F060
F000
F000
F000
F000
F000
F060
7860
7860
1FE0
ENDCHAR
STARTCHAR cdotaccent
ENCODING 267
SWIDTH 523 0
DWIDTH 10 0
BBX 10 15 0 0
BITMAP
0200
0700
0700
0600
0000
1F00
3980
79C0
79C0
F000
F000
7800
7840
7FC0
1F80
ENDCHAR
STARTCHAR Ccaron
ENCODING 268
SWIDTH 618 0
DWIDTH 12 0
BBX 11 18 1 0
BITMAP
1040
1DC0
0F80
0700
0000
1FE0
7860
7060
F060
F000
F000
F000
F000
F000
F060
7860
7860
1FE0
ENDCHAR
STARTCHAR ccaron
ENCODING 269
SWIDTH 523 0
DWIDTH 10 0
BBX 10 16 0 0
BITMAP
1080
1980
0F00
0F00
0600
0000
1F00
3980
79C0
79C0
F000
F000
7800
7840
7FC0
1F80
ENDCHAR
STARTCHAR Dcaron
ENCODING 270
SWIDTH 703 0
DWIDTH 14 0
BBX 13 18 1 0
BITMAP
2080
3B80
1F00
0E00
0000
FF80
7BC0
78E0
78F0
78F0
78F0
78F8
78F0
78F0
78F0
78E0
7BC0
FF00
ENDCHAR
STARTCHAR dcaron
ENCODING 271
SWIDTH 615 0
DWIDTH 12 0
BBX 14 15 0 0
BITMAP
0004
03EC
01EC
01EC
01E8
1FE0
3FE0
79E0
79E0
F9E0
F1E0
79E0
79E0
7FE0
3FF0
ENDCHAR
STARTCHAR Dcroat
ENCODING 272
SWIDTH 703 0
DWIDTH 14 0
BBX 13 13 1 0
BITMAP
FF80
7BC0
78E0
78F0
78F0
78F0
FEF8
78F0
78F0
78F0
78E0
7BC0
FF00
ENDCHAR
STARTCHAR dcroat
ENCODING 273
SWIDTH 605 0
DWIDTH 12 0
BBX 12 14 0 0
BITMAP
03E0
01E0
0FF0
01E0
0DE0
3FE0
79E0
79E0
F9E0
F1E0
79E0
79E0
7FE0
3FF0
ENDCHAR
STARTCHAR Emacron
ENCODING 274
SWIDTH 591 0
DWIDTH 12 0
BBX 10 16 1 0
BITMAP
3F80
3F80
0000
FFC0
78C0
78C0
7800
7900
7900
7F00
7900
7800
7800
78C0
78C0
FFC0
ENDCHAR
STARTCHAR emacron
ENCODING 275
SWIDTH 526 0
DWIDTH 11 0
BBX 10 14 0 0
BITMAP
3F80
3F80
0000
0000
1F00
3B80
79C0
71C0
FFC0
F000
7800
7840
3FC0
1F80
ENDCHAR
STARTCHAR Ebreve
ENCODING 276
SWIDTH 591 0
DWIDTH 12 0
BBX 10 17 1 0
BITMAP
2180
3F00
1E00
0000
FFC0
78C0
78C0
7800
7900
7900
7F00
7900
7800
7800
78C0
78C0
FFC0
ENDCHAR
STARTCHAR ebreve
ENCODING 277
SWIDTH 526 0
DWIDTH 11 0
BBX 10 15 0 0
BITMAP
2080
3180
1F00
0E00
0000
1F00
3B80
79C0
71C0
FFC0
F000
7800
7840
3FC0
1F80
ENDCHAR
STARTCHAR Edotaccent
ENCODING 278
SWIDTH 591 0
DWIDTH 12 0
BBX 10 17 1 0
BITMAP
0E00
1E00
0E00
0000
FFC0
78C0
78C0
7800
7900
7900
7F00
7900
7800
7800
78C0
78C0
FFC0
ENDCHAR
STARTCHAR edotaccent
ENCODING 279
SWIDTH 526 0
DWIDTH 11 0
BBX 10 15 0 0
BITMAP
0600
0F00
0F00
0600
0000
1F00
3B80
79C0
71C0
FFC0
F000
7800
7840
3FC0
1F80
ENDCHAR
STARTCHAR Eogonek
ENCODING 280
SWIDTH 591 0
DWIDTH 12 0
BBX 11 18 1 -5
BITMAP
FFC0
78C0
78C0
7800
7900
7900
7F00
7900
7800
7800
78C0
78C0
FFC0
0100
0300
0380
03E0
0080
ENDCHAR
STARTCHAR eogonek
ENCODING 281
SWIDTH 526 0
DWIDTH 11 0
BBX 10 15 0 -5
BITMAP
1F00
3B80
79C0
71C0
FFC0
F000
7800
7840
3FC0
1F80
0200
0600
0700
07C0
0300
ENDCHAR
STARTCHAR Ecaron
ENCODING 282
SWIDTH 591 0
DWIDTH 12 0
BBX 10 18 1 0
BITMAP
6180
3300
1E00
0E00
0000
FFC0
78C0
78C0
7800
7900
7900
7F00
7900
7800
7800
78C0
78C0
FFC0
ENDCHAR
STARTCHAR ecaron
ENCODING 283
SWIDTH 526 0
DWIDTH 11 0
BBX 10 16 0 0
BITMAP
1080
3180
1F00
0E00
0600
0000
1F00
3B80
79C0
71C0
FFC0
F000
7800
7840
3FC0
1F80
ENDCHAR
STARTCHAR Gcircumflex
ENCODING 284
SWIDTH 672 0
DWIDTH 13 0
BBX 12 18 1 0
BITMAP
0600
0F00
1F80
38C0
1040
1FE0
7860
7860
F060
F000
F000
F3F0
F3F0
F1E0
F1E0
79E0
79E0
1FE0
ENDCHAR
STARTCHAR gcircumflex
ENCODING 285
SWIDTH 553 0
DWIDTH 11 0
BBX 11 19 0 -4
BITMAP
0C00
1E00
3B00
2180
0000
3F60
73E0
7380
7380
7380
3F00
6000
7000
7FC0
7FE0
7FE0
C0E0
E1C0
7F80
ENDCHAR
STARTCHAR Gbreve
ENCODING 286
SWIDTH 672 0
DWIDTH 13 0
BBX 12 17 1 0
BITMAP
18C0
0FC0
0F80
0000
1FE0
7860
7860
F060
F000
F000
F3F0
F3F0
F1E0
F1E0
79E0
79E0
1FE0
ENDCHAR
STARTCHAR gbreve
ENCODING 287
SWIDTH 553 0
DWIDTH 11 0
BBX 11 19 0 -4
BITMAP
2180
3300
1F00
0E00
0000
3F60
73E0
7380
7380
7380
3F00
6000
7000
7FC0
7FE0
7FE0
C0E0
E1C0
7F80
ENDCHAR
STARTCHAR Gdotaccent
ENCODING 288
SWIDTH 672 0
DWIDTH 13 0
BBX 12 17 1 0
BITMAP
0700
0700
0700
0000
1FE0
7860
7860
F060
F000
F000
F3F0
F3F0
F1E0
F1E0
79E0
79E0
1FE0
ENDCHAR
STARTCHAR gdotaccent
ENCODING 289
SWIDTH 553 0
DWIDTH 11 0
BBX 11 19 0 -4
BITMAP
0C00
1E00
1E00
0C00
0000
3F60
73E0
7380
7380
7380
3F00
6000
7000
7FC0
7FE0
7FE0
C0E0
E1C0
7F80
ENDCHAR
STARTCHAR uni0122
ENCODING 290
SWIDTH 672 0
DWIDTH 13 0
BBX 12 19 1 -6
BITMAP
1FE0
7860
7860
F060
F000
F000
F3F0
F3F0
F1E0
F1E0
79E0
79E0
1FE0
0000
0300
0780
0300
0300
0400
ENDCHAR
STARTCHAR uni0123
ENCODING 291
SWIDTH 553 0
DWIDTH 11 0
BBX 11 20 0 -4
BITMAP
0200
0C00
0C00
1E00
0C00
0000
3F60
73E0
7380
7380
7380
3F00
6000
7000
7FC0
7FE0
7FE0
C0E0
E1C0
7F80
ENDCHAR
STARTCHAR Hcircumflex
ENCODING 292
SWIDTH 756 0
DWIDTH 15 0
BBX 14 18 1 0
BITMAP
0300
0700
0F80
18E0
1040
FDFC
78F0
78F0
78F0
78F0
78F0
7FF0
78F0
78F0
78F0
78F0
78F0
FDFC
ENDCHAR
STARTCHAR hcircumflex
ENCODING 293
SWIDTH 624 0
DWIDTH 12 0
BBX 12 19 0 0
BITMAP
0600
0F00
1F80
38C0
1040
F800
7800
7800
7800
7BC0
7FE0
7DE0
79E0
79E0
79E0
79E0
79E0
79E0
7DF0
ENDCHAR
STARTCHAR Hbar
ENCODING 294
SWIDTH 756 0
DWIDTH 15 0
BBX 15 13 0 0
BITMAP
7EFE
3C78
3C78
FFFE
3C78
3C78
3FF8
3FF8
3C78
3C78
3C78
3C78
7EFE
ENDCHAR
STARTCHAR hbar
ENCODING 295
SWIDTH 624 0
DWIDTH 12 0
BBX 12 14 0 0
BITMAP
F800
7800
FF00
FF00
7880
7BE0
7FE0
79E0
79E0
79E0
79E0
79E0
79E0
7DF0
ENDCHAR
STARTCHAR Itilde
ENCODING 296
SWIDTH 395 0
DWIDTH 8 0
BBX 8 17 0 0
BITMAP
73
7E
DE
00
7E
3C
3C
3C
3C
3C
3C
3C
3C
3C
3C
3C
7E
ENDCHAR
STARTCHAR itilde
ENCODING 297
SWIDTH 324 0
DWIDTH 6 0
BBX 7 15 0 0
BITMAP
62
FE
FC
88
00
18
F8
78
78
78
78
78
78
78
7C
ENDCHAR
STARTCHAR Imacron
ENCODING 298
SWIDTH 395 0
DWIDTH 8 0
BBX 6 16 1 0
BITMAP
FC
FC
00
FC
78
78
78
78
78
78
78
78
78
78
78
FC
ENDCHAR
STARTCHAR imacron
ENCODING 299
SWIDTH 324 0
DWIDTH 6 0
BBX 7 14 0 0
BITMAP
FE
FE
00
00
18
F8
78
78
78
78
78
78
78
7C
ENDCHAR
STARTCHAR Iogonek
ENCODING 302
SWIDTH 395 0
DWIDTH 8 0
BBX 7 18 1 -5
BITMAP
FC
78
78
78
78
78
78
78
78
78
78
78
FC
10
30
38
3E
18
ENDCHAR
STARTCHAR iogonek
ENCODING 303
SWIDTH 324 0
DWIDTH 6 0
BBX 7 20 0 -5
BITMAP
30
38
78
30
00
18
F8
78
78
78
78
78
78
78
7C
10
30
70
3E
18
ENDCHAR
STARTCHAR Idotaccent
ENCODING 304
SWIDTH 395 0
DWIDTH 8 0
BBX 6 17 1 0
BITMAP
78
78
30
00
FC
78
78
78
78
78
78
78
78
78
78
78
FC
ENDCHAR
STARTCHAR dotlessi
ENCODING 305
SWIDTH 324 0
DWIDTH 6 0
BBX 6 10 0 0
BITMAP
18
F8
78
78
78
78
78
78
78
7C
ENDCHAR
STARTCHAR Jcircumflex
ENCODING 308
SWIDTH 404 0
DWIDTH 8 0
BBX 10 22 -2 -4
BITMAP
0600
0F00
1F80
38C0
2040
1FC0
0F00
0F00
0F00
0F00
0F00
0F00
0F00
0F00
0F00
0F00
0F00
0F00
4E00
EE00
FC00
2000
ENDCHAR
STARTCHAR jcircumflex
ENCODING 309
SWIDTH 320 0
DWIDTH 6 0
BBX 10 20 -3 -5
BITMAP
0600
0F00
1D80
10C0
0000
0300
1F00
0F00
0F00
0F00
0F00
0F00
0F00
0F00
0F00
0F00
2700
F600
7E00
3000
ENDCHAR
STARTCHAR uni0136
ENCODING 310
SWIDTH 708 0
DWIDTH 14 0
BBX 13 19 1 -6
BITMAP
FCF0
7840
7880
7980
7B00
7B80
7F80
7BC0
7BC0
79E0
79E0
78F0
FDF8
0000
0700
0700
0700
0600
0800
ENDCHAR
STARTCHAR uni0137
ENCODING 311
SWIDTH 619 0
DWIDTH 12 0
BBX 12 20 0 -6
BITMAP
F800
7800
7800
7800
79F0
78C0
7980
7B80
7F80
7FC0
7BC0
79E0
79E0
7CF0
0000
0700
0700
0700
0600
0400
ENDCHAR
STARTCHAR kgreenlandic
ENCODING 312
SWIDTH 615 0
DWIDTH 12 0
BBX 12 10 0 0
BITMAP
19F0
F8C0
7980
7B80
7F80
7BC0
7BC0
79C0
79E0
FDF0
ENDCHAR
STARTCHAR Lacute
ENCODING 313
SWIDTH 574 0
DWIDTH 11 0
BBX 10 18 1 0
BITMAP
0200
0700
0E00
1800
0000
FE00
7800
7800
7800
7800
7800
7800
7800
7800
78C0
78C0
78C0
FFC0
ENDCHAR
STARTCHAR lacute
ENCODING 314
SWIDTH 334 0
DWIDTH 7 0
BBX 7 19 0 0
BITMAP
06
0E
1E
38
00
F8
78
78
78
78
78
78
78
78
78
78
78
78
7C
ENDCHAR
STARTCHAR uni013B
ENCODING 315
SWIDTH 574 0
DWIDTH 11 0
BBX 10 19 1 -6
BITMAP
FE00
7800
7800
7800
7800
7800
7800
7800
7800
78C0
78C0
78C0
FFC0
0000
0C00
1E00
0C00
0C00
1000
ENDCHAR
STARTCHAR uni013C
ENCODING 316
SWIDTH 334 0
DWIDTH 7 0
BBX 6 20 0 -6
BITMAP
F8
78
78
78
78
78
78
78
78
78
78
78
78
7C
00
38
38
38
30
40
ENDCHAR
STARTCHAR Lcaron
ENCODING 317
SWIDTH 574 0
DWIDTH 11 0
BBX 10 14 1 0
BITMAP
00C0
FEC0
78C0
7880
7800
7800
7800
7800
7800
7800
78C0
78C0
78C0
FFC0
ENDCHAR
STARTCHAR lcaron
ENCODING 318
SWIDTH 334 0
DWIDTH 7 0
BBX 9 15 0 0
BITMAP
0100
FB80
7B00
7B00
7B00
7800
7800
7800
7800
7800
7800
7800
7800
7800
7C00
ENDCHAR
STARTCHAR Ldot
ENCODING 319
SWIDTH 574 0
DWIDTH 11 0
BBX 11 13 1 0
BITMAP
FE00
7800
7800
7880
79C0
79E0
79C0
7800
7800
78C0
78C0
78C0
FFC0
ENDCHAR
STARTCHAR ldot
ENCODING 320
SWIDTH 432 0
DWIDTH 9 0
BBX 10 14 0 0
BITMAP
F800
7800
7800
7800
7800
7900
7B80
7BC0
7B80
7800
7800
7800
7800
7C00
ENDCHAR
STARTCHAR Lslash
ENCODING 321
SWIDTH 574 0
DWIDTH 11 0
BBX 10 13 1 0
BITMAP
FE00
7800
7800
7800
7E00
7E00
7800
F800
F800
78C0
78C0
78C0
FFC0
ENDCHAR
STARTCHAR lslash
ENCODING 322
SWIDTH 334 0
DWIDTH 7 0
BBX 6 14 0 0
BITMAP
F8
78
78
78
7C
7C
7C
F8
F8
78
78
78
78
7C
ENDCHAR
STARTCHAR Nacute
ENCODING 323
SWIDTH 725 0
DWIDTH 15 0
BBX 14 18 0 0
BITMAP
0040
00E0
01C0
0300
0000
FC7C
3E10
3E10
3F10
3F90
37D0
33D0
33F0
31F0
30F0
30F0
3070
FC30
ENDCHAR
STARTCHAR nacute
ENCODING 324
SWIDTH 620 0
DWIDTH 12 0
BBX 12 16 0 0
BITMAP
00C0
01C0
01C0
0380
0200
0000
1BC0
FFE0
79E0
79E0
79E0
79E0
79E0
79E0
79E0
FDF0
ENDCHAR
STARTCHAR uni0145
ENCODING 325
SWIDTH 725 0
DWIDTH 15 0
BBX 14 19 0 -6
BITMAP
FC7C
3E10
3E10
3F10
3F90
37D0
33D0
33F0
31F0
30F0
30F0
3070
FC30
0000
0380
0380
0380
0300
0200
ENDCHAR
STARTCHAR uni0146
ENCODING 326
SWIDTH 620 0
DWIDTH 12 0
BBX 12 16 0 -6
BITMAP
1BC0
FFE0
79E0
79E0
79E0
79E0
79E0
79E0
79E0
FDF0
0000
0700
0F00
0700
0600
0800
ENDCHAR
STARTCHAR Ncaron
ENCODING 327
SWIDTH 725 0
DWIDTH 15 0
BBX 14 18 0 0
BITMAP
0820
0CC0
07C0
0380
0000
FC7C
3E10
3E10
3F10
3F90
37D0
33D0
33F0
31F0
30F0
30F0
3070
FC30
ENDCHAR
STARTCHAR ncaron
ENCODING 328
SWIDTH 620 0
DWIDTH 12 0
BBX 12 16 0 0
BITMAP
0840
18C0
0F80
0700
0300
0000
1BC0
FFE0
79E0
79E0
79E0
79E0
79E0
79E0
79E0
FDF0
ENDCHAR
STARTCHAR napostrophe
ENCODING 329
SWIDTH 820 0
DWIDTH 16 0
BBX 16 15 0 0
BITMAP
6000
F000
F000
7000
3000
61BC
8FFE
079E
079E
079E
079E
079E
079E
079E
0FDF
ENDCHAR
STARTCHAR Omacron
ENCODING 332
SWIDTH 700 0
DWIDTH 14 0
BBX 12 16 1 0
BITMAP
1F80
1F80
0000
1F80
79E0
70E0
F0F0
F0F0
F0F0
F0F0
F0F0
F0F0
F0F0
70E0
79E0
1F80
ENDCHAR
STARTCHAR omacron
ENCODING 333
SWIDTH 572 0
DWIDTH 11 0
BBX 11 14 0 0
BITMAP
3F80
3F80
0000
0000
1F00
3BC0
79C0
71E0
F1E0
F1E0
71E0
79E0
39C0
1F80
ENDCHAR
STARTCHAR uni014E
ENCODING 334
SWIDTH 700 0
DWIDTH 14 0
BBX 12 17 1 0
BITMAP
1080
1F80
0F00
0000
1F80
79E0
70E0
F0F0
F0F0
F0F0
F0F0
F0F0
F0F0
F0F0
70E0
79E0
1F80
ENDCHAR
STARTCHAR uni014F
ENCODING 335
SWIDTH 572 0
DWIDTH 11 0
BBX 11 15 0 0
BITMAP
3080
1180
1F00
0E00
0000
1F00
3BC0
79C0
71E0
F1E0
F1E0
71E0
79E0
39C0
1F80
ENDCHAR
STARTCHAR Ohungarumlaut
ENCODING 336
SWIDTH 700 0
DWIDTH 14 0
BBX 12 18 1 0
BITMAP
06C0
0EC0
0D80
1900
0000
1F80
79E0
70E0
F0F0
F0F0
F0F0
F0F0
F0F0
F0F0
F0F0
70E0
79E0
1F80
ENDCHAR
STARTCHAR ohungarumlaut
ENCODING 337
SWIDTH 572 0
DWIDTH 11 0
BBX 11 16 0 0
BITMAP
06C0
06C0
0DC0
0D80
0900
0000
1F00
3BC0
79C0
71E0
F1E0
F1E0
71E0
79E0
39C0
1F80
ENDCHAR
STARTCHAR OE
ENCODING 338
SWIDTH 927 0
DWIDTH 19 0
BBX 17 13 1 0
BITMAP
1FFF80
78F180
70F180
F0F000
F0F200
F0F600
F0FE00
F0F200
F0F000
F0F000
78F180
78F180
1FFF80
ENDCHAR
STARTCHAR oe
ENCODING 339
SWIDTH 854 0
DWIDTH 17 0
BBX 17 10 0 0
BITMAP
1F3E00
3BE700
79E700
71E780
F1FF80
F1E000
71E000
79F100
39FF80
1F3E00
ENDCHAR
STARTCHAR Racute
ENCODING 340
SWIDTH 696 0
DWIDTH 14 0
BBX 13 18 1 0
BITMAP
0180
0380
0780
0E00
0000
FFC0
79E0
79E0
78E0
79E0
79C0
7F80
79C0
79E0
79E0
79E0
79E0
FCF8
ENDCHAR
STARTCHAR racute
ENCODING 341
SWIDTH 483 0
DWIDTH 10 0
BBX 10 16 0 0
BITMAP
0180
0380
0380
0700
0400
0000
1B80
FBC0
7DC0
7C00
7800
7800
7800
7800
7800
FE00
ENDCHAR
STARTCHAR uni0156
ENCODING 342
SWIDTH 696 0
DWIDTH 14 0
BBX 13 19 1 -6
BITMAP
FFC0
79E0
79E0
78E0
79E0
79C0
7F80
79C0
79E0
79E0
79E0
79E0
FCF8
0000
0700
0700
0700
0600
0800
ENDCHAR
STARTCHAR uni0157
ENCODING 343
SWIDTH 483 0
DWIDTH 10 0
BBX 10 16 0 -6
BITMAP
1B80
FBC0
7DC0
7C00
7800
7800
7800
7800
7800
FE00
0000
3800
3800
3800
3000
4000
ENDCHAR
STARTCHAR Rcaron
ENCODING 344
SWIDTH 696 0
DWIDTH 14 0
BBX 13 18 1 0
BITMAP
2080
1980
1F00
0E00
0000
FFC0
79E0
79E0
78E0
79E0
79C0
7F80
79C0
79E0
79E0
79E0
79E0
FCF8
ENDCHAR
STARTCHAR rcaron
ENCODING 345
SWIDTH 483 0
DWIDTH 10 0
BBX 10 16 0 0
BITMAP
2100
3180
1F00
0E00
0C00
0000
1B80
FBC0
7DC0
7C00
7800
7800
7800
7800
7800
FE00
ENDCHAR
STARTCHAR Sacute
ENCODING 346
SWIDTH 553 0
DWIDTH 11 0
BBX 10 18 1 0
BITMAP
0100
0380
0F00
0C00
0000
7F80
F380
E180
F000
F800
FE00
7F00
3F80
0FC0
C3C0
C380
C380
FF00
ENDCHAR
STARTCHAR sacute
ENCODING 347
SWIDTH 463 0
DWIDTH 9 0
BBX 9 16 0 0
BITMAP
0100
0380
0700
0E00
0C00
0000
3F00
7300
7300
7C00
7F00
7F80
1F80
4380
E300
7F00
ENDCHAR
STARTCHAR Scircumflex
ENCODING 348
SWIDTH 553 0
DWIDTH 11 0
BBX 10 18 1 0
BITMAP
0C00
1E00
3F00
6380
4080
7F80
F380
E180
F000
F800
FE00
7F00
3F80
0FC0
C3C0
C380
C380
FF00
ENDCHAR
STARTCHAR scircumflex
ENCODING 349
SWIDTH 463 0
DWIDTH 9 0
BBX 9 15 0 0
BITMAP
0C00
1E00
3700
6180
0000
3F00
7300
7300
7C00
7F00
7F80
1F80
4380
E300
7F00
ENDCHAR
STARTCHAR uni015E
ENCODING 350
SWIDTH 553 0
DWIDTH 11 0
BBX 10 18 1 -5
BITMAP
7F80
F380
E180
F000
F800
FE00
7F00
3F80
0FC0
C3C0
C380
C380
FF00
0800
0E00
0600
1E00
0800
ENDCHAR
STARTCHAR uni015F
ENCODING 351
SWIDTH 463 0
DWIDTH 9 0
BBX 9 15 0 -5
BITMAP
3F00
7300
7300
7C00
7F00
7F80
1F80
4380
E300
7F00
0800
0E00
0600
1E00
0800
ENDCHAR
STARTCHAR Scaron
ENCODING 352
SWIDTH 553 0
DWIDTH 11 0
BBX 10 18 1 0
BITMAP
6180
3300
1E00
0E00
0000
7F80
F380
E180
F000
F800
FE00
7F00
3F80
0FC0
C3C0
C380
C380
FF00
ENDCHAR
STARTCHAR scaron
ENCODING 353
SWIDTH 463 0
DWIDTH 9 0
BBX 9 16 0 0
BITMAP
2100
7300
3E00
1E00
0C00
0000
3F00
7300
7300
7C00
7F00
7F80
1F80
4380
E300
7F00
ENDCHAR
STARTCHAR uni0162
ENCODING 354
SWIDTH 646 0
DWIDTH 13 0
BBX 13 18 0 -5
BITMAP
FFF8
EF38
CF38
CF18
0F00
0F00
0F00
0F00
0F00
0F00
0F00
0F00
1FC0
0200
0300
0180
0780
0E00
ENDCHAR
STARTCHAR uni0163
ENCODING 355
SWIDTH 372 0
DWIDTH 7 0
BBX 8 18 0 -5
BITMAP
18
38
38
FE
FE
78
78
78
78
78
78
7F
3E
18
1C
0E
3C
18
ENDCHAR
STARTCHAR Tcaron
ENCODING 356
SWIDTH 646 0
DWIDTH 13 0
BBX 13 18 0 0
BITMAP
1040
1DC0
0F80
0700
0000
FFF8
EF38
CF38
CF18
0F00
0F00
0F00
0F00
0F00
0F00
0F00
0F00
1FC0
ENDCHAR
STARTCHAR tcaron
ENCODING 357
SWIDTH 372 0
DWIDTH 7 0
BBX 9 15 0 0
BITMAP
0300
0380
1B00
3B00
3A00
FE00
FE00
7800
7800
7800
7800
7800
7800
7F00
3E00
ENDCHAR
STARTCHAR Utilde
ENCODING 360
SWIDTH 732 0
DWIDTH 15 0
BBX 14 17 0 0
BITMAP
0390
07F0
04E0
0000
FE7C
3C18
3C18
3C18
3C18
3C18
3C18
3C18
3C18
3C10
3E30
1FF0
0FE0
ENDCHAR
STARTCHAR utilde
ENCODING 361
SWIDTH 617 0
DWIDTH 12 0
BBX 12 15 0 0
BITMAP
0C40
1FC0
1F80
1100
0000
38E0
FBE0
79E0
79E0
79E0
79E0
79E0
79E0
3FE0
3FF0
ENDCHAR
STARTCHAR Umacron
ENCODING 362
SWIDTH 732 0
DWIDTH 15 0
BBX 14 16 0 0
BITMAP
07F0
07F0
0000
FE7C
3C18
3C18
3C18
3C18
3C18
3C18
3C18
3C18
3C10
3E30
1FF0
0FE0
ENDCHAR
STARTCHAR umacron
ENCODING 363
SWIDTH 617 0
DWIDTH 12 0
BBX 12 14 0 0
BITMAP
1FC0
1FC0
0000
0000
38E0
FBE0
79E0
79E0
79E0
79E0
79E0
79E0
3FE0
3FF0
ENDCHAR
STARTCHAR Ubreve
ENCODING 364
SWIDTH 732 0
DWIDTH 15 0
BBX 14 17 0 0
BITMAP
0430
07E0
03C0
0000
FE7C
3C18
3C18
3C18
3C18
3C18
3C18
3C18
3C18
3C10
3E30
1FF0
0FE0
ENDCHAR
STARTCHAR ubreve
ENCODING 365
SWIDTH 617 0
DWIDTH 12 0
BBX 12 15 0 0
BITMAP
1080
18C0
0F80
0700
0000
38E0
FBE0
79E0
79E0
79E0
79E0
79E0
79E0
3FE0
3FF0
ENDCHAR
STARTCHAR Uring
ENCODING 366
SWIDTH 732 0
DWIDTH 15 0
BBX 14 18 0 0
BITMAP
01C0
0340
0260
01C0
0000
FE7C
3C18
3C18
3C18
3C18
3C18
3C18
3C18
3C18
3C10
3E30
1FF0
0FE0
ENDCHAR
STARTCHAR uring
ENCODING 367
SWIDTH 617 0
DWIDTH 12 0
BBX 12 16 0 0
BITMAP
0700
0D80
0880
0D80
0700
0000
38E0
FBE0
79E0
79E0
79E0
79E0
79E0
79E0
3FE0
3FF0
ENDCHAR
STARTCHAR Uhungarumlaut
ENCODING 368
SWIDTH 732 0
DWIDTH 15 0
BBX 14 18 0 0
BITMAP
0198
01B0
0330
0260
0000
FE7C
3C18
3C18
3C18
3C18
3C18
3C18
3C18
3C18
3C10
3E30
1FF0
0FE0
ENDCHAR
STARTCHAR uhungarumlaut
ENCODING 369
SWIDTH 617 0
DWIDTH 12 0
BBX 12 16 0 0
BITMAP
0260
07E0
06C0
0D80
0900
0000
38E0
FBE0
79E0
79E0
79E0
79E0
79E0
79E0
3FE0
3FF0
ENDCHAR
STARTCHAR Uogonek
ENCODING 370
SWIDTH 732 0
DWIDTH 15 0
BBX 14 18 0 -5
BITMAP
FE7C
3C18
3C18
3C18
3C18
3C18
3C18
3C18
3C18
3C10
3E30
1FE0
0FE0
0080
0180
01C0
01F0
00C0
ENDCHAR
STARTCHAR uogonek
ENCODING 371
SWIDTH 617 0
DWIDTH 12 0
BBX 12 15 0 -5
BITMAP
38E0
FBE0
79E0
79E0
79E0
79E0
79E0
79E0
3FE0
3FF0
00C0
01C0
01C0
01F0
0040
ENDCHAR
STARTCHAR Wcircumflex
ENCODING 372
SWIDTH 989 0
DWIDTH 20 0
BBX 20 18 0 0
BITMAP
003000
007800
00FC00
018E00
010200
FEFCF0
787840
3C7840
3C78C0
3CFC80
3CBC80
1EBD80
1E9D00
1F1F00
0F1F00
0F0E00
0F0E00
060E00
ENDCHAR
STARTCHAR wcircumflex
ENCODING 373
SWIDTH 800 0
DWIDTH 16 0
BBX 16 15 0 0
BITMAP
00C0
01E0
0370
0610
0000
FBEF
71C6
79E4
79E4
3AEC
3EF8
3E78
1C78
1C70
0C30
ENDCHAR
STARTCHAR Ycircumflex
ENCODING 374
SWIDTH 621 0
DWIDTH 12 0
BBX 12 18 0 0
BITMAP
0300
0380
07C0
1C60
0820
FEF0
7C20
3C60
3E40
1EC0
1E80
0F80
0F00
0F00
0F00
0F00
0F00
1FC0
ENDCHAR
STARTCHAR ycircumflex
ENCODING 375
SWIDTH 543 0
DWIDTH 11 0
BBX 11 20 0 -5
BITMAP
0700
0F80
0D80
18C0
0000
FDE0
78C0
7880
3D80
3D00
1D00
1F00
1E00
0E00
0C00
0400
0400
F800
F800
6000
ENDCHAR
STARTCHAR Ydieresis
ENCODING 376
SWIDTH 621 0
DWIDTH 12 0
BBX 12 17 0 0
BITMAP
0C60
1EF0
0C60
0000
FEF0
7C20
3C60
3E40
1EC0
1E80
0F80
0F00
0F00
0F00
0F00
0F00
1FC0
ENDCHAR
STARTCHAR Zacute
ENCODING 377
SWIDTH 568 0
DWIDTH 11 0
BBX 11 18 0 0
BITMAP
00C0
01C0
03C0
0700
0000
7FE0
63E0
63C0
4780
0780
0F00
1F00
1E00
3E00
3C60
7C60
7860
FFE0
ENDCHAR
STARTCHAR zacute
ENCODING 378
SWIDTH 468 0
DWIDTH 9 0
BBX 9 16 0 0
BITMAP
0100
0380
0700
0600
0C00
0000
7F80
E780
CF00
0F00
1E00
3E00
3C00
7980
7980
FF80
ENDCHAR
STARTCHAR Zdotaccent
ENCODING 379
SWIDTH 568 0
DWIDTH 11 0
BBX 11 17 0 0
BITMAP
0700
0700
0700
0000
7FE0
63E0
63C0
4780
0780
0F00
1F00
1E00
3E00
3C60
7C60
7860
FFE0
ENDCHAR
STARTCHAR zdotaccent
ENCODING 380
SWIDTH 468 0
DWIDTH 9 0
BBX 9 15 0 0
BITMAP
0C00
0E00
1E00
0C00
0000
7F80
E780
CF00
0F00
1E00
3E00
3C00
7980
7980
FF80
ENDCHAR
STARTCHAR Zcaron
ENCODING 381
SWIDTH 568 0
DWIDTH 11 0
BBX 11 18 0 0
BITMAP
1040
1DC0
0F80
0700
0000
7FE0
63E0
63C0
4780
0780
0F00
1F00
1E00
3E00
3C60
7C60
7860
FFE0
ENDCHAR
STARTCHAR zcaron
ENCODING 382
SWIDTH 468 0
DWIDTH 9 0
BBX 9 16 0 0
BITMAP
2080
3180
1F00
0E00
0E00
0000
7F80
E780
CF00
0F00
1E00
3E00
3C00
7980
7980
FF80
ENDCHAR
STARTCHAR longs
ENCODING 383
SWIDTH 365 0
DWIDTH 7 0
BBX 8 15 1 0
BITMAP
06
1F
3F
72
70
F0
F0
F0
F0
F0
F0
F0
F0
F0
FC
ENDCHAR
STARTCHAR uni018F
ENCODING 399
SWIDTH 666 0
DWIDTH 13 0
BBX 12 13 1 0
BITMAP
3F80
63C0
01E0
01E0
00F0
00F0
FFF0
F0F0
F0F0
F1E0
F1E0
71C0
3F80
ENDCHAR
STARTCHAR uni0192
ENCODING 402
SWIDTH 560 0
DWIDTH 11 0
BBX 11 15 0 -2
BITMAP
01C0
07E0
0760
0F00
0E00
3FC0
0E00
0E00
0E00
0E00
0E00
0E00
CE00
FC00
7800
ENDCHAR
STARTCHAR Ohorn
ENCODING 416
SWIDTH 700 0
DWIDTH 14 0
BBX 12 16 1 0
BITMAP
0030
0030
0030
1F90
79E0
70E0
F0F0
F0F0
F0F0
F0F0
F0F0
F0F0
F0F0
70E0
79E0
1F80
ENDCHAR
STARTCHAR ohorn
ENCODING 417
SWIDTH 572 0
DWIDTH 11 0
BBX 11 13 0 0
BITMAP
0060
0060
0060
1F20
3BC0
79C0
71E0
F1E0
F1E0
71E0
79E0
39C0
1F80
ENDCHAR
STARTCHAR Uhorn
ENCODING 431
SWIDTH 732 0
DWIDTH 15 0
BBX 15 16 0 0
BITMAP
0006
0006
0002
FE7C
3C18
3C18
3C18
3C18
3C18
3C18
3C18
3C18
3C10
3E30
1FF0
0FE0
ENDCHAR
STARTCHAR uhorn
ENCODING 432
SWIDTH 617 0
DWIDTH 12 0
BBX 14 13 0 0
BITMAP
000C
001C
000C
38EC
FBF8
79E0
79E0
79E0
79E0
79E0
79E0
3FE0
3FF0
ENDCHAR
STARTCHAR uni01CD
ENCODING 461
SWIDTH 680 0
DWIDTH 14 0
BBX 13 18 0 0
BITMAP
1860
0CC0
0780
0300
0000
0300
0780
0780
0780
0BC0
0BC0
09C0
11E0
1FE0
10E0
20F0
20F0
F1F8
ENDCHAR
STARTCHAR uni01CE
ENCODING 462
SWIDTH 540 0
DWIDTH 11 0
BBX 11 16 0 0
BITMAP
2100
3180
1F00
0E00
0E00
0000
1F00
7380
7380
6380
0FC0
3BC0
73C0
F3C0
7FE0
7BC0
ENDCHAR
STARTCHAR uni01CF
ENCODING 463
SWIDTH 395 0
DWIDTH 8 0
BBX 8 18 0 0
BITMAP
C3
66
3C
18
00
7E
3C
3C
3C
3C
3C
3C
3C
3C
3C
3C
3C
7E
ENDCHAR
STARTCHAR uni01D0
ENCODING 464
SWIDTH 324 0
DWIDTH 6 0
BBX 7 16 0 0
BITMAP
84
C6
7C
38
38
00
18
F8
78
78
78
78
78
78
78
7C
ENDCHAR
STARTCHAR uni01D1
ENCODING 465
SWIDTH 700 0
DWIDTH 14 0
BBX 12 18 1 0
BITMAP
30C0
1980
0F00
0600
0000
1F80
79E0
70E0
F0F0
F0F0
F0F0
F0F0
F0F0
F0F0
F0F0
70E0
79E0
1F80
ENDCHAR
STARTCHAR uni01D2
ENCODING 466
SWIDTH 572 0
DWIDTH 11 0
BBX 11 16 0 0
BITMAP
1080
3980
1F00
0E00
0600
0000
1F00
3BC0
79C0
71E0
F1E0
F1E0
71E0
79E0
39C0
1F80
ENDCHAR
STARTCHAR uni01D3
ENCODING 467
SWIDTH 732 0
DWIDTH 15 0
BBX 14 18 0 0
BITMAP
0410
0770
03E0
01C0
0000
FE7C
3C18
3C18
3C18
3C18
3C18
3C18
3C18
3C18
3C10
3E30
1FF0
0FE0
ENDCHAR
STARTCHAR uni01D4
ENCODING 468
SWIDTH 617 0
DWIDTH 12 0
BBX 12 16 0 0
BITMAP
1080
19C0
0F80
0F00
0600
0000
38E0
FBE0
79E0
79E0
79E0
79E0
79E0
79E0
3FE0
3FF0
ENDCHAR
STARTCHAR uni01D5
ENCODING 469
SWIDTH 732 0
DWIDTH 15 0
BBX 14 19 0 0
BITMAP
07F0
07F0
0E30
0E70
0E30
0000
FE7C
3C18
3C18
3C18
3C18
3C18
3C18
3C18
3C18
3C10
3E30
1FF0
0FE0
ENDCHAR
STARTCHAR uni01D6
ENCODING 470
SWIDTH 617 0
DWIDTH 12 0
BBX 12 17 0 0
BITMAP
1FC0
1FC0
1080
39C0
3DE0
18C0
0000
38E0
FBE0
79E0
79E0
79E0
79E0
79E0
79E0
3FE0
3FF0
ENDCHAR
STARTCHAR uni01D7
ENCODING 471
SWIDTH 732 0
DWIDTH 15 0
BBX 14 20 0 0
BITMAP
0060
00E0
0180
0E30
0E70
0E30
0000
FE7C
3C18
3C18
3C18
3C18
3C18
3C18
3C18
3C18
3C10
3E30
1FF0
0FE0
ENDCHAR
STARTCHAR uni01D8
ENCODING 472
SWIDTH 617 0
DWIDTH 12 0
BBX 12 18 0 0
BITMAP
0180
0380
0300
0200
18C0
3DC0
19C0
0000
38E0
FBE0
79E0
79E0
79E0
79E0
79E0
79E0
3FE0
3FF0
ENDCHAR
STARTCHAR uni01D9
ENCODING 473
SWIDTH 732 0
DWIDTH 15 0
BBX 14 21 0 0
BITMAP
0410
0660
03E0
01C0
0E30
0E70
0E30
0000
FE7C
3C18
3C18
3C18
3C18
3C18
3C18
3C18
3C18
3C10
3E30
1FF0
0FE0
ENDCHAR
STARTCHAR uni01DA
ENCODING 474
SWIDTH 617 0
DWIDTH 12 0
BBX 12 18 0 0
BITMAP
1040
1DC0
0F80
1780
39C0
3DE0
18C0
0000
38E0
FBE0
79E0
79E0
79E0
79E0
79E0
79E0
3FE0
3FF0
ENDCHAR
STARTCHAR uni01DB
ENCODING 475
SWIDTH 732 0
DWIDTH 15 0
BBX 14 20 0 0
BITMAP
0700
0780
0180
0E30
0E70
0E30
0000
FE7C
3C18
3C18
3C18
3C18
3C18
3C18
3C18
3C18
3C10
3E30
1FF0
0FE0
ENDCHAR
STARTCHAR uni01DC
ENCODING 476
SWIDTH 617 0
DWIDTH 12 0
BBX 12 18 0 0
BITMAP
0C00
0C00
0600
0200
18C0
3DC0
19C0
0000
38E0
FBE0
79E0
79E0
79E0
79E0
79E0
79E0
3FE0
3FF0
ENDCHAR
STARTCHAR Gcaron
ENCODING 486
SWIDTH 672 0
DWIDTH 13 0
BBX 12 18 1 0
BITMAP
1040
0DC0
0F80
0700
0000
1FE0
7860
7860
F060
F000
F000
F3F0
F3F0
F1E0
F1E0
79E0
79E0
1FE0
ENDCHAR
STARTCHAR gcaron
ENCODING 487
SWIDTH 553 0
DWIDTH 11 0
BBX 11 20 0 -4
BITMAP
2100
3380
1F00
1E00
0C00
0000
3F60
73E0
7380
7380
7380
3F00
6000
7000
7FC0
7FE0
7FE0
C0E0
E1C0
7F80
ENDCHAR
STARTCHAR uni01F8
ENCODING 504
SWIDTH 725 0
DWIDTH 15 0
BBX 14 18 0 0
BITMAP
0C00
0E00
0F00
0380
0000
FC7C
3E10
3E10
3F10
3F90
37D0
33D0
33F0
31F0
30F0
30F0
3070
FC30
ENDCHAR
STARTCHAR uni01F9
ENCODING 505
SWIDTH 620 0
DWIDTH 12 0
BBX 12 16 0 0
BITMAP
1800
1C00
1C00
0E00
0200
0000
1BC0
FFE0
79E0
79E0
79E0
79E0
79E0
79E0
79E0
FDF0
ENDCHAR
STARTCHAR uni0218
ENCODING 536
SWIDTH 553 0
DWIDTH 11 0
BBX 10 19 1 -6
BITMAP
7F80
F380
E180
F000
F800
FE00
7F00
3F80
0FC0
C3C0
C380
C380
FF00
0000
1C00
1C00
1C00
1800
1000
ENDCHAR
STARTCHAR uni0219
ENCODING 537
SWIDTH 463 0
DWIDTH 9 0
BBX 9 16 0 -6
BITMAP
3F00
7300
7300
7C00
7F00
7F80
1F80
4380
E300
7F00
0000
0C00
1C00
0C00
1800
1000
ENDCHAR
STARTCHAR uni021A
ENCODING 538
SWIDTH 646 0
DWIDTH 13 0
BBX 13 19 0 -6
BITMAP
FFF8
EF38
CF38
CF18
0F00
0F00
0F00
0F00
0F00
0F00
0F00
0F00
1FC0
0000
0300
0700
0300
0600
0400
ENDCHAR
STARTCHAR uni021B
ENCODING 539
SWIDTH 372 0
DWIDTH 7 0
BBX 8 19 0 -6
BITMAP
18
38
38
FE
FE
78
78
78
78
78
78
7F
3E
00
1C
1C
1C
18
20
ENDCHAR
STARTCHAR uni0237
ENCODING 567
SWIDTH 320 0
DWIDTH 6 0
BBX 8 15 -3 -5
BITMAP
03
1F
0F
0F
0F
0F
0F
0F
0F
0F
0F
27
F6
7E
30
ENDCHAR
STARTCHAR uni0251
ENCODING 593
SWIDTH 594 0
DWIDTH 12 0
BBX 11 10 1 0
BITMAP
3CC0
7FC0
F3C0
F3C0
F3C0
E3C0
F3C0
F3C0
FFE0
7DE0
ENDCHAR
STARTCHAR uni0259
ENCODING 601
SWIDTH 526 0
DWIDTH 11 0
BBX 10 10 0 0
BITMAP
1F00
7F80
47C0
03C0
03C0
FFC0
F3C0
73C0
7380
3F00
ENDCHAR
STARTCHAR uni0261
ENCODING 609
SWIDTH 592 0
DWIDTH 12 0
BBX 10 15 1 -5
BITMAP
3CC0
7FC0
F3C0
F3C0
E3C0
E3C0
F3C0
F3C0
FFC0
3BC0
03C0
E3C0
E380
6F00
1C00
ENDCHAR
STARTCHAR h.sups
ENCODING 688
SWIDTH 412 0
DWIDTH 8 0
BBX 8 9 0 8
BITMAP
E0
60
64
7E
66
66
66
66
FF
ENDCHAR
STARTCHAR j.sups
ENCODING 690
SWIDTH 200 0
DWIDTH 4 0
BBX 5 13 -2 5
BITMAP
18
18
00
08
38
18
18
18
18
18
18
D8
70
ENDCHAR
STARTCHAR r.sups
ENCODING 691
SWIDTH 315 0
DWIDTH 6 0
BBX 6 7 0 8
BITMAP
24
EC
70
60
60
60
F0
ENDCHAR
STARTCHAR w.sups
ENCODING 695
SWIDTH 533 0
DWIDTH 11 0
BBX 11 6 0 8
BITMAP
FEE0
6680
6E80
3B80
3300
3100
ENDCHAR
STARTCHAR y.sups
ENCODING 696
SWIDTH 353 0
DWIDTH 7 0
BBX 7 9 0 5
BITMAP
F6
64
74
38
38
10
10
E0
E0
ENDCHAR
STARTCHAR quoteleft.dup5
ENCODING 699
SWIDTH 218 0
DWIDTH 4 0
BBX 4 7 0 8
BITMAP
10
30
40
E0
F0
70
20
ENDCHAR
STARTCHAR quoteright.dup6
ENCODING 700
SWIDTH 218 0
DWIDTH 4 0
BBX 4 7 0 8
BITMAP
60
F0
F0
70
30
60
80
ENDCHAR
STARTCHAR uni02BE
ENCODING 702
SWIDTH 180 0
DWIDTH 4 0
BBX 3 5 0 11
BITMAP
C0
60
20
60
C0
ENDCHAR
STARTCHAR uni02BF
ENCODING 703
SWIDTH 180 0
DWIDTH 4 0
BBX 3 5 0 11
BITMAP
20
60
C0
40
60
ENDCHAR
STARTCHAR circumflex
ENCODING 710
SWIDTH 376 0
DWIDTH 8 0
BBX 7 4 0 11
BITMAP
38
3C
6E
C2
ENDCHAR
STARTCHAR caron
ENCODING 711
SWIDTH 400 0
DWIDTH 8 0
BBX 6 5 1 11
BITMAP
84
CC
78
78
30
ENDCHAR
STARTCHAR uni02C8
ENCODING 712
SWIDTH 160 0
DWIDTH 3 0
BBX 3 4 0 11
BITMAP
E0
E0
E0
E0
ENDCHAR
STARTCHAR uni02C9
ENCODING 713
SWIDTH 342 0
DWIDTH 7 0
BBX 6 2 1 12
BITMAP
FC
FC
ENDCHAR
STARTCHAR uni02CA
ENCODING 714
SWIDTH 224 0
DWIDTH 4 0
BBX 4 5 0 11
BITMAP
10
30
70
E0
C0
ENDCHAR
STARTCHAR uni02CB
ENCODING 715
SWIDTH 224 0
DWIDTH 4 0
BBX 4 5 0 11
BITMAP
40
E0
E0
30
10
ENDCHAR
STARTCHAR uni02CC
ENCODING 716
SWIDTH 160 0
DWIDTH 3 0
BBX 3 4 0 -5
BITMAP
E0
E0
E0
E0
ENDCHAR
STARTCHAR breve
ENCODING 728
SWIDTH 400 0
DWIDTH 8 0
BBX 6 4 1 11
BITMAP
84
CC
FC
30
ENDCHAR
STARTCHAR dotaccent
ENCODING 729
SWIDTH 400 0
DWIDTH 8 0
BBX 4 4 2 11
BITMAP
60
F0
F0
60
ENDCHAR
STARTCHAR ring
ENCODING 730
SWIDTH 400 0
DWIDTH 8 0
BBX 6 5 1 11
BITMAP
30
48
CC
48
78
ENDCHAR
STARTCHAR ogonek
ENCODING 731
SWIDTH 400 0
DWIDTH 8 0
BBX 6 5 1 -5
BITMAP
30
60
E0
7C
20
ENDCHAR
STARTCHAR tilde
ENCODING 732
SWIDTH 400 0
DWIDTH 8 0
BBX 8 4 0 11
BITMAP
32
7F
FE
44
ENDCHAR
STARTCHAR hungarumlaut
ENCODING 733
SWIDTH 400 0
DWIDTH 8 0
BBX 7 5 1 11
BITMAP
36
7E
6C
48
D8
ENDCHAR
STARTCHAR l.sups
ENCODING 737
SWIDTH 207 0
DWIDTH 4 0
BBX 4 9 0 8
BITMAP
E0
60
60
60
60
60
60
60
F0
ENDCHAR
STARTCHAR s.sups
ENCODING 738
SWIDTH 301 0
DWIDTH 6 0
BBX 6 7 0 8
BITMAP
30
48
E0
78
3C
CC
F8
ENDCHAR
STARTCHAR x.sups
ENCODING 739
SWIDTH 375 0
DWIDTH 8 0
BBX 7 6 0 8
BITMAP
F6
38
38
38
2C
FE
ENDCHAR
STARTCHAR uni0300
ENCODING 768
SWIDTH 0 0
DWIDTH 0 0
BBX 4 5 -3 11
BITMAP
40
E0
E0
70
10
ENDCHAR
STARTCHAR uni0301
ENCODING 769
SWIDTH 0 0
DWIDTH 0 0
BBX 5 5 -2 11
BITMAP
10
38
78
60
C0
ENDCHAR
STARTCHAR uni0302
ENCODING 770
SWIDTH 0 0
DWIDTH 0 0
BBX 8 4 -4 11
BITMAP
18
3C
66
C3
ENDCHAR
STARTCHAR uni0303
ENCODING 771
SWIDTH 0 0
DWIDTH 0 0
BBX 8 4 -4 11
BITMAP
32
7F
FE
44
ENDCHAR
STARTCHAR uni0304
ENCODING 772
SWIDTH 0 0
DWIDTH 0 0
BBX 6 2 -3 12
BITMAP
FC
FC
ENDCHAR
STARTCHAR uni0306
ENCODING 774
SWIDTH 0 0
DWIDTH 0 0
BBX 6 4 -3 11
BITMAP
84
CC
FC
30
ENDCHAR
STARTCHAR uni0307
ENCODING 775
SWIDTH 0 0
DWIDTH 0 0
BBX 4 4 -2 11
BITMAP
60
F0
F0
60
ENDCHAR
STARTCHAR uni0308
ENCODING 776
SWIDTH 0 0
DWIDTH 0 0
BBX 8 4 -4 11
BITMAP
42
E7
E7
42
ENDCHAR
STARTCHAR uni0309
ENCODING 777
SWIDTH 0 0
DWIDTH 0 0
BBX 4 5 -2 11
BITMAP
60
70
B0
30
60
ENDCHAR
STARTCHAR uni030A
ENCODING 778
SWIDTH 0 0
DWIDTH 0 0
BBX 6 5 -3 11
BITMAP
30
48
CC
48
78
ENDCHAR
STARTCHAR uni030B
ENCODING 779
SWIDTH 0 0
DWIDTH 0 0
BBX 6 5 -2 11
BITMAP
6C
6C
FC
D8
90
ENDCHAR
STARTCHAR uni030C
ENCODING 780
SWIDTH 0 0
DWIDTH 0 0
BBX 6 5 -3 11
BITMAP
84
CC
78
78
30
ENDCHAR
STARTCHAR uni031B
ENCODING 795
SWIDTH 0 0
DWIDTH 0 0
BBX 3 5 0 8
BITMAP
60
60
60
20
C0
ENDCHAR
STARTCHAR uni0323
ENCODING 803
SWIDTH 0 0
DWIDTH 0 0
BBX 4 4 -2 -5
BITMAP
60
F0
F0
60
ENDCHAR
STARTCHAR uni0324
ENCODING 804
SWIDTH 0 0
DWIDTH 0 0
BBX 8 4 -4 -5
BITMAP
42
E7
E7
42
ENDCHAR
STARTCHAR uni0326
ENCODING 806
SWIDTH 0 0
DWIDTH 0 0
BBX 4 5 -2 -6
BITMAP
60
F0
60
C0
80
ENDCHAR
STARTCHAR uni0327
ENCODING 807
SWIDTH 0 0
DWIDTH 0 0
BBX 5 5 -2 -5
BITMAP
60
70
38
F0
60
ENDCHAR
STARTCHAR uni0328
ENCODING 808
SWIDTH 0 0
DWIDTH 0 0
BBX 5 5 -3 -5
BITMAP
70
E0
E0
F8
20
ENDCHAR
STARTCHAR uni0329
ENCODING 809
SWIDTH 0 0
DWIDTH 0 0
BBX 2 4 -1 -5
BITMAP
C0
C0
C0
C0
ENDCHAR
STARTCHAR uni032E
ENCODING 814
SWIDTH 0 0
DWIDTH 0 0
BBX 6 4 -3 -5
BITMAP
84
CC
FC
30
ENDCHAR
STARTCHAR uni0331
ENCODING 817
SWIDTH 0 0
DWIDTH 0 0
BBX 6 2 -3 -4
BITMAP
FC
FC
ENDCHAR
STARTCHAR uni0374
ENCODING 884
SWIDTH 259 0
DWIDTH 5 0
BBX 3 8 1 7
BITMAP
40
E0
E0
E0
E0
C0
C0
40
ENDCHAR
STARTCHAR uni0375
ENCODING 885
SWIDTH 259 0
DWIDTH 5 0
BBX 3 7 1 -3
BITMAP
20
60
60
E0
E0
E0
40
ENDCHAR
STARTCHAR uni037E
ENCODING 894
SWIDTH 320 0
DWIDTH 6 0
BBX 4 15 1 -4
BITMAP
20
F0
F0
70
00
00
00
20
F0
F0
70
30
60
C0
80
ENDCHAR
STARTCHAR tonos
ENCODING 900
SWIDTH 400 0
DWIDTH 8 0
BBX 3 5 3 11
BITMAP
60
60
E0
C0
80
ENDCHAR
STARTCHAR dieresistonos
ENCODING 901
SWIDTH 400 0
DWIDTH 8 0
BBX 8 5 0 11
BITMAP
18
1C
DB
DB
10
ENDCHAR
STARTCHAR Alphatonos
ENCODING 902
SWIDTH 680 0
DWIDTH 14 0
BBX 13 13 0 0
BITMAP
7300
7780
6780
C780
4BC0
0BC0
09C0
11E0
1FE0
10E0
20F0
20F0
F1F8
ENDCHAR
STARTCHAR anoteleia
ENCODING 903
SWIDTH 300 0
DWIDTH 6 0
BBX 4 4 1 6
BITMAP
60
F0
F0
F0
ENDCHAR
STARTCHAR Epsilontonos
ENCODING 904
SWIDTH 754 0
DWIDTH 15 0
BBX 16 13 -1 0
BITMAP
77FE
73C6
63C6
43C0
C3CC
03CC
03FC
03CC
03C0
03C0
03C3
03C7
07FF
ENDCHAR
STARTCHAR Etatonos
ENCODING 905
SWIDTH 919 0
DWIDTH 18 0
BBX 19 13 -1 0
BITMAP
77EFE0
73C780
63C780
43C780
C3C780
03C780
03FF80
03C780
03C780
03C780
03C780
03C780
07EFE0
ENDCHAR
STARTCHAR Iotatonos
ENCODING 906
SWIDTH 558 0
DWIDTH 11 0
BBX 12 13 -1 0
BITMAP
77F0
73C0
63C0
43C0
C3C0
03C0
03C0
03C0
03C0
03C0
03C0
03C0
07F0
ENDCHAR
STARTCHAR Omicrontonos
ENCODING 908
SWIDTH 782 0
DWIDTH 16 0
BBX 16 13 -1 0
BITMAP
73F8
771C
6F0E
4F0F
DE0F
1E0F
1E0F
1E0F
1E0F
0F0F
0F1E
071C
03F8
ENDCHAR
STARTCHAR Upsilontonos
ENCODING 910
SWIDTH 800 0
DWIDTH 16 0
BBX 17 13 -1 0
BITMAP
77E780
73C300
63E200
41E600
C1F400
00FC00
00F800
007800
007800
007800
007800
007800
01FC00
ENDCHAR
STARTCHAR Omegatonos
ENCODING 911
SWIDTH 826 0
DWIDTH 17 0
BBX 17 13 -1 0
BITMAP
73FC00
770E00
6F0F00
4F0700
CE0780
1E0780
0E0780
0F0F00
070E00
139C80
189980
1F9F80
1F9F80
ENDCHAR
STARTCHAR iotadieresistonos
ENCODING 912
SWIDTH 330 0
DWIDTH 7 0
BBX 9 16 -1 0
BITMAP
0C00
0C00
6F80
EB80
1800
0000
1C00
3C00
3C00
3C00
3C00
3C00
3C00
3C00
3F00
1E00
ENDCHAR
STARTCHAR Alpha
ENCODING 913
SWIDTH 680 0
DWIDTH 14 0
BBX 13 13 0 0
BITMAP
0300
0780
0780
0780
0BC0
0BC0
09C0
11E0
1FE0
10E0
20F0
20F0
F1F8
ENDCHAR
STARTCHAR Beta
ENCODING 914
SWIDTH 660 0
DWIDTH 13 0
BBX 12 13 1 0
BITMAP
FF80
79E0
79E0
79E0
79E0
7B80
7FC0
79E0
78F0
78F0
78F0
79E0
FF80
ENDCHAR
STARTCHAR Gamma
ENCODING 915
SWIDTH 580 0
DWIDTH 12 0
BBX 10 13 1 0
BITMAP
FFC0
78C0
78C0
78C0
7800
7800
7800
7800
7800
7800
7800
7800
FE00
ENDCHAR
STARTCHAR Delta.dup7
ENCODING 916
SWIDTH 626 0
DWIDTH 13 0
BBX 11 13 1 0
BITMAP
0E00
0E00
1F00
1F00
1780
2780
2780
63C0
43C0
43E0
81E0
FFE0
FFE0
ENDCHAR
STARTCHAR Epsilon
ENCODING 917
SWIDTH 591 0
DWIDTH 12 0
BBX 10 13 1 0
BITMAP
FFC0
78C0
78C0
7800
7900
7900
7F00
7900
7800
7800
78C0
78C0
FFC0
ENDCHAR
STARTCHAR Zeta
ENCODING 918
SWIDTH 568 0
DWIDTH 11 0
BBX 11 13 0 0
BITMAP
7FE0
63E0
63C0
4780
0780
0F00
1F00
1E00
3E00
3C60
7C60
7860
FFE0
ENDCHAR
STARTCHAR Eta
ENCODING 919
SWIDTH 756 0
DWIDTH 15 0
BBX 14 13 1 0
BITMAP
FDFC
78F0
78F0
78F0
78F0
78F0
7FF0
78F0
78F0
78F0
78F0
78F0
FDFC
ENDCHAR
STARTCHAR Theta
ENCODING 920
SWIDTH 720 0
DWIDTH 14 0
BBX 13 13 1 0
BITMAP
3FC0
78E0
F0F0
F070
E978
E978
EF78
E978
E978
F070
70F0
78E0
1FC0
ENDCHAR
STARTCHAR Iota
ENCODING 921
SWIDTH 395 0
DWIDTH 8 0
BBX 6 13 1 0
BITMAP
FC
78
78
78
78
78
78
78
78
78
78
78
FC
ENDCHAR
STARTCHAR Kappa
ENCODING 922
SWIDTH 708 0
DWIDTH 14 0
BBX 13 13 1 0
BITMAP
FCF0
7840
7880
7980
7B00
7B80
7F80
7BC0
7BC0
79E0
79E0
78F0
FDF8
ENDCHAR
STARTCHAR Lambda
ENCODING 923
SWIDTH 656 0
DWIDTH 13 0
BBX 13 13 0 0
BITMAP
0700
0700
0780
0F80
0BC0
0BC0
1BC0
11E0
11E0
31E0
21F0
20F0
F3F8
ENDCHAR
STARTCHAR Mu
ENCODING 924
SWIDTH 893 0
DWIDTH 18 0
BBX 17 13 0 0
BITMAP
FE0F80
3E1F00
3E1F00
3F1F00
3F3F00
3F2F00
37AF00
37EF00
37CF00
33CF00
33CF00
338F00
F99F80
ENDCHAR
STARTCHAR Nu
ENCODING 925
SWIDTH 725 0
DWIDTH 15 0
BBX 14 13 0 0
BITMAP
FC7C
3E10
3E10
3F10
3F90
37D0
33D0
33F0
31F0
30F0
30F0
3070
FC30
ENDCHAR
STARTCHAR Xi
ENCODING 926
SWIDTH 564 0
DWIDTH 11 0
BBX 11 13 0 0
BITMAP
7FE0
7FE0
4060
4060
1180
1F80
1F80
1180
0000
C060
C060
FFE0
7FE0
ENDCHAR
STARTCHAR Omicron
ENCODING 927
SWIDTH 700 0
DWIDTH 14 0
BBX 12 13 1 0
BITMAP
1F80
79E0
70E0
F0F0
F0F0
F0F0
F0F0
F0F0
F0F0
F0F0
70E0
79E0
1F80
ENDCHAR
STARTCHAR Pi
ENCODING 928
SWIDTH 752 0
DWIDTH 15 0
BBX 13 13 1 0
BITMAP
FFF8
78F0
78F0
78F0
78F0
78F0
78F0
78F0
78F0
78F0
78F0
78F0
FDF8
ENDCHAR
STARTCHAR Rho
ENCODING 929
SWIDTH 622 0
DWIDTH 12 0
BBX 11 13 1 0
BITMAP
FF80
7BC0
79E0
78E0
78E0
79E0
7BC0
7F80
7800
7800
7800
7800
FE00
ENDCHAR
STARTCHAR Sigma
ENCODING 931
SWIDTH 568 0
DWIDTH 11 0
BBX 10 13 1 0
BITMAP
FF80
E180
7080
78C0
3800
3C00
1C00
1800
30C0
60C0
C0C0
FFC0
FFC0
ENDCHAR
STARTCHAR Tau
ENCODING 932
SWIDTH 646 0
DWIDTH 13 0
BBX 13 13 0 0
BITMAP
FFF8
EF38
CF38
CF18
0F00
0F00
0F00
0F00
0F00
0F00
0F00
0F00
1FC0
ENDCHAR
STARTCHAR Upsilon
ENCODING 933
SWIDTH 621 0
DWIDTH 12 0
BBX 12 13 0 0
BITMAP
FEF0
7C20
3C60
3E40
1EC0
1E80
0F80
0F00
0F00
0F00
0F00
0F00
1FC0
ENDCHAR
STARTCHAR Phi
ENCODING 934
SWIDTH 824 0
DWIDTH 16 0
BBX 14 13 1 0
BITMAP
0FC0
0780
3FF0
7BB8
F39C
E39C
E39C
F39C
73BC
3FF8
0FC0
0780
0FC0
ENDCHAR
STARTCHAR Chi
ENCODING 935
SWIDTH 657 0
DWIDTH 13 0
BBX 13 13 0 0
BITMAP
FEF0
3C60
3C40
1E80
1F80
0F00
0F80
0F80
0BC0
1BC0
31E0
21F0
F3F8
ENDCHAR
STARTCHAR Psi
ENCODING 936
SWIDTH 852 0
DWIDTH 17 0
BBX 17 13 0 0
BITMAP
F3E780
71C700
79CF00
79CF00
39CE00
39CE00
39CE00
1DDC00
07F000
01C000
01C000
01C000
07F000
ENDCHAR
STARTCHAR Omega.dup8
ENCODING 937
SWIDTH 744 0
DWIDTH 15 0
BBX 15 13 0 0
BITMAP
1FE0
3C78
3838
783C
783C
783C
783C
7838
3878
DCF6
C6C6
FEFE
FCFC
ENDCHAR
STARTCHAR Iotadieresis
ENCODING 938
SWIDTH 395 0
DWIDTH 8 0
BBX 7 17 0 0
BITMAP
66
EE
66
00
7E
3C
3C
3C
3C
3C
3C
3C
3C
3C
3C
3C
7E
ENDCHAR
STARTCHAR Upsilondieresis
ENCODING 939
SWIDTH 621 0
DWIDTH 12 0
BBX 12 17 0 0
BITMAP
0C60
1EF0
0C60
0000
FEF0
7C20
3C60
3E40
1EC0
1E80
0F80
0F00
0F00
0F00
0F00
0F00
1FC0
ENDCHAR
STARTCHAR alphatonos
ENCODING 940
SWIDTH 599 0
DWIDTH 12 0
BBX 11 16 1 0
BITMAP
0600
0600
0E00
0C00
0800
0000
3BC0
7FC0
E3C0
E380
E380
E380
E380
E380
F7E0
79E0
ENDCHAR
STARTCHAR epsilontonos
ENCODING 941
SWIDTH 509 0
DWIDTH 10 0
BBX 9 16 1 0
BITMAP
0600
0600
0E00
0C00
0800
0000
7E00
F780
E300
F000
7C00
7C00
E000
E180
FF00
7E00
ENDCHAR
STARTCHAR etatonos
ENCODING 942
SWIDTH 597 0
DWIDTH 12 0
BBX 11 20 0 -4
BITMAP
0300
0300
0700
0600
0400
0000
73C0
FFC0
7DE0
38E0
38E0
38E0
78E0
78E0
79E0
79E0
01E0
01E0
01E0
01C0
ENDCHAR
STARTCHAR iotatonos
ENCODING 943
SWIDTH 330 0
DWIDTH 7 0
BBX 6 16 1 0
BITMAP
10
38
30
70
60
00
70
F0
F0
F0
F0
F0
F0
F0
FC
78
ENDCHAR
STARTCHAR upsilondieresistonos
ENCODING 944
SWIDTH 557 0
DWIDTH 11 0
BBX 10 16 0 0
BITMAP
0600
0600
36C0
36C0
0400
0000
71C0
F9C0
79C0
39C0
38C0
7840
7840
7840
3CC0
1F80
ENDCHAR
STARTCHAR alpha
ENCODING 945
SWIDTH 599 0
DWIDTH 12 0
BBX 11 10 1 0
BITMAP
3BC0
7FC0
E3C0
E380
E380
E380
E380
E380
F7E0
79E0
ENDCHAR
STARTCHAR beta
ENCODING 946
SWIDTH 601 0
DWIDTH 12 0
BBX 10 18 1 -4
BITMAP
3F80
7380
71C0
F1C0
F380
F700
FE00
F780
F1C0
F1C0
F1C0
F1C0
FFC0
FF80
F000
F000
F000
E000
ENDCHAR
STARTCHAR gamma
ENCODING 947
SWIDTH 557 0
DWIDTH 11 0
BBX 10 14 0 -4
BITMAP
70C0
F9C0
79C0
3DC0
3CC0
1C80
1D80
1F00
0F00
0E00
0E00
0E00
0E00
0C00
ENDCHAR
STARTCHAR delta
ENCODING 948
SWIDTH 552 0
DWIDTH 11 0
BBX 11 14 0 0
BITMAP
1F80
33C0
39C0
3C00
3F00
0F80
3FC0
7BC0
71E0
F1E0
F1C0
71C0
79C0
3F00
ENDCHAR
STARTCHAR epsilon
ENCODING 949
SWIDTH 509 0
DWIDTH 10 0
BBX 9 10 1 0
BITMAP
7E00
F780
E300
F000
7C00
7C00
E000
E180
FF00
7E00
ENDCHAR
STARTCHAR zeta
ENCODING 950
SWIDTH 437 0
DWIDTH 9 0
BBX 8 19 0 -4
BITMAP
70
7F
7F
07
0E
1C
38
30
70
60
E0
F0
F8
7E
3F
07
03
03
06
ENDCHAR
STARTCHAR eta
ENCODING 951
SWIDTH 597 0
DWIDTH 12 0
BBX 11 14 0 -4
BITMAP
73C0
FFC0
7DE0
38E0
38E0
38E0
78E0
78E0
79E0
79E0
01E0
01E0
01E0
01C0
ENDCHAR
STARTCHAR theta
ENCODING 952
SWIDTH 530 0
DWIDTH 11 0
BBX 9 14 1 0
BITMAP
3E00
6700
E700
E380
E380
E380
FF80
E380
E380
E380
E380
E700
7700
3E00
ENDCHAR
STARTCHAR iota
ENCODING 953
SWIDTH 330 0
DWIDTH 7 0
BBX 6 10 1 0
BITMAP
70
F0
F0
F0
F0
F0
F0
F0
FC
78
ENDCHAR
STARTCHAR kappa
ENCODING 954
SWIDTH 577 0
DWIDTH 12 0
BBX 11 10 0 0
BITMAP
70E0
F9E0
7BE0
3E00
3E00
3A00
3B00
7BE0
79E0
79C0
ENDCHAR
STARTCHAR lambda
ENCODING 955
SWIDTH 609 0
DWIDTH 12 0
BBX 12 14 0 0
BITMAP
7800
FC00
4400
0600
0600
0E00
0F00
1F00
1D00
3D80
3D80
78F0
78F0
F8F0
ENDCHAR
STARTCHAR mu
ENCODING 956
SWIDTH 596 0
DWIDTH 12 0
BBX 11 14 1 -4
BITMAP
73C0
F380
F380
F380
F380
F380
7380
7380
7FE0
FDC0
E000
E000
F000
C000
ENDCHAR
STARTCHAR nu
ENCODING 957
SWIDTH 558 0
DWIDTH 11 0
BBX 10 10 0 0
BITMAP
70C0
F9C0
7DC0
3DC0
3CC0
1C80
1D80
1F00
0F00
0E00
ENDCHAR
STARTCHAR xi
ENCODING 958
SWIDTH 451 0
DWIDTH 9 0
BBX 9 19 0 -4
BITMAP
6000
7F80
7F80
1800
3000
7000
7F00
3F00
1F00
7000
6000
F000
7800
7E00
3F00
0700
0300
0300
0600
ENDCHAR
STARTCHAR omicron
ENCODING 959
SWIDTH 560 0
DWIDTH 11 0
BBX 10 10 1 0
BITMAP
3E00
7780
E380
E3C0
E3C0
E3C0
E3C0
E380
7380
3E00
ENDCHAR
STARTCHAR pi
ENCODING 960
SWIDTH 623 0
DWIDTH 12 0
BBX 12 10 0 0
BITMAP
3FF0
FFF0
FFF0
09C0
19C0
19C0
19C0
79C0
79F0
71F0
ENDCHAR
STARTCHAR rho
ENCODING 961
SWIDTH 601 0
DWIDTH 12 0
BBX 10 14 1 -4
BITMAP
1F00
7380
73C0
E3C0
E3C0
E3C0
E3C0
E380
F380
FF00
F000
F000
F000
E000
ENDCHAR
STARTCHAR uni03C2
ENCODING 962
SWIDTH 469 0
DWIDTH 9 0
BBX 8 14 1 -4
BITMAP
3E
7F
E6
C0
C0
E0
E0
F8
7E
3E
0F
06
06
04
ENDCHAR
STARTCHAR sigma
ENCODING 963
SWIDTH 633 0
DWIDTH 13 0
BBX 11 10 1 0
BITMAP
1FE0
77E0
F720
E380
E380
E3C0
E380
E380
7380
3E00
ENDCHAR
STARTCHAR tau
ENCODING 964
SWIDTH 485 0
DWIDTH 10 0
BBX 9 10 0 0
BITMAP
3F80
FF80
FF80
1C00
1C00
1C00
1C00
1C00
1F00
1F00
ENDCHAR
STARTCHAR upsilon
ENCODING 965
SWIDTH 557 0
DWIDTH 11 0
BBX 10 10 0 0
BITMAP
71C0
F9C0
79C0
39C0
38C0
7840
7840
7840
3CC0
1F80
ENDCHAR
STARTCHAR phi
ENCODING 966
SWIDTH 774 0
DWIDTH 15 0
BBX 14 17 1 -4
BITMAP
0300
0300
0300
1FE0
7F78
F738
E73C
E73C
E73C
E73C
E738
F738
3FF0
0700
0700
0780
0780
ENDCHAR
STARTCHAR chi
ENCODING 967
SWIDTH 569 0
DWIDTH 11 0
BBX 12 14 0 -4
BITMAP
71E0
F9E0
19C0
0FC0
0780
0780
0700
0E00
1E00
1F00
3F00
39D0
79F0
F0E0
ENDCHAR
STARTCHAR psi
ENCODING 968
SWIDTH 799 0
DWIDTH 16 0
BBX 15 17 0 -4
BITMAP
01C0
01C0
01C0
71CE
F9CE
79CE
39CE
39CE
39C6
39C6
39C4
3DDC
1FF0
01C0
01C0
01C0
01C0
ENDCHAR
STARTCHAR omega
ENCODING 969
SWIDTH 797 0
DWIDTH 16 0
BBX 14 10 1 0
BITMAP
1860
7038
77B8
E31C
E31C
E31C
E31C
E71C
FFFC
7CF8
ENDCHAR
STARTCHAR iotadieresis
ENCODING 970
SWIDTH 330 0
DWIDTH 7 0
BBX 7 15 0 0
BITMAP
44
EE
EE
44
00
38
78
78
78
78
78
78
78
7E
3C
ENDCHAR
STARTCHAR upsilondieresis
ENCODING 971
SWIDTH 557 0
DWIDTH 11 0
BBX 10 15 0 0
BITMAP
1080
7BC0
7BC0
3180
0000
71C0
F9C0
79C0
39C0
38C0
7840
7840
7840
3CC0
1F80
ENDCHAR
STARTCHAR omicrontonos
ENCODING 972
SWIDTH 560 0
DWIDTH 11 0
BBX 10 16 1 0
BITMAP
0600
0600
0E00
0C00
0800
0000
3E00
7780
E380
E3C0
E3C0
E3C0
E3C0
E380
7380
3E00
ENDCHAR
STARTCHAR upsilontonos
ENCODING 973
SWIDTH 557 0
DWIDTH 11 0
BBX 10 16 0 0
BITMAP
0300
0300
0700
0600
0400
0000
71C0
F9C0
79C0
39C0
38C0
7840
7840
7840
3CC0
1F80
ENDCHAR
STARTCHAR omegatonos
ENCODING 974
SWIDTH 797 0
DWIDTH 16 0
BBX 14 16 1 0
BITMAP
0080
01C0
0180
0180
0300
0000
1860
7038
77B8
E31C
E31C
E31C
E31C
E71C
FFFC
7CF8
ENDCHAR
STARTCHAR uni03D7
ENCODING 983
SWIDTH 724 0
DWIDTH 14 0
BBX 14 15 0 -5
BITMAP
1C38
3E78
1EF8
0F80
0F00
0E80
1EC0
1EFC
1E78
9E38
C010
7070
7FE0
3FC0
0F00
ENDCHAR
STARTCHAR uni03D9
ENCODING 985
SWIDTH 556 0
DWIDTH 11 0
BBX 10 14 1 -4
BITMAP
3E00
7780
E380
E3C0
E3C0
E3C0
E3C0
E380
7380
3F00
1C00
1E00
1E00
1C00
ENDCHAR
STARTCHAR uni03DB
ENCODING 987
SWIDTH 500 0
DWIDTH 10 0
BBX 9 16 1 -4
BITMAP
0180
0180
1F00
7F00
FF00
F800
8000
8000
C000
F800
7E00
3F00
0F00
0700
0600
0600
ENDCHAR
STARTCHAR uni03DD
ENCODING 989
SWIDTH 484 0
DWIDTH 10 0
BBX 8 14 1 -4
BITMAP
7F
FF
F0
F0
F0
F0
7F
71
70
F0
F0
F0
F0
E0
ENDCHAR
STARTCHAR uni03E1
ENCODING 993
SWIDTH 612 0
DWIDTH 12 0
BBX 10 18 1 -4
BITMAP
F000
7C00
3E00
1F00
0F80
1F80
FF80
F3C0
83C0
03C0
3FC0
7DC0
21C0
01C0
0180
0180
0300
0100
ENDCHAR
STARTCHAR uni0400
ENCODING 1024
SWIDTH 591 0
DWIDTH 12 0
BBX 10 18 1 0
BITMAP
2000
7000
3C00
0C00
0000
FFC0
78C0
78C0
7800
7900
7900
7F00
7900
7800
7800
78C0
78C0
FFC0
ENDCHAR
STARTCHAR uni0401
ENCODING 1025
SWIDTH 591 0
DWIDTH 12 0
BBX 10 17 1 0
BITMAP
7380
7380
7380
0000
FFC0
78C0
78C0
7800
7900
7900
7F00
7900
7800
7800
78C0
78C0
FFC0
ENDCHAR
STARTCHAR uni0402
ENCODING 1026
SWIDTH 742 0
DWIDTH 15 0
BBX 15 14 0 -1
BITMAP
FFF8
EF38
CF18
CF00
0F00
0FF8
0F3C
0F1C
0F1E
0F1E
0F1C
0F3C
1F38
0070
ENDCHAR
STARTCHAR uni0403
ENCODING 1027
SWIDTH 580 0
DWIDTH 12 0
BBX 10 18 1 0
BITMAP
0180
0380
0780
0E00
0000
FFC0
78C0
78C0
78C0
7800
7800
7800
7800
7800
7800
7800
7800
FE00
ENDCHAR
STARTCHAR uni0404
ENCODING 1028
SWIDTH 605 0
DWIDTH 12 0
BBX 12 13 0 0
BITMAP
1FE0
3C60
7820
7830
7880
F180
FF80
F180
7080
7830
7830
3C60
1FE0
ENDCHAR
STARTCHAR uni0405
ENCODING 1029
SWIDTH 553 0
DWIDTH 11 0
BBX 10 13 1 0
BITMAP
7F80
F380
E180
F000
F800
FE00
7F00
3F80
0FC0
C3C0
C380
C380
FF00
ENDCHAR
STARTCHAR uni0406
ENCODING 1030
SWIDTH 395 0
DWIDTH 8 0
BBX 6 13 1 0
BITMAP
FC
78
78
78
78
78
78
78
78
78
78
78
FC
ENDCHAR
STARTCHAR uni0407
ENCODING 1031
SWIDTH 395 0
DWIDTH 8 0
BBX 7 17 0 0
BITMAP
66
EE
66
00
7E
3C
3C
3C
3C
3C
3C
3C
3C
3C
3C
3C
7E
ENDCHAR
STARTCHAR uni0408
ENCODING 1032
SWIDTH 404 0
DWIDTH 8 0
BBX 10 17 -2 -4
BITMAP
1FC0
0F00
0F00
0F00
0F00
0F00
0F00
0F00
0F00
0F00
0F00
0F00
0F00
4E00
EE00
FC00
2000
ENDCHAR
STARTCHAR uni0409
ENCODING 1033
SWIDTH 945 0
DWIDTH 19 0
BBX 19 13 0 0
BITMAP
1FFC00
04F000
04F000
04F000
04F000
04FF80
04F3C0
0CF1C0
0CF1E0
08F1E0
78F1C0
F8F3C0
F1FF00
ENDCHAR
STARTCHAR uni040A
ENCODING 1034
SWIDTH 992 0
DWIDTH 20 0
BBX 19 13 1 0
BITMAP
FDF800
78F000
78F000
78F000
78F000
7FFF00
7FF7C0
78F3C0
78F1E0
78F1E0
78F3C0
78F3C0
FDFF00
ENDCHAR
STARTCHAR uni040B
ENCODING 1035
SWIDTH 790 0
DWIDTH 16 0
BBX 15 13 0 0
BITMAP
FFF8
EF38
CF18
CF00
0F00
0FF8
0F3C
0F1C
0F1E
0F1E
0F1E
0F1E
1FBE
ENDCHAR
STARTCHAR uni040C
ENCODING 1036
SWIDTH 715 0
DWIDTH 14 0
BBX 13 18 1 0
BITMAP
0040
01E0
03C0
0700
0000
FC70
78F0
78F0
7880
7980
7B00
7F80
79C0
79E0
78E0
78F0
78F0
FCF8
ENDCHAR
STARTCHAR uni040D
ENCODING 1037
SWIDTH 772 0
DWIDTH 15 0
BBX 14 18 1 0
BITMAP
0800
1C00
1E00
0700
0000
FDFC
7878
7878
78F8
79F8
7978
7A78
7E78
7C78
7878
7878
7878
FDFC
ENDCHAR
STARTCHAR uni040E
ENCODING 1038
SWIDTH 661 0
DWIDTH 13 0
BBX 13 20 0 -2
BITMAP
0430
0E70
0C30
07E0
0000
FE78
7C30
3C20
3C20
1E60
1E40
0FC0
0F80
0F80
0700
0700
3200
7E00
3C00
3800
ENDCHAR
STARTCHAR uni040F
ENCODING 1039
SWIDTH 742 0
DWIDTH 15 0
BBX 13 17 1 -4
BITMAP
FDF8
78F0
78F0
78F0
78F0
78F0
78F0
78F0
78F0
78F0
78F0
78F0
FFF8
0700
0700
0600
0200
ENDCHAR
STARTCHAR uni0410
ENCODING 1040
SWIDTH 680 0
DWIDTH 14 0
BBX 13 13 0 0
BITMAP
0300
0780
0780
0780
0BC0
0BC0
09C0
11E0
1FE0
10E0
20F0
20F0
F1F8
ENDCHAR
STARTCHAR uni0411
ENCODING 1041
SWIDTH 626 0
DWIDTH 13 0
BBX 11 13 1 0
BITMAP
FFC0
78C0
78C0
78C0
7800
7F80
7BC0
79E0
79E0
79E0
79E0
7BC0
FF80
ENDCHAR
STARTCHAR uni0412
ENCODING 1042
SWIDTH 660 0
DWIDTH 13 0
BBX 12 13 1 0
BITMAP
FF80
79E0
79E0
79E0
79E0
7B80
7FC0
79E0
78F0
78F0
78F0
79E0
FF80
ENDCHAR
STARTCHAR uni0413
ENCODING 1043
SWIDTH 580 0
DWIDTH 12 0
BBX 10 13 1 0
BITMAP
FFC0
78C0
78C0
78C0
7800
7800
7800
7800
7800
7800
7800
7800
FE00
ENDCHAR
STARTCHAR uni0414
ENCODING 1044
SWIDTH 724 0
DWIDTH 14 0
BBX 14 17 0 -4
BITMAP
1FFC
04F0
04F0
04F0
0CF0
0CF0
08F0
08F0
18F0
10F0
30F0
20F0
FFFC
C00C
C00C
C00C
C00C
ENDCHAR
STARTCHAR uni0415
ENCODING 1045
SWIDTH 591 0
DWIDTH 12 0
BBX 10 13 1 0
BITMAP
FFC0
78C0
78C0
7800
7900
7900
7F00
7900
7800
7800
78C0
78C0
FFC0
ENDCHAR
STARTCHAR uni0416
ENCODING 1046
SWIDTH 1000 0
DWIDTH 20 0
BBX 20 13 0 0
BITMAP
71F8E0
78F1E0
78F1E0
0CF300
04F200
06F600
07FE00
1CF380
3CF3C0
3CF3C0
3CF3C0
78F1E0
F9F9F0
ENDCHAR
STARTCHAR uni0417
ENCODING 1047
SWIDTH 565 0
DWIDTH 11 0
BBX 11 13 0 0
BITMAP
7F80
73C0
61E0
01C0
01C0
0780
1F80
03C0
01E0
61E0
E1E0
63C0
3F80
ENDCHAR
STARTCHAR uni0418
ENCODING 1048
SWIDTH 772 0
DWIDTH 15 0
BBX 14 13 1 0
BITMAP
FDFC
7878
7878
78F8
79F8
7978
7A78
7E78
7C78
7878
7878
7878
FDFC
ENDCHAR
STARTCHAR uni0419
ENCODING 1049
SWIDTH 772 0
DWIDTH 15 0
BBX 14 18 1 0
BITMAP
1840
18E0
18E0
0FC0
0000
FDFC
7878
7878
78F8
79F8
7978
7A78
7E78
7C78
7878
7878
7878
FDFC
ENDCHAR
STARTCHAR uni041A
ENCODING 1050
SWIDTH 715 0
DWIDTH 14 0
BBX 13 13 1 0
BITMAP
FC70
78F0
78F0
7880
7980
7B00
7F80
79C0
79E0
78E0
78F0
78F0
FCF8
ENDCHAR
STARTCHAR uni041B
ENCODING 1051
SWIDTH 715 0
DWIDTH 14 0
BBX 14 13 0 0
BITMAP
1FFC
04F0
04F0
04F0
04F0
04F0
04F0
0CF0
0CF0
08F0
78F0
F8F0
F1FC
ENDCHAR
STARTCHAR uni041C
ENCODING 1052
SWIDTH 893 0
DWIDTH 18 0
BBX 17 13 0 0
BITMAP
FE0F80
3E1F00
3E1F00
3F1F00
3F3F00
3F2F00
37AF00
37EF00
37CF00
33CF00
33CF00
338F00
F99F80
ENDCHAR
STARTCHAR uni041D
ENCODING 1053
SWIDTH 756 0
DWIDTH 15 0
BBX 14 13 1 0
BITMAP
FDFC
78F0
78F0
78F0
78F0
78F0
7FF0
78F0
78F0
78F0
78F0
78F0
FDFC
ENDCHAR
STARTCHAR uni041E
ENCODING 1054
SWIDTH 700 0
DWIDTH 14 0
BBX 12 13 1 0
BITMAP
1F80
79E0
70E0
F0F0
F0F0
F0F0
F0F0
F0F0
F0F0
F0F0
70E0
79E0
1F80
ENDCHAR
STARTCHAR uni041F
ENCODING 1055
SWIDTH 746 0
DWIDTH 15 0
BBX 13 13 1 0
BITMAP
FFF8
78F0
78F0
78F0
78F0
78F0
78F0
78F0
78F0
78F0
78F0
78F0
FDF8
ENDCHAR
STARTCHAR uni0420
ENCODING 1056
SWIDTH 622 0
DWIDTH 12 0
BBX 11 13 1 0
BITMAP
FF80
7BC0
79E0
78E0
78E0
79E0
7BC0
7F80
7800
7800
7800
7800
FE00
ENDCHAR
STARTCHAR uni0421
ENCODING 1057
SWIDTH 618 0
DWIDTH 12 0
BBX 11 13 1 0
BITMAP
1FE0
7860
7060
F060
F000
F000
F000
F000
F000
F060
7860
7860
1FE0
ENDCHAR
STARTCHAR uni0422
ENCODING 1058
SWIDTH 646 0
DWIDTH 13 0
BBX 13 13 0 0
BITMAP
FFF8
EF38
CF38
CF18
0F00
0F00
0F00
0F00
0F00
0F00
0F00
0F00
1FC0
ENDCHAR
STARTCHAR uni0423
ENCODING 1059
SWIDTH 661 0
DWIDTH 13 0
BBX 13 15 0 -2
BITMAP
FE78
7C30
3C20
3C20
1E60
1E40
0FC0
0F80
0F80
0700
0700
3200
7E00
3C00
3800
ENDCHAR
STARTCHAR uni0424
ENCODING 1060
SWIDTH 784 0
DWIDTH 16 0
BBX 14 13 1 0
BITMAP
0FC0
0780
3FF0
77B8
E7BC
E79C
E79C
E79C
E7BC
77F8
3FE0
0780
0FC0
ENDCHAR
STARTCHAR uni0425
ENCODING 1061
SWIDTH 657 0
DWIDTH 13 0
BBX 13 13 0 0
BITMAP
FEF0
3C60
3C40
1E80
1F80
0F00
0F80
0F80
0BC0
1BC0
31E0
21F0
F3F8
ENDCHAR
STARTCHAR uni0426
ENCODING 1062
SWIDTH 762 0
DWIDTH 15 0
BBX 14 17 1 -4
BITMAP
FDF8
78F0
78F0
78F0
78F0
78F0
78F0
78F0
78F0
78F0
78F0
78F0
FFFC
000C
000C
000C
000C
ENDCHAR
STARTCHAR uni0427
ENCODING 1063
SWIDTH 723 0
DWIDTH 14 0
BBX 14 13 0 0
BITMAP
FFFC
7870
7870
7870
7870
7870
3C70
1FF0
0070
0070
0070
0070
01FC
ENDCHAR
STARTCHAR uni0428
ENCODING 1064
SWIDTH 1070 0
DWIDTH 21 0
BBX 20 13 1 0
BITMAP
FDFFF0
78F1C0
78F1C0
78F1C0
78F1C0
78F1C0
78F1C0
78F1C0
78F1C0
78F1C0
78F1C0
78F1C0
FFFFF0
ENDCHAR
STARTCHAR uni0429
ENCODING 1065
SWIDTH 1090 0
DWIDTH 22 0
BBX 20 17 1 -4
BITMAP
FDFFF0
78F1C0
78F1C0
78F1C0
78F1C0
78F1C0
78F1C0
78F1C0
78F1C0
78F1C0
78F1C0
78F3C0
FFFFF0
000030
000030
000030
000030
ENDCHAR
STARTCHAR uni042A
ENCODING 1066
SWIDTH 744 0
DWIDTH 15 0
BBX 15 13 0 0
BITMAP
FFC0
EF00
CF00
CF00
0F00
0FF8
0F3C
0F1C
0F1E
0F1E
0F3C
0F3C
1FF0
ENDCHAR
STARTCHAR uni042B
ENCODING 1067
SWIDTH 984 0
DWIDTH 20 0
BBX 18 13 1 0
BITMAP
FC1FC0
780780
780780
780780
780780
7F8780
7BC780
79E780
79E780
79E780
79E780
7BC780
FF9FC0
ENDCHAR
STARTCHAR uni042C
ENCODING 1068
SWIDTH 631 0
DWIDTH 13 0
BBX 11 13 1 0
BITMAP
FC00
7800
7800
7800
7800
7F80
79E0
79E0
79E0
79E0
79E0
7BC0
FF80
ENDCHAR
STARTCHAR uni042D
ENCODING 1069
SWIDTH 603 0
DWIDTH 12 0
BBX 12 13 0 0
BITMAP
7F80
63C0
C1E0
C1E0
19E0
18E0
1FF0
18E0
19E0
C1E0
41E0
63C0
7F00
ENDCHAR
STARTCHAR uni042E
ENCODING 1070
SWIDTH 1025 0
DWIDTH 21 0
BBX 19 13 1 0
BITMAP
FC3F00
78F380
78E1C0
79E1E0
79E1E0
79E1E0
7FE1E0
79E1E0
79E1E0
79E1E0
78E1C0
78F380
FC3F00
ENDCHAR
STARTCHAR uni042F
ENCODING 1071
SWIDTH 683 0
DWIDTH 14 0
BBX 13 13 0 0
BITMAP
1FF8
3CF0
38F0
78F0
38F0
3CF0
0FF0
1EF0
3CF0
3CF0
38F0
78F0
F1F8
ENDCHAR
STARTCHAR uni0430
ENCODING 1072
SWIDTH 540 0
DWIDTH 11 0
BBX 11 10 0 0
BITMAP
1F00
7380
7380
6380
0FC0
3BC0
73C0
F3C0
7FE0
7BC0
ENDCHAR
STARTCHAR uni0431
ENCODING 1073
SWIDTH 585 0
DWIDTH 12 0
BBX 10 15 1 0
BITMAP
00C0
1FC0
7FC0
7F80
F000
C000
DF00
B380
F3C0
F3C0
F3C0
F3C0
F3C0
7380
3F00
ENDCHAR
STARTCHAR uni0432
ENCODING 1074
SWIDTH 559 0
DWIDTH 11 0
BBX 11 10 0 0
BITMAP
FF80
7BC0
79C0
79C0
7F80
7BC0
79E0
79E0
79C0
FF80
ENDCHAR
STARTCHAR uni0433
ENCODING 1075
SWIDTH 465 0
DWIDTH 9 0
BBX 9 10 0 0
BITMAP
FF80
7980
7980
7980
7800
7800
7800
7800
7800
FC00
ENDCHAR
STARTCHAR uni0434
ENCODING 1076
SWIDTH 644 0
DWIDTH 13 0
BBX 12 13 0 -3
BITMAP
3FF0
19E0
09E0
09E0
19E0
19E0
11E0
31E0
61E0
FFF0
C030
C030
C010
ENDCHAR
STARTCHAR uni0435
ENCODING 1077
SWIDTH 526 0
DWIDTH 11 0
BBX 10 10 0 0
BITMAP
1F00
3B80
79C0
71C0
FFC0
F000
7800
7840
3FC0
1F80
ENDCHAR
STARTCHAR uni0436
ENCODING 1078
SWIDTH 860 0
DWIDTH 17 0
BBX 17 10 0 0
BITMAP
63E300
71C780
79C700
09C800
0FF800
1FFC00
39CF00
79CF00
79C700
F3E780
ENDCHAR
STARTCHAR uni0437
ENCODING 1079
SWIDTH 486 0
DWIDTH 10 0
BBX 9 10 0 0
BITMAP
7F00
6380
6380
0380
1F00
0780
0380
E380
6380
7F00
ENDCHAR
STARTCHAR uni0438
ENCODING 1080
SWIDTH 660 0
DWIDTH 13 0
BBX 13 10 0 0
BITMAP
FDF8
78F0
78F0
79F0
7BF0
7AF0
7CF0
78F0
78F0
FDF8
ENDCHAR
STARTCHAR uni0439
ENCODING 1081
SWIDTH 660 0
DWIDTH 13 0
BBX 13 15 0 0
BITMAP
18C0
1CE0
18C0
0F80
0000
FDF8
78F0
78F0
79F0
7BF0
7AF0
7CF0
78F0
78F0
FDF8
ENDCHAR
STARTCHAR uni043A
ENCODING 1082
SWIDTH 600 0
DWIDTH 12 0
BBX 12 10 0 0
BITMAP
FC60
78F0
78E0
7900
7F00
7F80
79C0
79E0
79E0
FCF0
ENDCHAR
STARTCHAR uni043B
ENCODING 1083
SWIDTH 613 0
DWIDTH 12 0
BBX 12 10 0 0
BITMAP
1FF0
09E0
09E0
09E0
09E0
19E0
11E0
71E0
F1E0
E3F0
ENDCHAR
STARTCHAR uni043C
ENCODING 1084
SWIDTH 739 0
DWIDTH 15 0
BBX 14 10 0 0
BITMAP
7C7C
3C78
3CF8
3EB8
2EB8
2FB8
2738
2738
2638
F07C
ENDCHAR
STARTCHAR uni043D
ENCODING 1085
SWIDTH 650 0
DWIDTH 13 0
BBX 13 10 0 0
BITMAP
FDF8
78F0
78F0
78F0
7FF0
78F0
78F0
78F0
78F0
FDF8
ENDCHAR
STARTCHAR uni043E
ENCODING 1086
SWIDTH 572 0
DWIDTH 11 0
BBX 11 10 0 0
BITMAP
1F00
3BC0
79C0
71E0
F1E0
F1E0
71E0
79E0
39C0
1F80
ENDCHAR
STARTCHAR uni043F
ENCODING 1087
SWIDTH 638 0
DWIDTH 13 0
BBX 12 10 0 0
BITMAP
FFF0
78E0
78E0
78E0
78E0
78E0
78E0
78E0
78E0
FDF0
ENDCHAR
STARTCHAR uni0440
ENCODING 1088
SWIDTH 623 0
DWIDTH 12 0
BBX 12 14 0 -4
BITMAP
1BC0
FFE0
79F0
78F0
78F0
78F0
78F0
78F0
7FE0
7FC0
7800
7800
7800
7C00
ENDCHAR
STARTCHAR uni0441
ENCODING 1089
SWIDTH 523 0
DWIDTH 10 0
BBX 10 10 0 0
BITMAP
1F00
3980
79C0
79C0
F000
F000
7800
7840
7FC0
1F80
ENDCHAR
STARTCHAR uni0442
ENCODING 1090
SWIDTH 570 0
DWIDTH 11 0
BBX 11 10 0 0
BITMAP
FFE0
CF60
CF60
CF60
0F00
0F00
0F00
0F00
0F00
1F80
ENDCHAR
STARTCHAR uni0443
ENCODING 1091
SWIDTH 543 0
DWIDTH 11 0
BBX 11 15 0 -5
BITMAP
FDE0
78C0
7880
3D80
3D00
1D00
1F00
1E00
0E00
0C00
0400
0400
F800
F800
6000
ENDCHAR
STARTCHAR uni0444
ENCODING 1092
SWIDTH 840 0
DWIDTH 17 0
BBX 16 18 0 -4
BITMAP
03C0
07C0
01C0
01C0
1FFC
3FFE
71CF
71C7
F1C7
F1C7
71C7
71CF
79CE
3FFC
01C0
01C0
01C0
07E0
ENDCHAR
STARTCHAR uni0445
ENCODING 1093
SWIDTH 563 0
DWIDTH 11 0
BBX 11 10 0 0
BITMAP
FDE0
7C80
3D80
1F00
1E00
0F00
1F80
1780
27C0
F7E0
ENDCHAR
STARTCHAR uni0446
ENCODING 1094
SWIDTH 655 0
DWIDTH 13 0
BBX 13 13 0 -3
BITMAP
FDF0
79E0
79E0
79E0
79E0
79E0
79E0
79E0
79E0
FFF8
0018
0018
0018
ENDCHAR
STARTCHAR uni0447
ENCODING 1095
SWIDTH 596 0
DWIDTH 12 0
BBX 11 10 0 0
BITMAP
FBE0
79E0
79E0
79E0
79E0
7FE0
11E0
01E0
01E0
03E0
ENDCHAR
STARTCHAR uni0448
ENCODING 1096
SWIDTH 868 0
DWIDTH 17 0
BBX 17 10 0 0
BITMAP
FFEF80
79CF00
79CF00
79CF00
79CF00
79CF00
79CF00
79CF00
79CF00
FFFF80
ENDCHAR
STARTCHAR uni0449
ENCODING 1097
SWIDTH 891 0
DWIDTH 18 0
BBX 18 13 0 -3
BITMAP
FFEF80
79CF00
79CF00
79CF00
79CF00
79CF00
79CF00
79CF00
79CF00
FFFFC0
0001C0
0000C0
0000C0
ENDCHAR
STARTCHAR uni044A
ENCODING 1098
SWIDTH 661 0
DWIDTH 13 0
BBX 13 10 0 0
BITMAP
FF80
CF00
CF00
CF00
0FF0
0F78
0F38
0F38
0F78
1FE0
ENDCHAR
STARTCHAR uni044B
ENCODING 1099
SWIDTH 835 0
DWIDTH 17 0
BBX 16 10 0 0
BITMAP
FC1F
781E
781E
781E
7F9E
79DE
79FE
79DE
79DE
FF9F
ENDCHAR
STARTCHAR uni044C
ENCODING 1100
SWIDTH 541 0
DWIDTH 11 0
BBX 11 10 0 0
BITMAP
FC00
7800
7800
7800
7FC0
79C0
79E0
79E0
79C0
FF80
ENDCHAR
STARTCHAR uni044D
ENCODING 1101
SWIDTH 504 0
DWIDTH 10 0
BBX 9 10 1 0
BITMAP
FC00
CE00
C700
0700
7F80
7F80
0780
C700
CF00
FE00
ENDCHAR
STARTCHAR uni044E
ENCODING 1102
SWIDTH 841 0
DWIDTH 17 0
BBX 16 10 0 0
BITMAP
FC7C
78EE
79CF
79C7
7FC7
7BC7
7BC7
79CF
79CE
FCFC
ENDCHAR
STARTCHAR uni044F
ENCODING 1103
SWIDTH 589 0
DWIDTH 12 0
BBX 11 10 0 0
BITMAP
0FE0
3DC0
79C0
79C0
39C0
0FC0
39C0
39C0
79C0
F3E0
ENDCHAR
STARTCHAR uni0450
ENCODING 1104
SWIDTH 526 0
DWIDTH 11 0
BBX 10 16 0 0
BITMAP
1800
1800
1C00
0E00
0200
0000
1F00
3B80
79C0
71C0
FFC0
F000
7800
7840
3FC0
1F80
ENDCHAR
STARTCHAR uni0451
ENCODING 1105
SWIDTH 526 0
DWIDTH 11 0
BBX 10 15 0 0
BITMAP
1080
39C0
39C0
1080
0000
1F00
3B80
79C0
71C0
FFC0
F000
7800
7840
3FC0
1F80
ENDCHAR
STARTCHAR uni0452
ENCODING 1106
SWIDTH 605 0
DWIDTH 12 0
BBX 11 17 0 -3
BITMAP
F800
7800
FF00
FF00
7980
7BE0
7FE0
78E0
78E0
78E0
78E0
78E0
78E0
7DE0
01C0
01C0
0380
ENDCHAR
STARTCHAR uni0453
ENCODING 1107
SWIDTH 465 0
DWIDTH 9 0
BBX 9 16 0 0
BITMAP
0100
0380
0700
0600
0C00
0000
FF80
7980
7980
7980
7800
7800
7800
7800
7800
FC00
ENDCHAR
STARTCHAR uni0454
ENCODING 1108
SWIDTH 523 0
DWIDTH 10 0
BBX 10 10 0 0
BITMAP
1F80
3980
7980
7000
FF00
F080
7800
7840
7FC0
3F80
ENDCHAR
STARTCHAR uni0455
ENCODING 1109
SWIDTH 463 0
DWIDTH 9 0
BBX 9 10 0 0
BITMAP
3F00
7300
7300
7C00
7F00
7F80
1F80
4380
E300
7F00
ENDCHAR
STARTCHAR uni0456
ENCODING 1110
SWIDTH 324 0
DWIDTH 6 0
BBX 6 15 0 0
BITMAP
30
38
78
30
00
18
F8
78
78
78
78
78
78
78
7C
ENDCHAR
STARTCHAR uni0457
ENCODING 1111
SWIDTH 324 0
DWIDTH 6 0
BBX 7 15 0 0
BITMAP
44
EE
EE
44
00
18
F8
78
78
78
78
78
78
78
7C
ENDCHAR
STARTCHAR uni0458
ENCODING 1112
SWIDTH 320 0
DWIDTH 6 0
BBX 8 20 -3 -5
BITMAP
06
07
0F
06
00
03
1F
0F
0F
0F
0F
0F
0F
0F
0F
0F
27
F6
7E
30
ENDCHAR
STARTCHAR uni0459
ENCODING 1113
SWIDTH 805 0
DWIDTH 16 0
BBX 16 10 0 0
BITMAP
1FF0
09E0
09E0
09E0
09FE
19EF
11EF
71EF
F1EE
E3FC
ENDCHAR
STARTCHAR uni045A
ENCODING 1114
SWIDTH 853 0
DWIDTH 17 0
BBX 17 10 0 0
BITMAP
FDF000
78E000
78E000
78E000
7FFF00
78E780
78E780
78E780
78E780
FDFE00
ENDCHAR
STARTCHAR uni045B
ENCODING 1115
SWIDTH 624 0
DWIDTH 12 0
BBX 12 14 0 0
BITMAP
F800
7800
FF00
FF00
7880
7BE0
7FE0
79E0
79E0
79E0
79E0
79E0
79E0
7DF0
ENDCHAR
STARTCHAR uni045C
ENCODING 1116
SWIDTH 600 0
DWIDTH 12 0
BBX 12 16 0 0
BITMAP
00C0
01C0
01C0
0380
0200
0000
FC60
78F0
78E0
7900
7F00
7F80
79C0
79E0
79E0
FCF0
ENDCHAR
STARTCHAR uni045D
ENCODING 1117
SWIDTH 660 0
DWIDTH 13 0
BBX 13 16 0 0
BITMAP
0800
1C00
1E00
0600
0300
0000
FDF8
78F0
78F0
79F0
7BF0
7AF0
7CF0
78F0
78F0
FDF8
ENDCHAR
STARTCHAR uni045E
ENCODING 1118
SWIDTH 543 0
DWIDTH 11 0
BBX 11 20 0 -5
BITMAP
18C0
39C0
18C0
0F80
0000
FDE0
78C0
7880
3D80
3D00
1D00
1F00
1E00
0E00
0C00
0400
0400
F800
F800
6000
ENDCHAR
STARTCHAR uni045F
ENCODING 1119
SWIDTH 632 0
DWIDTH 13 0
BBX 12 13 0 -3
BITMAP
FDF0
79E0
79E0
79E0
79E0
79E0
79E0
79E0
79E0
FFF0
0600
0600
0600
ENDCHAR
STARTCHAR uni0462
ENCODING 1122
SWIDTH 769 0
DWIDTH 15 0
BBX 15 14 0 0
BITMAP
1FC0
0F00
0F00
FFF8
EF18
CF18
0F00
0FF8
0F1E
0F1E
0F1E
0F1E
0F3C
1FF8
ENDCHAR
STARTCHAR uni0463
ENCODING 1123
SWIDTH 645 0
DWIDTH 13 0
BBX 13 14 0 0
BITMAP
0100
1F00
0E00
0E00
FFE0
CE20
CE20
CE00
0FE0
0F70
0F78
0F78
0F70
1FE0
ENDCHAR
STARTCHAR uni0472
ENCODING 1138
SWIDTH 700 0
DWIDTH 14 0
BBX 12 13 1 0
BITMAP
3FC0
70E0
F0F0
F0F0
F0F0
E070
FFF0
E070
F0F0
F0F0
F0F0
70E0
3FC0
ENDCHAR
STARTCHAR uni0473
ENCODING 1139
SWIDTH 572 0
DWIDTH 11 0
BBX 11 10 0 0
BITMAP
1F00
39C0
71C0
71E0
FFE0
FFE0
71E0
71E0
79C0
1F80
ENDCHAR
STARTCHAR uni0474
ENCODING 1140
SWIDTH 692 0
DWIDTH 14 0
BBX 14 13 0 0
BITMAP
FE3C
783C
3C3C
3C60
3C40
1E40
1EC0
1E80
0F80
0F80
0F00
0700
0700
ENDCHAR
STARTCHAR uni0475
ENCODING 1141
SWIDTH 583 0
DWIDTH 12 0
BBX 12 10 0 0
BITMAP
FC60
78F0
78E0
3D80
3D00
3D00
1F00
1E00
0E00
0C00
ENDCHAR
STARTCHAR uni0490
ENCODING 1168
SWIDTH 580 0
DWIDTH 12 0
BBX 10 16 1 0
BITMAP
00C0
00C0
00C0
FFC0
7800
7800
7800
7800
7800
7800
7800
7800
7800
7800
7800
FE00
ENDCHAR
STARTCHAR uni0491
ENCODING 1169
SWIDTH 465 0
DWIDTH 9 0
BBX 9 13 0 0
BITMAP
0180
0180
0180
FF80
7800
7800
7800
7800
7800
7800
7800
7800
FC00
ENDCHAR
STARTCHAR uni0492
ENCODING 1170
SWIDTH 580 0
DWIDTH 12 0
BBX 10 13 1 0
BITMAP
FFC0
78C0
78C0
78C0
7800
7800
FE00
7800
7800
7800
7800
7800
FE00
ENDCHAR
STARTCHAR uni0493
ENCODING 1171
SWIDTH 465 0
DWIDTH 9 0
BBX 9 10 0 0
BITMAP
FF80
7980
7980
7980
FE00
7800
7800
7800
7800
FC00
ENDCHAR
STARTCHAR uni0496
ENCODING 1174
SWIDTH 1034 0
DWIDTH 21 0
BBX 21 17 0 -4
BITMAP
71F8E0
78F1E0
78F1E0
0CF300
04F200
06F600
07FE00
1CF380
3CF3C0
3CF3C0
3CF3C0
78F1E8
F9F9F0
000030
000030
000010
000010
ENDCHAR
STARTCHAR uni0497
ENCODING 1175
SWIDTH 909 0
DWIDTH 18 0
BBX 18 13 0 -3
BITMAP
63E300
71C780
79C700
09C800
0FF800
1FFC00
39CF00
79CF00
79C700
F3E7C0
0000C0
0000C0
0000C0
ENDCHAR
STARTCHAR uni0498
ENCODING 1176
SWIDTH 565 0
DWIDTH 11 0
BBX 11 18 0 -5
BITMAP
7F80
73C0
61E0
01C0
01C0
0780
1F80
03C0
01E0
61E0
E1E0
63C0
3F80
0200
0300
0300
0F00
0400
ENDCHAR
STARTCHAR uni0499
ENCODING 1177
SWIDTH 486 0
DWIDTH 10 0
BBX 9 15 0 -5
BITMAP
7F00
6380
6380
0380
1F00
0780
0380
E380
6380
7F00
0400
0600
0600
1E00
0C00
ENDCHAR
STARTCHAR uni049A
ENCODING 1178
SWIDTH 749 0
DWIDTH 15 0
BBX 14 17 1 -4
BITMAP
FC70
78F0
78F0
7880
7980
7B00
7F80
79C0
79E0
78E0
78F0
78F0
FCFC
000C
000C
000C
000C
ENDCHAR
STARTCHAR uni049B
ENCODING 1179
SWIDTH 650 0
DWIDTH 13 0
BBX 13 13 0 -3
BITMAP
FC60
78F0
78E0
7900
7F00
7F80
79C0
79E0
79E0
FCF8
0038
0018
0018
ENDCHAR
STARTCHAR uni04A0
ENCODING 1184
SWIDTH 831 0
DWIDTH 17 0
BBX 17 13 0 0
BITMAP
FFCF00
EF0F00
CF1E00
CF1000
0F1000
0F2000
0FF000
0F3C00
0F1C00
0F1E00
0F1E00
0F1E00
1FCF80
ENDCHAR
STARTCHAR uni04A1
ENCODING 1185
SWIDTH 736 0
DWIDTH 15 0
BBX 15 10 0 0
BITMAP
FF9C
CF1C
CF3C
CF20
0FC0
0FF0
0F38
0F38
0F3C
1F9E
ENDCHAR
STARTCHAR uni04A2
ENCODING 1186
SWIDTH 771 0
DWIDTH 15 0
BBX 14 17 1 -4
BITMAP
FDFC
78F0
78F0
78F0
78F0
78F0
7FF0
78F0
78F0
78F0
78F0
78F0
FDFC
000C
000C
000C
000C
ENDCHAR
STARTCHAR uni04A3
ENCODING 1187
SWIDTH 687 0
DWIDTH 14 0
BBX 13 13 0 -3
BITMAP
FDF8
78F0
78F0
78F0
7FF0
78F0
78F0
78F0
78F0
FDF8
0018
0018
0018
ENDCHAR
STARTCHAR uni04AA
ENCODING 1194
SWIDTH 618 0
DWIDTH 12 0
BBX 11 18 1 -5
BITMAP
1FE0
7860
7060
F060
F000
F000
F000
F000
F000
F060
7860
7860
1FE0
0400
0200
0300
1F00
0C00
ENDCHAR
STARTCHAR uni04AB
ENCODING 1195
SWIDTH 523 0
DWIDTH 10 0
BBX 10 15 0 -5
BITMAP
1F00
3980
79C0
79C0
F000
F000
7800
7840
7FC0
1F80
0400
0200
0300
1F00
0C00
ENDCHAR
STARTCHAR uni04AE
ENCODING 1198
SWIDTH 621 0
DWIDTH 12 0
BBX 12 13 0 0
BITMAP
FEF0
7C20
3C60
3E40
1EC0
1E80
0F80
0F00
0F00
0F00
0F00
0F00
1FC0
ENDCHAR
STARTCHAR uni04AF
ENCODING 1199
SWIDTH 536 0
DWIDTH 11 0
BBX 11 14 0 -4
BITMAP
FDE0
7880
7880
7880
3980
3D00
3D00
1F00
1E00
1E00
1E00
1E00
1E00
3F00
ENDCHAR
STARTCHAR uni04B0
ENCODING 1200
SWIDTH 621 0
DWIDTH 12 0
BBX 12 13 0 0
BITMAP
FEF0
7C20
3C60
3E40
1EC0
1E80
0F80
7FE0
0F00
0F00
0F00
0F00
1FC0
ENDCHAR
STARTCHAR uni04B1
ENCODING 1201
SWIDTH 536 0
DWIDTH 11 0
BBX 11 14 0 -4
BITMAP
FDE0
7880
7880
7880
3980
3D00
3D00
1F00
1E00
7F80
1E00
1E00
1E00
3F00
ENDCHAR
STARTCHAR uni04B2
ENCODING 1202
SWIDTH 690 0
DWIDTH 14 0
BBX 14 17 0 -4
BITMAP
FEF0
3C60
3C40
1E80
1F80
0F00
0F80
0F80
0BC0
1BC0
31E0
21F0
F3FC
001C
000C
000C
000C
ENDCHAR
STARTCHAR uni04B3
ENCODING 1203
SWIDTH 604 0
DWIDTH 12 0
BBX 12 13 0 -3
BITMAP
FDE0
7C80
3D80
1F00
1E00
0F00
1F80
1780
27C0
F7F0
0030
0030
0030
ENDCHAR
STARTCHAR uni04B6
ENCODING 1206
SWIDTH 736 0
DWIDTH 15 0
BBX 14 17 0 -4
BITMAP
FFFC
7870
7870
7870
7870
7870
3C70
1FF0
0070
0070
0070
0070
01FC
000C
000C
0004
0004
ENDCHAR
STARTCHAR uni04B7
ENCODING 1207
SWIDTH 633 0
DWIDTH 13 0
BBX 12 13 0 -3
BITMAP
FBE0
79E0
79E0
79E0
79E0
7FE0
11E0
01E0
01E0
03F0
0030
0030
0030
ENDCHAR
STARTCHAR uni04BA
ENCODING 1210
SWIDTH 723 0
DWIDTH 14 0
BBX 13 13 1 0
BITMAP
FC00
7800
7800
7800
7800
7F80
7FE0
78F0
78F0
78F0
78F0
78F0
FDF8
ENDCHAR
STARTCHAR uni04BB
ENCODING 1211
SWIDTH 624 0
DWIDTH 12 0
BBX 12 14 0 0
BITMAP
F800
7800
7800
7800
7BC0
7FE0
7DE0
79E0
79E0
79E0
79E0
79E0
79E0
7DF0
ENDCHAR
STARTCHAR uni04C0
ENCODING 1216
SWIDTH 395 0
DWIDTH 8 0
BBX 6 13 1 0
BITMAP
FC
78
78
78
78
78
78
78
78
78
78
78
FC
ENDCHAR
STARTCHAR uni04C1
ENCODING 1217
SWIDTH 1000 0
DWIDTH 20 0
BBX 20 18 0 0
BITMAP
010800
039C00
030C00
01F800
000000
71F8E0
78F1E0
78F1E0
0CF300
04F200
06F600
07FE00
1CF380
3CF3C0
3CF3C0
3CF3C0
78F1E0
F9F9F0
ENDCHAR
STARTCHAR uni04C2
ENCODING 1218
SWIDTH 860 0
DWIDTH 17 0
BBX 17 15 0 0
BITMAP
063000
073800
063000
03E000
000000
63E300
71C780
79C700
09C800
0FF800
1FFC00
39CF00
79CF00
79C700
F3E780
ENDCHAR
STARTCHAR uni04CF
ENCODING 1231
SWIDTH 334 0
DWIDTH 7 0
BBX 5 14 1 0
BITMAP
F8
F0
F0
F0
F0
F0
F0
F0
F0
F0
F0
F0
F0
F8
ENDCHAR
STARTCHAR uni04D0
ENCODING 1232
SWIDTH 680 0
DWIDTH 14 0
BBX 13 18 0 0
BITMAP
1840
18E0
18E0
0FC0
0000
0300
0780
0780
0780
0BC0
0BC0
09C0
11E0
1FE0
10E0
20F0
20F0
F1F8
ENDCHAR
STARTCHAR uni04D1
ENCODING 1233
SWIDTH 540 0
DWIDTH 11 0
BBX 11 15 0 0
BITMAP
3180
39C0
3180
1F00
0000
1F00
7380
7380
6380
0FC0
3BC0
73C0
F3C0
7FE0
7BC0
ENDCHAR
STARTCHAR uni04D4
ENCODING 1236
SWIDTH 880 0
DWIDTH 18 0
BBX 17 13 0 0
BITMAP
0FFF80
02F180
02F180
06F000
04F200
0CF200
08FE00
1FF200
10F000
30F000
20F180
60F180
F3FF80
ENDCHAR
STARTCHAR uni04D5
ENCODING 1237
SWIDTH 792 0
DWIDTH 16 0
BBX 15 10 0 0
BITMAP
1F78
73CE
73CE
63CE
0FFE
3BC0
73C0
F3E2
7BFE
7CFC
ENDCHAR
STARTCHAR uni04D6
ENCODING 1238
SWIDTH 591 0
DWIDTH 12 0
BBX 10 18 1 0
BITMAP
2180
71C0
7180
3F00
0000
FFC0
78C0
78C0
7800
7900
7900
7F00
7900
7800
7800
78C0
78C0
FFC0
ENDCHAR
STARTCHAR uni04D7
ENCODING 1239
SWIDTH 526 0
DWIDTH 11 0
BBX 10 15 0 0
BITMAP
3180
39C0
3180
1F00
0000
1F00
3B80
79C0
71C0
FFC0
F000
7800
7840
3FC0
1F80
ENDCHAR
STARTCHAR uni04D8
ENCODING 1240
SWIDTH 663 0
DWIDTH 13 0
BBX 12 13 1 0
BITMAP
7F80
63C0
41E0
C1E0
01E0
00F0
FFF0
F0F0
F0F0
F1E0
F1E0
71C0
3F80
ENDCHAR
STARTCHAR uni04D9
ENCODING 1241
SWIDTH 526 0
DWIDTH 11 0
BBX 10 10 0 0
BITMAP
1F00
7F80
47C0
03C0
03C0
FFC0
F3C0
73C0
7380
3F00
ENDCHAR
STARTCHAR uni04E2
ENCODING 1250
SWIDTH 772 0
DWIDTH 15 0
BBX 14 16 1 0
BITMAP
1FC0
1FC0
0000
FDFC
7878
7878
78F8
79F8
7978
7A78
7E78
7C78
7878
7878
7878
FDFC
ENDCHAR
STARTCHAR uni04E3
ENCODING 1251
SWIDTH 660 0
DWIDTH 13 0
BBX 13 14 0 0
BITMAP
1FC0
1FC0
0000
0000
FDF8
78F0
78F0
79F0
7BF0
7AF0
7CF0
78F0
78F0
FDF8
ENDCHAR
STARTCHAR uni04E6
ENCODING 1254
SWIDTH 700 0
DWIDTH 14 0
BBX 12 17 1 0
BITMAP
39C0
39C0
39C0
0000
1F80
79E0
70E0
F0F0
F0F0
F0F0
F0F0
F0F0
F0F0
F0F0
70E0
79E0
1F80
ENDCHAR
STARTCHAR uni04E7
ENCODING 1255
SWIDTH 572 0
DWIDTH 11 0
BBX 11 15 0 0
BITMAP
1080
39C0
39C0
3180
0000
1F00
3BC0
79C0
71E0
F1E0
F1E0
71E0
79E0
39C0
1F80
ENDCHAR
STARTCHAR uni04E8
ENCODING 1256
SWIDTH 700 0
DWIDTH 14 0
BBX 12 13 1 0
BITMAP
3FC0
70E0
F0F0
F0F0
F0F0
E070
FFF0
E070
F0F0
F0F0
F0F0
70E0
3FC0
ENDCHAR
STARTCHAR uni04E9
ENCODING 1257
SWIDTH 572 0
DWIDTH 11 0
BBX 11 10 0 0
BITMAP
1F00
39C0
71C0
71E0
FFE0
FFE0
71E0
71E0
79C0
1F80
ENDCHAR
STARTCHAR uni04EE
ENCODING 1262
SWIDTH 661 0
DWIDTH 13 0
BBX 13 18 0 -2
BITMAP
07E0
07E0
0000
FE78
7C30
3C20
3C20
1E60
1E40
0FC0
0F80
0F80
0700
0700
3200
7E00
3C00
3800
ENDCHAR
STARTCHAR uni04EF
ENCODING 1263
SWIDTH 543 0
DWIDTH 11 0
BBX 11 19 0 -5
BITMAP
1FC0
1FC0
0000
0000
FDE0
78C0
7880
3D80
3D00
1D00
1F00
1E00
0E00
0C00
0400
0400
F800
F800
6000
ENDCHAR
STARTCHAR uni04F2
ENCODING 1266
SWIDTH 661 0
DWIDTH 13 0
BBX 13 20 0 -2
BITMAP
01B0
03B0
0360
0240
0000
FE78
7C30
3C20
3C20
1E60
1E40
0FC0
0F80
0F80
0700
0700
3200
7E00
3C00
3800
ENDCHAR
STARTCHAR uni04F3
ENCODING 1267
SWIDTH 543 0
DWIDTH 11 0
BBX 11 21 0 -5
BITMAP
06C0
06C0
0FC0
0D80
0900
0000
FDE0
78C0
7880
3D80
3D00
1D00
1F00
1E00
0E00
0C00
0400
0400
F800
F800
6000
ENDCHAR
STARTCHAR a.sups
ENCODING 7491
SWIDTH 357 0
DWIDTH 7 0
BBX 7 7 0 8
BITMAP
38
6C
4C
3C
6C
CC
7E
ENDCHAR
STARTCHAR b.sups
ENCODING 7495
SWIDTH 408 0
DWIDTH 8 0
BBX 8 9 0 8
BITMAP
E0
60
6C
7E
67
67
67
66
FE
ENDCHAR
STARTCHAR d.sups
ENCODING 7496
SWIDTH 388 0
DWIDTH 8 0
BBX 8 9 0 8
BITMAP
0E
06
16
7E
66
E6
E6
66
7F
ENDCHAR
STARTCHAR e.sups
ENCODING 7497
SWIDTH 348 0
DWIDTH 7 0
BBX 7 7 0 8
BITMAP
18
6C
66
FE
E0
62
3C
ENDCHAR
STARTCHAR g.sups
ENCODING 7501
SWIDTH 365 0
DWIDTH 7 0
BBX 7 10 0 5
BITMAP
3A
6C
6C
6C
50
40
7E
46
C6
78
ENDCHAR
STARTCHAR k.sups
ENCODING 7503
SWIDTH 404 0
DWIDTH 8 0
BBX 8 9 0 8
BITMAP
E0
60
63
64
68
7C
6C
66
F7
ENDCHAR
STARTCHAR m.sups
ENCODING 7504
SWIDTH 607 0
DWIDTH 12 0
BBX 12 7 0 8
BITMAP
24C0
FFE0
6660
6660
6660
6660
FFF0
ENDCHAR
STARTCHAR o.sups
ENCODING 7506
SWIDTH 381 0
DWIDTH 8 0
BBX 7 7 0 8
BITMAP
18
64
66
E6
E6
66
3C
ENDCHAR
STARTCHAR p.sups
ENCODING 7510
SWIDTH 404 0
DWIDTH 8 0
BBX 8 10 0 5
BITMAP
2C
FE
67
67
67
66
7E
60
60
F0
ENDCHAR
STARTCHAR t.sups
ENCODING 7511
SWIDTH 239 0
DWIDTH 5 0
BBX 5 8 0 8
BITMAP
60
60
F0
60
60
60
60
78
ENDCHAR
STARTCHAR u.sups
ENCODING 7512
SWIDTH 400 0
DWIDTH 8 0
BBX 8 7 0 8
BITMAP
22
EE
66
66
66
6E
77
ENDCHAR
STARTCHAR v.sups
ENCODING 7515
SWIDTH 357 0
DWIDTH 7 0
BBX 7 6 0 8
BITMAP
F6
64
34
38
38
10
ENDCHAR
STARTCHAR c.sups
ENCODING 7580
SWIDTH 334 0
DWIDTH 7 0
BBX 7 7 0 8
BITMAP
18
64
66
E0
E0
62
3C
ENDCHAR
STARTCHAR f.sups
ENCODING 7584
SWIDTH 234 0
DWIDTH 5 0
BBX 6 10 0 8
BITMAP
18
2C
60
60
F0
60
60
60
60
F0
ENDCHAR
STARTCHAR z.sups
ENCODING 7611
SWIDTH 320 0
DWIDTH 6 0
BBX 6 6 0 8
BITMAP
FC
D8
38
70
64
FC
ENDCHAR
STARTCHAR uni1E0C
ENCODING 7692
SWIDTH 703 0
DWIDTH 14 0
BBX 13 18 1 -5
BITMAP
FF80
7BC0
78E0
78F0
78F0
78F0
78F8
78F0
78F0
78F0
78E0
7BC0
FF00
0000
0600
0F00
0F00
0600
ENDCHAR
STARTCHAR uni1E0D
ENCODING 7693
SWIDTH 605 0
DWIDTH 12 0
BBX 12 19 0 -5
BITMAP
03E0
01E0
01E0
01E0
1FE0
3FE0
79E0
79E0
F9E0
F1E0
79E0
79E0
7FE0
3FF0
0000
0200
0700
0700
0300
ENDCHAR
STARTCHAR uni1E0E
ENCODING 7694
SWIDTH 703 0
DWIDTH 14 0
BBX 13 17 1 -4
BITMAP
FF80
7BC0
78E0
78F0
78F0
78F0
78F8
78F0
78F0
78F0
78E0
7BC0
FF00
0000
0000
3F80
3F80
ENDCHAR
STARTCHAR uni1E0F
ENCODING 7695
SWIDTH 605 0
DWIDTH 12 0
BBX 12 18 0 -4
BITMAP
03E0
01E0
01E0
01E0
1FE0
3FE0
79E0
79E0
F9E0
F1E0
79E0
79E0
7FE0
3FF0
0000
0000
1FC0
1FC0
ENDCHAR
STARTCHAR uni1E20
ENCODING 7712
SWIDTH 672 0
DWIDTH 13 0
BBX 12 16 1 0
BITMAP
1F80
1F80
0000
1FE0
7860
7860
F060
F000
F000
F3F0
F3F0
F1E0
F1E0
79E0
79E0
1FE0
ENDCHAR
STARTCHAR uni1E21
ENCODING 7713
SWIDTH 553 0
DWIDTH 11 0
BBX 11 18 0 -4
BITMAP
3F80
3F80
0000
0000
3F60
73E0
7380
7380
7380
3F00
6000
7000
7FC0
7FE0
7FE0
C0E0
E1C0
7F80
ENDCHAR
STARTCHAR uni1E24
ENCODING 7716
SWIDTH 756 0
DWIDTH 15 0
BBX 14 18 1 -5
BITMAP
FDFC
78F0
78F0
78F0
78F0
78F0
7FF0
78F0
78F0
78F0
78F0
78F0
FDFC
0000
0200
0700
0700
0300
ENDCHAR
STARTCHAR uni1E25
ENCODING 7717
SWIDTH 624 0
DWIDTH 12 0
BBX 12 19 0 -5
BITMAP
F800
7800
7800
7800
7BC0
7FE0
7DE0
79E0
79E0
79E0
79E0
79E0
79E0
7DF0
0000
0600
0F00
0F00
0600
ENDCHAR
STARTCHAR uni1E2A
ENCODING 7722
SWIDTH 756 0
DWIDTH 15 0
BBX 14 18 1 -5
BITMAP
FDFC
78F0
78F0
78F0
78F0
78F0
7FF0
78F0
78F0
78F0
78F0
78F0
FDFC
0000
1040
18C0
0F80
0700
ENDCHAR
STARTCHAR uni1E2B
ENCODING 7723
SWIDTH 624 0
DWIDTH 12 0
BBX 12 19 0 -5
BITMAP
F800
7800
7800
7800
7BC0
7FE0
7DE0
79E0
79E0
79E0
79E0
79E0
79E0
7DF0
0000
1080
18C0
0F80
0700
ENDCHAR
STARTCHAR uni1E36
ENCODING 7734
SWIDTH 574 0
DWIDTH 11 0
BBX 10 18 1 -5
BITMAP
FE00
7800
7800
7800
7800
7800
7800
7800
7800
78C0
78C0
78C0
FFC0
0000
0C00
0E00
1E00
0C00
ENDCHAR
STARTCHAR uni1E37
ENCODING 7735
SWIDTH 334 0
DWIDTH 7 0
BBX 6 19 0 -5
BITMAP
F8
78
78
78
78
78
78
78
78
78
78
78
78
7C
00
10
38
38
18
ENDCHAR
STARTCHAR uni1E38
ENCODING 7736
SWIDTH 574 0
DWIDTH 11 0
BBX 10 21 1 -5
BITMAP
FC00
FC00
0000
FE00
7800
7800
7800
7800
7800
7800
7800
7800
78C0
78C0
78C0
FFC0
0000
0C00
0E00
1E00
0C00
ENDCHAR
STARTCHAR uni1E39
ENCODING 7737
SWIDTH 334 0
DWIDTH 7 0
BBX 7 23 0 -5
BITMAP
FE
FE
00
00
F8
78
78
78
78
78
78
78
78
78
78
78
78
7C
00
10
38
38
18
ENDCHAR
STARTCHAR uni1E3A
ENCODING 7738
SWIDTH 574 0
DWIDTH 11 0
BBX 10 17 1 -4
BITMAP
FE00
7800
7800
7800
7800
7800
7800
7800
7800
78C0
78C0
78C0
FFC0
0000
0000
3F80
3F80
ENDCHAR
STARTCHAR uni1E3B
ENCODING 7739
SWIDTH 334 0
DWIDTH 7 0
BBX 7 18 0 -4
BITMAP
F8
78
78
78
78
78
78
78
78
78
78
78
78
7C
00
00
FE
FE
ENDCHAR
STARTCHAR uni1E3E
ENCODING 7742
SWIDTH 893 0
DWIDTH 18 0
BBX 17 18 0 0
BITMAP
001000
003800
00F000
00C000
000000
FE0F80
3E1F00
3E1F00
3F1F00
3F3F00
3F2F00
37AF00
37EF00
37CF00
33CF00
33CF00
338F00
F99F80
ENDCHAR
STARTCHAR uni1E3F
ENCODING 7743
SWIDTH 910 0
DWIDTH 18 0
BBX 18 16 0 0
BITMAP
003000
003000
007000
00E000
008000
000000
1BCF00
FFFF80
79E780
79E780
79E780
79E780
79E780
79E780
79E780
FDFFC0
ENDCHAR
STARTCHAR uni1E42
ENCODING 7746
SWIDTH 893 0
DWIDTH 18 0
BBX 17 18 0 -5
BITMAP
FE0F80
3E1F00
3E1F00
3F1F00
3F3F00
3F2F00
37AF00
37EF00
37CF00
33CF00
33CF00
338F00
F99F80
000000
018000
03C000
03C000
018000
ENDCHAR
STARTCHAR uni1E43
ENCODING 7747
SWIDTH 910 0
DWIDTH 18 0
BBX 18 15 0 -5
BITMAP
1BCF00
FFFF80
79E780
79E780
79E780
79E780
79E780
79E780
79E780
FDFFC0
000000
00C000
00E000
01E000
00C000
ENDCHAR
STARTCHAR uni1E44
ENCODING 7748
SWIDTH 725 0
DWIDTH 15 0
BBX 14 17 0 0
BITMAP
0380
0780
0380
0000
FC7C
3E10
3E10
3F10
3F90
37D0
33D0
33F0
31F0
30F0
30F0
3070
FC30
ENDCHAR
STARTCHAR uni1E45
ENCODING 7749
SWIDTH 620 0
DWIDTH 12 0
BBX 12 15 0 0
BITMAP
0200
0700
0700
0600
0000
1BC0
FFE0
79E0
79E0
79E0
79E0
79E0
79E0
79E0
FDF0
ENDCHAR
STARTCHAR uni1E46
ENCODING 7750
SWIDTH 725 0
DWIDTH 15 0
BBX 14 18 0 -5
BITMAP
FC7C
3E10
3E10
3F10
3F90
37D0
33D0
33F0
31F0
30F0
30F0
3070
FC30
0000
0100
0380
0380
0180
ENDCHAR
STARTCHAR uni1E47
ENCODING 7751
SWIDTH 620 0
DWIDTH 12 0
BBX 12 15 0 -5
BITMAP
1BC0
FFE0
79E0
79E0
79E0
79E0
79E0
79E0
79E0
FDF0
0000
0600
0700
0F00
0600
ENDCHAR
STARTCHAR uni1E48
ENCODING 7752
SWIDTH 725 0
DWIDTH 15 0
BBX 14 17 0 -4
BITMAP
FC7C
3E10
3E10
3F10
3F90
37D0
33D0
33F0
31F0
30F0
30F0
3070
FC30
0000
0000
0FE0
0FE0
ENDCHAR
STARTCHAR uni1E49
ENCODING 7753
SWIDTH 620 0
DWIDTH 12 0
BBX 12 14 0 -4
BITMAP
1BC0
FFE0
79E0
79E0
79E0
79E0
79E0
79E0
79E0
FDF0
0000
0000
1FC0
1FC0
ENDCHAR
STARTCHAR uni1E5A
ENCODING 7770
SWIDTH 696 0
DWIDTH 14 0
BBX 13 18 1 -5
BITMAP
FFC0
79E0
79E0
78E0
79E0
79C0
7F80
79C0
79E0
79E0
79E0
79E0
FCF8
0000
0600
0700
0F00
0600
ENDCHAR
STARTCHAR uni1E5B
ENCODING 7771
SWIDTH 483 0
DWIDTH 10 0
BBX 10 15 0 -5
BITMAP
1B80
FBC0
7DC0
7C00
7800
7800
7800
7800
7800
FE00
0000
3000
3800
7800
3000
ENDCHAR
STARTCHAR uni1E5C
ENCODING 7772
SWIDTH 696 0
DWIDTH 14 0
BBX 13 21 1 -5
BITMAP
1F80
1F80
0000
FFC0
79E0
79E0
78E0
79E0
79C0
7F80
79C0
79E0
79E0
79E0
79E0
FCF8
0000
0600
0700
0F00
0600
ENDCHAR
STARTCHAR uni1E5D
ENCODING 7773
SWIDTH 483 0
DWIDTH 10 0
BBX 10 19 0 -5
BITMAP
3F80
3F80
0000
0000
1B80
FBC0
7DC0
7C00
7800
7800
7800
7800
7800
FE00
0000
3000
3800
7800
3000
ENDCHAR
STARTCHAR uni1E5E
ENCODING 7774
SWIDTH 696 0
DWIDTH 14 0
BBX 13 17 1 -4
BITMAP
FFC0
79E0
79E0
78E0
79E0
79C0
7F80
79C0
79E0
79E0
79E0
79E0
FCF8
0000
0000
1FC0
1FC0
ENDCHAR
STARTCHAR uni1E5F
ENCODING 7775
SWIDTH 483 0
DWIDTH 10 0
BBX 10 14 0 -4
BITMAP
1B80
FBC0
7DC0
7C00
7800
7800
7800
7800
7800
FE00
0000
0000
FE00
FE00
ENDCHAR
STARTCHAR uni1E60
ENCODING 7776
SWIDTH 553 0
DWIDTH 11 0
BBX 10 17 1 0
BITMAP
1E00
1E00
0C00
0000
7F80
F380
E180
F000
F800
FE00
7F00
3F80
0FC0
C3C0
C380
C380
FF00
ENDCHAR
STARTCHAR uni1E61
ENCODING 7777
SWIDTH 463 0
DWIDTH 9 0
BBX 9 15 0 0
BITMAP
0C00
1E00
1E00
0C00
0000
3F00
7300
7300
7C00
7F00
7F80
1F80
4380
E300
7F00
ENDCHAR
STARTCHAR uni1E62
ENCODING 7778
SWIDTH 553 0
DWIDTH 11 0
BBX 10 18 1 -5
BITMAP
7F80
F380
E180
F000
F800
FE00
7F00
3F80
0FC0
C3C0
C380
C380
FF00
0000
0800
1C00
1C00
0C00
ENDCHAR
STARTCHAR uni1E63
ENCODING 7779
SWIDTH 463 0
DWIDTH 9 0
BBX 9 15 0 -5
BITMAP
3F00
7300
7300
7C00
7F00
7F80
1F80
4380
E300
7F00
0000
0800
1C00
1C00
0C00
ENDCHAR
STARTCHAR uni1E6C
ENCODING 7788
SWIDTH 646 0
DWIDTH 13 0
BBX 13 18 0 -5
BITMAP
FFF8
EF38
CF38
CF18
0F00
0F00
0F00
0F00
0F00
0F00
0F00
0F00
1FC0
0000
0200
0700
0700
0600
ENDCHAR
STARTCHAR uni1E6D
ENCODING 7789
SWIDTH 372 0
DWIDTH 7 0
BBX 8 18 0 -5
BITMAP
18
38
38
FE
FE
78
78
78
78
78
78
7F
3E
00
08
1C
1C
0C
ENDCHAR
STARTCHAR uni1E6E
ENCODING 7790
SWIDTH 646 0
DWIDTH 13 0
BBX 13 17 0 -4
BITMAP
FFF8
EF38
CF38
CF18
0F00
0F00
0F00
0F00
0F00
0F00
0F00
0F00
1FC0
0000
0000
1FC0
1FC0
ENDCHAR
STARTCHAR uni1E6F
ENCODING 7791
SWIDTH 372 0
DWIDTH 7 0
BBX 8 17 0 -4
BITMAP
18
38
38
FE
FE
78
78
78
78
78
78
7F
3E
00
00
7F
7F
ENDCHAR
STARTCHAR Wgrave
ENCODING 7808
SWIDTH 989 0
DWIDTH 20 0
BBX 20 18 0 0
BITMAP
008000
01C000
01E000
007000
000000
FEFCF0
787840
3C7840
3C78C0
3CFC80
3CBC80
1EBD80
1E9D00
1F1F00
0F1F00
0F0E00
0F0E00
060E00
ENDCHAR
STARTCHAR wgrave
ENCODING 7809
SWIDTH 800 0
DWIDTH 16 0
BBX 16 16 0 0
BITMAP
0200
0700
0780
0180
00C0
0000
FBEF
71C6
79E4
79E4
3AEC
3EF8
3E78
1C78
1C70
0C30
ENDCHAR
STARTCHAR Wacute
ENCODING 7810
SWIDTH 989 0
DWIDTH 20 0
BBX 20 18 0 0
BITMAP
000400
000E00
001E00
003000
000000
FEFCF0
787840
3C7840
3C78C0
3CFC80
3CBC80
1EBD80
1E9D00
1F1F00
0F1F00
0F0E00
0F0E00
060E00
ENDCHAR
STARTCHAR wacute
ENCODING 7811
SWIDTH 800 0
DWIDTH 16 0
BBX 16 16 0 0
BITMAP
0020
0070
00E0
01C0
0180
0000
FBEF
71C6
79E4
79E4
3AEC
3EF8
3E78
1C78
1C70
0C30
ENDCHAR
STARTCHAR Wdieresis
ENCODING 7812
SWIDTH 989 0
DWIDTH 20 0
BBX 20 17 0 0
BITMAP
01CE00
01CE00
01CE00
000000
FEFCF0
787840
3C7840
3C78C0
3CFC80
3CBC80
1EBD80
1E9D00
1F1F00
0F1F00
0F0E00
0F0E00
060E00
ENDCHAR
STARTCHAR wdieresis
ENCODING 7813
SWIDTH 800 0
DWIDTH 16 0
BBX 16 15 0 0
BITMAP
0210
0738
0F38
0630
0000
FBEF
71C6
79E4
79E4
3AEC
3EF8
3E78
1C78
1C70
0C30
ENDCHAR
STARTCHAR uni1E8E
ENCODING 7822
SWIDTH 621 0
DWIDTH 12 0
BBX 12 17 0 0
BITMAP
0380
0380
0380
0000
FEF0
7C20
3C60
3E40
1EC0
1E80
0F80
0F00
0F00
0F00
0F00
0F00
1FC0
ENDCHAR
STARTCHAR uni1E8F
ENCODING 7823
SWIDTH 543 0
DWIDTH 11 0
BBX 11 20 0 -5
BITMAP
0600
0700
0F00
0600
0000
FDE0
78C0
7880
3D80
3D00
1D00
1F00
1E00
0E00
0C00
0400
0400
F800
F800
6000
ENDCHAR
STARTCHAR uni1E92
ENCODING 7826
SWIDTH 568 0
DWIDTH 11 0
BBX 11 18 0 -5
BITMAP
7FE0
63E0
63C0
4780
0780
0F00
1F00
1E00
3E00
3C60
7C60
7860
FFE0
0000
0600
0F00
0F00
0600
ENDCHAR
STARTCHAR uni1E93
ENCODING 7827
SWIDTH 468 0
DWIDTH 9 0
BBX 9 15 0 -5
BITMAP
7F80
E780
CF00
0F00
1E00
3E00
3C00
7980
7980
FF80
0000
0C00
1E00
1E00
0C00
ENDCHAR
STARTCHAR uni1E97
ENCODING 7831
SWIDTH 372 0
DWIDTH 7 0
BBX 8 18 0 0
BITMAP
42
E7
E7
42
00
18
38
38
FE
FE
78
78
78
78
78
78
7F
3E
ENDCHAR
STARTCHAR uni1E9E
ENCODING 7838
SWIDTH 760 0
DWIDTH 15 0
BBX 14 13 1 0
BITMAP
1FF0
3C70
78E0
79E0
79E0
79F0
79F8
78F8
787C
7B3C
7B3C
7B38
FBF0
ENDCHAR
STARTCHAR uni1EA0
ENCODING 7840
SWIDTH 680 0
DWIDTH 14 0
BBX 13 18 0 -5
BITMAP
0300
0780
0780
0780
0BC0
0BC0
09C0
11E0
1FE0
10E0
20F0
20F0
F1F8
0000
0600
0F00
0F00
0600
ENDCHAR
STARTCHAR uni1EA1
ENCODING 7841
SWIDTH 540 0
DWIDTH 11 0
BBX 11 15 0 -5
BITMAP
1F00
7380
7380
6380
0FC0
3BC0
73C0
F3C0
7FE0
7BC0
0000
0C00
0E00
1E00
0C00
ENDCHAR
STARTCHAR uni1EA2
ENCODING 7842
SWIDTH 680 0
DWIDTH 14 0
BBX 13 18 0 0
BITMAP
0700
0780
0180
0300
0000
0300
0780
0780
0780
0BC0
0BC0
09C0
11E0
1FE0
10E0
20F0
20F0
F1F8
ENDCHAR
STARTCHAR uni1EA3
ENCODING 7843
SWIDTH 540 0
DWIDTH 11 0
BBX 11 16 0 0
BITMAP
0C00
0E00
0700
0600
0400
0000
1F00
7380
7380
6380
0FC0
3BC0
73C0
F3C0
7FE0
7BC0
ENDCHAR
STARTCHAR uni1EA4
ENCODING 7844
SWIDTH 680 0
DWIDTH 14 0
BBX 13 19 0 0
BITMAP
0018
0338
07B0
0FC0
18E0
1020
0300
0780
0780
0780
0BC0
0BC0
09C0
11E0
1FE0
10E0
20F0
20F0
F1F8
ENDCHAR
STARTCHAR uni1EA5
ENCODING 7845
SWIDTH 540 0
DWIDTH 11 0
BBX 11 16 0 0
BITMAP
0060
0EE0
1F40
3B80
30C0
0000
1F00
7380
7380
6380
0FC0
3BC0
73C0
F3C0
7FE0
7BC0
ENDCHAR
STARTCHAR uni1EA6
ENCODING 7846
SWIDTH 680 0
DWIDTH 14 0
BBX 13 19 0 0
BITMAP
6000
7300
7780
0FC0
18E0
1020
0300
0780
0780
0780
0BC0
0BC0
09C0
11E0
1FE0
10E0
20F0
20F0
F1F8
ENDCHAR
STARTCHAR uni1EA7
ENCODING 7847
SWIDTH 540 0
DWIDTH 11 0
BBX 11 16 0 0
BITMAP
C000
EE00
3F00
3B80
30C0
0000
1F00
7380
7380
6380
0FC0
3BC0
73C0
F3C0
7FE0
7BC0
ENDCHAR
STARTCHAR uni1EA8
ENCODING 7848
SWIDTH 680 0
DWIDTH 14 0
BBX 13 20 0 0
BITMAP
0070
0078
0318
07B0
0FC0
18E0
1020
0300
0780
0780
0780
0BC0
0BC0
09C0
11E0
1FE0
10E0
20F0
20F0
F1F8
ENDCHAR
STARTCHAR uni1EA9
ENCODING 7849
SWIDTH 540 0
DWIDTH 11 0
BBX 12 18 0 0
BITMAP
0040
00E0
0070
0E30
1F60
3B80
30C0
0000
1F00
7380
7380
6380
0FC0
3BC0
73C0
F3C0
7FE0
7BC0
ENDCHAR
STARTCHAR uni1EAA
ENCODING 7850
SWIDTH 680 0
DWIDTH 14 0
BBX 13 20 0 0
BITMAP
0F60
1FC0
1080
0300
0F80
1CE0
1020
0300
0780
0780
0780
0BC0
0BC0
09C0
11E0
1FE0
10E0
20F0
20F0
F1F8
ENDCHAR
STARTCHAR uni1EAB
ENCODING 7851
SWIDTH 540 0
DWIDTH 11 0
BBX 11 18 0 0
BITMAP
0080
1F80
3F80
0000
0F00
1F80
30C0
0000
1F00
7380
7380
6380
0FC0
3BC0
73C0
F3C0
7FE0
7BC0
ENDCHAR
STARTCHAR uni1EAC
ENCODING 7852
SWIDTH 680 0
DWIDTH 14 0
BBX 13 23 0 -5
BITMAP
0300
0780
0FC0
18E0
1020
0300
0780
0780
0780
0BC0
0BC0
09C0
11E0
1FE0
10E0
20F0
20F0
F1F8
0000
0600
0F00
0F00
0600
ENDCHAR
STARTCHAR uni1EAD
ENCODING 7853
SWIDTH 540 0
DWIDTH 11 0
BBX 11 20 0 -5
BITMAP
0E00
0F00
1B00
3180
0000
1F00
7380
7380
6380
0FC0
3BC0
73C0
F3C0
7FE0
7BC0
0000
0C00
0E00
1E00
0C00
ENDCHAR
STARTCHAR uni1EAE
ENCODING 7854
SWIDTH 680 0
DWIDTH 14 0
BBX 13 21 0 0
BITMAP
0080
01C0
0380
0300
1840
0FC0
0780
0000
0300
0780
0780
0780
0BC0
0BC0
09C0
11E0
1FE0
10E0
20F0
20F0
F1F8
ENDCHAR
STARTCHAR uni1EAF
ENCODING 7855
SWIDTH 540 0
DWIDTH 11 0
BBX 11 18 0 0
BITMAP
0300
0300
0700
0600
3080
1F80
0F00
0000
1F00
7380
7380
6380
0FC0
3BC0
73C0
F3C0
7FE0
7BC0
ENDCHAR
STARTCHAR uni1EB0
ENCODING 7856
SWIDTH 680 0
DWIDTH 14 0
BBX 13 21 0 0
BITMAP
0400
0E00
0E00
0300
1840
0FC0
0780
0000
0300
0780
0780
0780
0BC0
0BC0
09C0
11E0
1FE0
10E0
20F0
20F0
F1F8
ENDCHAR
STARTCHAR uni1EB1
ENCODING 7857
SWIDTH 540 0
DWIDTH 11 0
BBX 11 18 0 0
BITMAP
1800
1C00
1C00
0E00
3180
3F00
1E00
0000
1F00
7380
7380
6380
0FC0
3BC0
73C0
F3C0
7FE0
7BC0
ENDCHAR
STARTCHAR uni1EB2
ENCODING 7858
SWIDTH 680 0
DWIDTH 14 0
BBX 13 20 0 0
BITMAP
0300
0780
0180
1B40
0FC0
0780
0000
0300
0780
0780
0780
0BC0
0BC0
09C0
11E0
1FE0
10E0
20F0
20F0
F1F8
ENDCHAR
STARTCHAR uni1EB3
ENCODING 7859
SWIDTH 540 0
DWIDTH 11 0
BBX 11 18 0 0
BITMAP
0E00
0E00
0200
0C00
2180
3F00
1F00
0000
1F00
7380
7380
6380
0FC0
3BC0
73C0
F3C0
7FE0
7BC0
ENDCHAR
STARTCHAR uni1EB4
ENCODING 7860
SWIDTH 680 0
DWIDTH 14 0
BBX 13 20 0 0
BITMAP
0FE0
1FC0
0000
1840
0FC0
0780
0000
0300
0780
0780
0780
0BC0
0BC0
09C0
11E0
1FE0
10E0
20F0
20F0
F1F8
ENDCHAR
STARTCHAR uni1EB5
ENCODING 7861
SWIDTH 540 0
DWIDTH 11 0
BBX 11 18 0 0
BITMAP
0080
3F80
3F00
0000
3180
3F00
1E00
0000
1F00
7380
7380
6380
0FC0
3BC0
73C0
F3C0
7FE0
7BC0
ENDCHAR
STARTCHAR uni1EB6
ENCODING 7862
SWIDTH 680 0
DWIDTH 14 0
BBX 13 22 0 -5
BITMAP
1840
0FC0
0780
0000
0300
0780
0780
0780
0BC0
0BC0
09C0
11E0
1FE0
10E0
20F0
20F0
F1F8
0000
0200
0700
0700
0300
ENDCHAR
STARTCHAR uni1EB7
ENCODING 7863
SWIDTH 540 0
DWIDTH 11 0
BBX 11 20 0 -5
BITMAP
2180
3180
1F00
0E00
0000
1F00
7380
7380
6380
0FC0
3BC0
73C0
F3C0
7FE0
7BC0
0000
0C00
0E00
1E00
0C00
ENDCHAR
STARTCHAR uni1EB8
ENCODING 7864
SWIDTH 591 0
DWIDTH 12 0
BBX 10 18 1 -5
BITMAP
FFC0
78C0
78C0
7800
7900
7900
7F00
7900
7800
7800
78C0
78C0
FFC0
0000
0C00
1E00
1E00
0C00
ENDCHAR
STARTCHAR uni1EB9
ENCODING 7865
SWIDTH 526 0
DWIDTH 11 0
BBX 10 15 0 -5
BITMAP
1F00
3B80
79C0
71C0
FFC0
F000
7800
7840
3FC0
1F80
0000
0400
0E00
0E00
0C00
ENDCHAR
STARTCHAR uni1EBA
ENCODING 7866
SWIDTH 591 0
DWIDTH 12 0
BBX 10 18 1 0
BITMAP
0C00
0E00
0600
0C00
0000
FFC0
78C0
78C0
7800
7900
7900
7F00
7900
7800
7800
78C0
78C0
FFC0
ENDCHAR
STARTCHAR uni1EBB
ENCODING 7867
SWIDTH 526 0
DWIDTH 11 0
BBX 10 16 0 0
BITMAP
0C00
0E00
0700
0600
0400
0000
1F00
3B80
79C0
71C0
FFC0
F000
7800
7840
3FC0
1F80
ENDCHAR
STARTCHAR uni1EBC
ENCODING 7868
SWIDTH 591 0
DWIDTH 12 0
BBX 10 17 1 0
BITMAP
3D80
3F00
6700
0000
FFC0
78C0
78C0
7800
7900
7900
7F00
7900
7800
7800
78C0
78C0
FFC0
ENDCHAR
STARTCHAR uni1EBD
ENCODING 7869
SWIDTH 526 0
DWIDTH 11 0
BBX 10 15 0 0
BITMAP
1880
3F80
3F80
2200
0000
1F00
3B80
79C0
71C0
FFC0
F000
7800
7840
3FC0
1F80
ENDCHAR
STARTCHAR uni1EBE
ENCODING 7870
SWIDTH 591 0
DWIDTH 12 0
BBX 11 19 1 0
BITMAP
0060
0C60
1EE0
3F00
7180
4080
FFC0
78C0
78C0
7800
7900
7900
7F00
7900
7800
7800
78C0
78C0
FFC0
ENDCHAR
STARTCHAR uni1EBF
ENCODING 7871
SWIDTH 526 0
DWIDTH 11 0
BBX 11 16 0 0
BITMAP
0060
0EE0
1F40
3B80
20C0
0000
1F00
3B80
79C0
71C0
FFC0
F000
7800
7840
3FC0
1F80
ENDCHAR
STARTCHAR uni1EC0
ENCODING 7872
SWIDTH 591 0
DWIDTH 12 0
BBX 11 19 0 0
BITMAP
C000
E600
6F00
1F80
38C0
2040
7FE0
3C60
3C60
3C00
3C80
3C80
3F80
3C80
3C00
3C00
3C60
3C60
7FE0
ENDCHAR
STARTCHAR uni1EC1
ENCODING 7873
SWIDTH 526 0
DWIDTH 11 0
BBX 10 16 0 0
BITMAP
C000
EE00
5F00
3B80
6080
0000
1F00
3B80
79C0
71C0
FFC0
F000
7800
7840
3FC0
1F80
ENDCHAR
STARTCHAR uni1EC2
ENCODING 7874
SWIDTH 591 0
DWIDTH 12 0
BBX 11 20 1 0
BITMAP
00C0
01E0
0C60
1EC0
3F00
7180
4080
FFC0
78C0
78C0
7800
7900
7900
7F00
7900
7800
7800
78C0
78C0
FFC0
ENDCHAR
STARTCHAR uni1EC3
ENCODING 7875
SWIDTH 526 0
DWIDTH 11 0
BBX 12 18 0 0
BITMAP
00C0
00E0
0070
0E20
1F40
3B80
6080
0000
1F00
3B80
79C0
71C0
FFC0
F000
7800
7840
3FC0
1F80
ENDCHAR
STARTCHAR uni1EC4
ENCODING 7876
SWIDTH 591 0
DWIDTH 12 0
BBX 10 20 1 0
BITMAP
3D80
3F00
6200
0E00
1F00
7380
4080
FFC0
78C0
78C0
7800
7900
7900
7F00
7900
7800
7800
78C0
78C0
FFC0
ENDCHAR
STARTCHAR uni1EC5
ENCODING 7877
SWIDTH 526 0
DWIDTH 11 0
BBX 10 18 0 0
BITMAP
0080
3F80
3F00
0000
0E00
3F00
7180
0000
1F00
3B80
79C0
71C0
FFC0
F000
7800
7840
3FC0
1F80
ENDCHAR
STARTCHAR uni1EC6
ENCODING 7878
SWIDTH 591 0
DWIDTH 12 0
BBX 10 23 1 -5
BITMAP
0C00
1E00
3F00
7180
2080
FFC0
78C0
78C0
7800
7900
7900
7F00
7900
7800
7800
78C0
78C0
FFC0
0000
0C00
1E00
1E00
0C00
ENDCHAR
STARTCHAR uni1EC7
ENCODING 7879
SWIDTH 526 0
DWIDTH 11 0
BBX 10 20 0 -5
BITMAP
0E00
0F00
1B80
3080
0000
1F00
3B80
79C0
71C0
FFC0
F000
7800
7840
3FC0
1F80
0000
0400
0E00
0E00
0C00
ENDCHAR
STARTCHAR uni1EC8
ENCODING 7880
SWIDTH 395 0
DWIDTH 8 0
BBX 6 18 1 0
BITMAP
30
78
18
30
00
FC
78
78
78
78
78
78
78
78
78
78
78
FC
ENDCHAR
STARTCHAR uni1EC9
ENCODING 7881
SWIDTH 324 0
DWIDTH 6 0
BBX 6 16 0 0
BITMAP
30
38
18
18
30
00
18
F8
78
78
78
78
78
78
78
7C
ENDCHAR
STARTCHAR uni1ECA
ENCODING 7882
SWIDTH 395 0
DWIDTH 8 0
BBX 6 18 1 -5
BITMAP
FC
78
78
78
78
78
78
78
78
78
78
78
FC
00
30
78
78
30
ENDCHAR
STARTCHAR uni1ECB
ENCODING 7883
SWIDTH 324 0
DWIDTH 6 0
BBX 6 20 0 -5
BITMAP
30
38
78
30
00
18
F8
78
78
78
78
78
78
78
7C
00
30
78
78
30
ENDCHAR
STARTCHAR uni1ECC
ENCODING 7884
SWIDTH 700 0
DWIDTH 14 0
BBX 12 18 1 -5
BITMAP
1F80
79E0
70E0
F0F0
F0F0
F0F0
F0F0
F0F0
F0F0
F0F0
70E0
79E0
1F80
0000
0600
0F00
0F00
0600
ENDCHAR
STARTCHAR uni1ECD
ENCODING 7885
SWIDTH 572 0
DWIDTH 11 0
BBX 11 15 0 -5
BITMAP
1F00
3BC0
79C0
71E0
F1E0
F1E0
71E0
79E0
39C0
1F80
0000
0600
0E00
0F00
0600
ENDCHAR
STARTCHAR uni1ECE
ENCODING 7886
SWIDTH 700 0
DWIDTH 14 0
BBX 12 18 1 0
BITMAP
0700
0700
0300
0600
0000
1F80
79E0
70E0
F0F0
F0F0
F0F0
F0F0
F0F0
F0F0
F0F0
70E0
79E0
1F80
ENDCHAR
STARTCHAR uni1ECF
ENCODING 7887
SWIDTH 572 0
DWIDTH 11 0
BBX 11 16 0 0
BITMAP
0600
0F00
0300
0300
0600
0000
1F00
3BC0
79C0
71E0
F1E0
F1E0
71E0
79E0
39C0
1F80
ENDCHAR
STARTCHAR uni1ED0
ENCODING 7888
SWIDTH 700 0
DWIDTH 14 0
BBX 12 19 1 0
BITMAP
0030
0670
0F70
1F80
39C0
2040
1F80
79E0
70E0
F0F0
F0F0
F0F0
F0F0
F0F0
F0F0
F0F0
70E0
79E0
1F80
ENDCHAR
STARTCHAR uni1ED1
ENCODING 7889
SWIDTH 572 0
DWIDTH 11 0
BBX 11 16 0 0
BITMAP
0060
0EE0
1F40
1B80
30C0
0000
1F00
3BC0
79C0
71E0
F1E0
F1E0
71E0
79E0
39C0
1F80
ENDCHAR
STARTCHAR uni1ED2
ENCODING 7890
SWIDTH 700 0
DWIDTH 14 0
BBX 12 19 1 0
BITMAP
C000
E600
EF00
1F80
39C0
2040
1F80
79E0
70E0
F0F0
F0F0
F0F0
F0F0
F0F0
F0F0
F0F0
70E0
79E0
1F80
ENDCHAR
STARTCHAR uni1ED3
ENCODING 7891
SWIDTH 572 0
DWIDTH 11 0
BBX 11 16 0 0
BITMAP
C000
EE00
3F00
1B80
30C0
0000
1F00
3BC0
79C0
71E0
F1E0
F1E0
71E0
79E0
39C0
1F80
ENDCHAR
STARTCHAR uni1ED4
ENCODING 7892
SWIDTH 700 0
DWIDTH 14 0
BBX 12 20 1 0
BITMAP
00E0
00F0
0630
0F60
1F80
39C0
2040
1F80
79E0
70E0
F0F0
F0F0
F0F0
F0F0
F0F0
F0F0
F0F0
70E0
79E0
1F80
ENDCHAR
STARTCHAR uni1ED5
ENCODING 7893
SWIDTH 572 0
DWIDTH 11 0
BBX 12 18 0 0
BITMAP
0040
0070
00F0
0E30
1F60
1B80
30C0
0000
1F00
3BC0
79C0
71E0
F1E0
F1E0
71E0
79E0
39C0
1F80
ENDCHAR
STARTCHAR uni1ED6
ENCODING 7894
SWIDTH 700 0
DWIDTH 14 0
BBX 12 20 1 0
BITMAP
1EC0
1F80
3100
0600
1F80
39C0
2040
1F80
79E0
70E0
F0F0
F0F0
F0F0
F0F0
F0F0
F0F0
F0F0
70E0
79E0
1F80
ENDCHAR
STARTCHAR uni1ED7
ENCODING 7895
SWIDTH 572 0
DWIDTH 11 0
BBX 11 18 0 0
BITMAP
0080
1F80
3F80
0000
0F00
1F80
30C0
0000
1F00
3BC0
79C0
71E0
F1E0
F1E0
71E0
79E0
39C0
1F80
ENDCHAR
STARTCHAR uni1ED8
ENCODING 7896
SWIDTH 700 0
DWIDTH 14 0
BBX 12 23 1 -5
BITMAP
0600
0F00
1F80
39C0
2040
1F80
79E0
70E0
F0F0
F0F0
F0F0
F0F0
F0F0
F0F0
F0F0
70E0
79E0
1F80
0000
0600
0F00
0F00
0600
ENDCHAR
STARTCHAR uni1ED9
ENCODING 7897
SWIDTH 572 0
DWIDTH 11 0
BBX 11 20 0 -5
BITMAP
0E00
0F00
1B80
3080
0000
1F00
3BC0
79C0
71E0
F1E0
F1E0
71E0
79E0
39C0
1F80
0000
0600
0E00
0F00
0600
ENDCHAR
STARTCHAR uni1EDA
ENCODING 7898
SWIDTH 700 0
DWIDTH 14 0
BBX 12 18 1 0
BITMAP
0080
0380
07B0
0E30
0030
1F90
79E0
70E0
F0F0
F0F0
F0F0
F0F0
F0F0
F0F0
F0F0
70E0
79E0
1F80
ENDCHAR
STARTCHAR uni1EDB
ENCODING 7899
SWIDTH 572 0
DWIDTH 11 0
BBX 11 16 0 0
BITMAP
0100
0380
0380
0760
0460
0060
1F20
3BC0
79C0
71E0
F1E0
F1E0
71E0
79E0
39C0
1F80
ENDCHAR
STARTCHAR uni1EDC
ENCODING 7900
SWIDTH 700 0
DWIDTH 14 0
BBX 12 18 1 0
BITMAP
0800
1C00
1E30
0330
0030
1F90
79E0
70E0
F0F0
F0F0
F0F0
F0F0
F0F0
F0F0
F0F0
70E0
79E0
1F80
ENDCHAR
STARTCHAR uni1EDD
ENCODING 7901
SWIDTH 572 0
DWIDTH 11 0
BBX 11 16 0 0
BITMAP
1800
1800
1C00
0E60
0260
0060
1F20
3BC0
79C0
71E0
F1E0
F1E0
71E0
79E0
39C0
1F80
ENDCHAR
STARTCHAR uni1EDE
ENCODING 7902
SWIDTH 700 0
DWIDTH 14 0
BBX 12 18 1 0
BITMAP
0600
0F00
0330
0630
0030
1F90
79E0
70E0
F0F0
F0F0
F0F0
F0F0
F0F0
F0F0
F0F0
70E0
79E0
1F80
ENDCHAR
STARTCHAR uni1EDF
ENCODING 7903
SWIDTH 572 0
DWIDTH 11 0
BBX 11 16 0 0
BITMAP
0600
0F00
0300
0360
0660
0060
1F20
3BC0
79C0
71E0
F1E0
F1E0
71E0
79E0
39C0
1F80
ENDCHAR
STARTCHAR uni1EE0
ENCODING 7904
SWIDTH 700 0
DWIDTH 14 0
BBX 12 17 1 0
BITMAP
1CC0
1FB0
33B0
0030
1F90
79E0
70E0
F0F0
F0F0
F0F0
F0F0
F0F0
F0F0
F0F0
70E0
79E0
1F80
ENDCHAR
STARTCHAR uni1EE1
ENCODING 7905
SWIDTH 572 0
DWIDTH 11 0
BBX 11 15 0 0
BITMAP
0880
3F80
3FE0
2360
0060
1F20
3BC0
79C0
71E0
F1E0
F1E0
71E0
79E0
39C0
1F80
ENDCHAR
STARTCHAR uni1EE2
ENCODING 7906
SWIDTH 700 0
DWIDTH 14 0
BBX 12 21 1 -5
BITMAP
0030
0030
0030
1F90
79E0
70E0
F0F0
F0F0
F0F0
F0F0
F0F0
F0F0
F0F0
70E0
79E0
1F80
0000
0600
0F00
0F00
0600
ENDCHAR
STARTCHAR uni1EE3
ENCODING 7907
SWIDTH 572 0
DWIDTH 11 0
BBX 11 18 0 -5
BITMAP
0060
0060
0060
1F20
3BC0
79C0
71E0
F1E0
F1E0
71E0
79E0
39C0
1F80
0000
0600
0E00
0F00
0600
ENDCHAR
STARTCHAR uni1EE4
ENCODING 7908
SWIDTH 732 0
DWIDTH 15 0
BBX 14 18 0 -5
BITMAP
FE7C
3C18
3C18
3C18
3C18
3C18
3C18
3C18
3C18
3C10
3E30
1FF0
0FE0
0000
0100
0380
0380
0300
ENDCHAR
STARTCHAR uni1EE5
ENCODING 7909
SWIDTH 617 0
DWIDTH 12 0
BBX 12 15 0 -5
BITMAP
38E0
FBE0
79E0
79E0
79E0
79E0
79E0
79E0
3FE0
3FF0
0000
0200
0700
0700
0300
ENDCHAR
STARTCHAR uni1EE6
ENCODING 7910
SWIDTH 732 0
DWIDTH 15 0
BBX 14 18 0 0
BITMAP
01C0
01C0
0040
0080
0000
FE7C
3C18
3C18
3C18
3C18
3C18
3C18
3C18
3C18
3C10
3E30
1FF0
0FE0
ENDCHAR
STARTCHAR uni1EE7
ENCODING 7911
SWIDTH 617 0
DWIDTH 12 0
BBX 12 16 0 0
BITMAP
0600
0700
0300
0700
0200
0000
38E0
FBE0
79E0
79E0
79E0
79E0
79E0
79E0
3FE0
3FF0
ENDCHAR
STARTCHAR uni1EE8
ENCODING 7912
SWIDTH 732 0
DWIDTH 15 0
BBX 15 18 0 0
BITMAP
0020
0070
00F6
01C6
0002
FE7C
3C18
3C18
3C18
3C18
3C18
3C18
3C18
3C18
3C10
3E30
1FF0
0FE0
ENDCHAR
STARTCHAR uni1EE9
ENCODING 7913
SWIDTH 617 0
DWIDTH 12 0
BBX 14 16 0 0
BITMAP
0180
0380
0380
070C
041C
000C
38EC
FBF8
79E0
79E0
79E0
79E0
79E0
79E0
3FE0
3FF0
ENDCHAR
STARTCHAR uni1EEA
ENCODING 7914
SWIDTH 732 0
DWIDTH 15 0
BBX 15 18 0 0
BITMAP
0400
0E00
0F06
0386
0002
FE7C
3C18
3C18
3C18
3C18
3C18
3C18
3C18
3C18
3C10
3E30
1FF0
0FE0
ENDCHAR
STARTCHAR uni1EEB
ENCODING 7915
SWIDTH 617 0
DWIDTH 12 0
BBX 14 16 0 0
BITMAP
1800
1C00
1C00
0E0C
021C
000C
38EC
FBF8
79E0
79E0
79E0
79E0
79E0
79E0
3FE0
3FF0
ENDCHAR
STARTCHAR uni1EEC
ENCODING 7916
SWIDTH 732 0
DWIDTH 15 0
BBX 15 18 0 0
BITMAP
00C0
01E0
0066
00C6
0002
FE7C
3C18
3C18
3C18
3C18
3C18
3C18
3C18
3C18
3C10
3E30
1FF0
0FE0
ENDCHAR
STARTCHAR uni1EED
ENCODING 7917
SWIDTH 617 0
DWIDTH 12 0
BBX 14 16 0 0
BITMAP
0600
0700
0300
030C
061C
000C
38EC
FBF8
79E0
79E0
79E0
79E0
79E0
79E0
3FE0
3FF0
ENDCHAR
STARTCHAR uni1EEE
ENCODING 7918
SWIDTH 732 0
DWIDTH 15 0
BBX 15 17 0 0
BITMAP
0390
07F6
04E6
0002
FE7C
3C18
3C18
3C18
3C18
3C18
3C18
3C18
3C18
3C10
3E30
1FF0
0FE0
ENDCHAR
STARTCHAR uni1EEF
ENCODING 7919
SWIDTH 617 0
DWIDTH 12 0
BBX 14 15 0 0
BITMAP
0C40
1FC0
1F8C
111C
000C
38EC
FBF8
79E0
79E0
79E0
79E0
79E0
79E0
3FE0
3FF0
ENDCHAR
STARTCHAR uni1EF0
ENCODING 7920
SWIDTH 732 0
DWIDTH 15 0
BBX 15 21 0 -5
BITMAP
0006
0006
0002
FE7C
3C18
3C18
3C18
3C18
3C18
3C18
3C18
3C18
3C10
3E30
1FF0
0FE0
0000
0300
0780
0780
0300
ENDCHAR
STARTCHAR uni1EF1
ENCODING 7921
SWIDTH 617 0
DWIDTH 12 0
BBX 14 18 0 -5
BITMAP
000C
001C
000C
38EC
FBF8
79E0
79E0
79E0
79E0
79E0
79E0
3FE0
3FF0
0000
0600
0700
0F00
0600
ENDCHAR
STARTCHAR Ygrave
ENCODING 7922
SWIDTH 621 0
DWIDTH 12 0
BBX 12 18 0 0
BITMAP
0800
1C00
1E00
0300
0000
FEF0
7C20
3C60
3E40
1EC0
1E80
0F80
0F00
0F00
0F00
0F00
0F00
1FC0
ENDCHAR
STARTCHAR ygrave
ENCODING 7923
SWIDTH 543 0
DWIDTH 11 0
BBX 11 21 0 -5
BITMAP
1800
1800
1C00
0E00
0200
0000
FDE0
78C0
7880
3D80
3D00
1D00
1F00
1E00
0E00
0C00
0400
0400
F800
F800
6000
ENDCHAR
STARTCHAR uni1EF4
ENCODING 7924
SWIDTH 621 0
DWIDTH 12 0
BBX 12 18 0 -5
BITMAP
FEF0
7C20
3C60
3E40
1EC0
1E80
0F80
0F00
0F00
0F00
0F00
0F00
1FC0
0000
0600
0F00
0F00
0600
ENDCHAR
STARTCHAR uni1EF5
ENCODING 7925
SWIDTH 543 0
DWIDTH 11 0
BBX 11 15 0 -5
BITMAP
FDE0
78C0
7880
3D80
3D00
1D00
1F00
1E00
0E00
0C00
0400
0480
F9C0
F9C0
60C0
ENDCHAR
STARTCHAR uni1EF6
ENCODING 7926
SWIDTH 621 0
DWIDTH 12 0
BBX 12 18 0 0
BITMAP
0380
03C0
0080
0100
0000
FEF0
7C20
3C60
3E40
1EC0
1E80
0F80
0F00
0F00
0F00
0F00
0F00
1FC0
ENDCHAR
STARTCHAR uni1EF7
ENCODING 7927
SWIDTH 543 0
DWIDTH 11 0
BBX 11 21 0 -5
BITMAP
0600
0700
0300
0300
0600
0000
FDE0
78C0
7880
3D80
3D00
1D00
1F00
1E00
0E00
0C00
0400
0400
F800
F800
6000
ENDCHAR
STARTCHAR uni1EF8
ENCODING 7928
SWIDTH 621 0
DWIDTH 12 0
BBX 12 17 0 0
BITMAP
0E60
0FC0
19C0
0000
FEF0
7C20
3C60
3E40
1EC0
1E80
0F80
0F00
0F00
0F00
0F00
0F00
1FC0
ENDCHAR
STARTCHAR uni1EF9
ENCODING 7929
SWIDTH 543 0
DWIDTH 11 0
BBX 11 20 0 -5
BITMAP
08C0
1F80
3F80
1100
0000
FDE0
78C0
7880
3D80
3D00
1D00
1F00
1E00
0E00
0C00
0400
0400
F800
F800
6000
ENDCHAR
STARTCHAR uni2007
ENCODING 8199
SWIDTH 560 0
DWIDTH 11 0
BBX 1 1 0 0
BITMAP
00
ENDCHAR
STARTCHAR hyphen
ENCODING 8208
SWIDTH 350 0
DWIDTH 7 0
BBX 5 2 1 4
BITMAP
F8
F8
ENDCHAR
STARTCHAR figuredash
ENCODING 8210
SWIDTH 560 0
DWIDTH 11 0
BBX 9 2 1 4
BITMAP
FF80
FF80
ENDCHAR
STARTCHAR endash
ENCODING 8211
SWIDTH 550 0
DWIDTH 11 0
BBX 9 2 1 4
BITMAP
FF80
FF80
ENDCHAR
STARTCHAR emdash
ENCODING 8212
SWIDTH 850 0
DWIDTH 17 0
BBX 15 2 1 4
BITMAP
FFFE
FFFE
ENDCHAR
STARTCHAR uni2015
ENCODING 8213
SWIDTH 850 0
DWIDTH 17 0
BBX 15 2 1 4
BITMAP
FFFE
FFFE
ENDCHAR
STARTCHAR quoteleft
ENCODING 8216
SWIDTH 218 0
DWIDTH 4 0
BBX 4 7 0 8
BITMAP
10
30
40
E0
F0
70
20
ENDCHAR
STARTCHAR quoteright
ENCODING 8217
SWIDTH 218 0
DWIDTH 4 0
BBX 4 7 0 8
BITMAP
60
F0
F0
70
30
60
80
ENDCHAR
STARTCHAR quotesinglbase
ENCODING 8218
SWIDTH 218 0
DWIDTH 4 0
BBX 4 7 0 -3
BITMAP
60
F0
F0
70
30
60
80
ENDCHAR
STARTCHAR quotedblleft
ENCODING 8220
SWIDTH 436 0
DWIDTH 9 0
BBX 8 7 0 8
BITMAP
11
33
46
E7
F7
77
22
ENDCHAR
STARTCHAR quotedblright
ENCODING 8221
SWIDTH 436 0
DWIDTH 9 0
BBX 8 7 0 8
BITMAP
62
F7
F7
73
33
66
84
ENDCHAR
STARTCHAR quotedblbase
ENCODING 8222
SWIDTH 436 0
DWIDTH 9 0
BBX 8 7 0 -3
BITMAP
62
F7
F7
73
33
66
84
ENDCHAR
STARTCHAR dagger
ENCODING 8224
SWIDTH 540 0
DWIDTH 11 0
BBX 9 16 1 -2
BITMAP
1C00
1C00
1C00
EF80
FF80
EB80
1C00
1C00
1C00
1C00
1C00
1C00
1C00
1800
0800
0800
ENDCHAR
STARTCHAR daggerdbl
ENCODING 8225
SWIDTH 540 0
DWIDTH 11 0
BBX 9 16 1 -2
BITMAP
1C00
1C00
1C00
EF80
FF80
EB80
1C00
1C00
1C00
1C00
EB80
FF80
EB80
1C00
1C00
1C00
ENDCHAR
STARTCHAR bullet
ENCODING 8226
SWIDTH 340 0
DWIDTH 7 0
BBX 5 5 1 4
BITMAP
F0
F8
F8
F8
F8
ENDCHAR
STARTCHAR twodotenleader
ENCODING 8229
SWIDTH 600 0
DWIDTH 12 0
BBX 10 4 1 0
BITMAP
6180
F3C0
F3C0
F3C0
ENDCHAR
STARTCHAR ellipsis
ENCODING 8230
SWIDTH 900 0
DWIDTH 18 0
BBX 16 4 1 0
BITMAP
6186
F3CF
F3CF
F3CF
ENDCHAR
STARTCHAR perthousand
ENCODING 8240
SWIDTH 1231 0
DWIDTH 25 0
BBX 23 14 1 -1
BITMAP
781800
CC1000
CC3000
CC6000
CC4000
CCDC38
CDB66C
793766
037766
067766
047766
0C366C
181C38
100000
ENDCHAR
STARTCHAR uni2032
ENCODING 8242
SWIDTH 259 0
DWIDTH 5 0
BBX 3 8 1 7
BITMAP
40
E0
E0
E0
E0
C0
C0
40
ENDCHAR
STARTCHAR uni2033
ENCODING 8243
SWIDTH 491 0
DWIDTH 10 0
BBX 8 8 1 7
BITMAP
42
E7
E7
E7
E6
C6
C6
44
ENDCHAR
STARTCHAR guilsinglleft
ENCODING 8249
SWIDTH 354 0
DWIDTH 7 0
BBX 6 10 0 0
BITMAP
04
0C
18
70
E0
F0
30
18
0C
04
ENDCHAR
STARTCHAR guilsinglright
ENCODING 8250
SWIDTH 354 0
DWIDTH 7 0
BBX 6 10 1 0
BITMAP
80
C0
60
38
1C
1C
38
60
C0
80
ENDCHAR
STARTCHAR exclamdbl
ENCODING 8252
SWIDTH 700 0
DWIDTH 14 0
BBX 12 13 1 0
BITMAP
70E0
F9F0
79E0
79E0
70E0
70E0
30C0
2040
0000
30C0
79E0
79E0
70E0
ENDCHAR
STARTCHAR fraction
ENCODING 8260
SWIDTH 140 0
DWIDTH 3 0
BBX 10 14 -4 -1
BITMAP
0040
00C0
0080
0100
0300
0200
0400
0C00
1800
1000
3000
6000
C000
4000
ENDCHAR
STARTCHAR uni2047
ENCODING 8263
SWIDTH 864 0
DWIDTH 17 0
BBX 15 13 1 0
BITMAP
7070
FCFC
7E7E
0606
1E1E
7E7E
7C7C
2020
0000
7030
7878
F878
7070
ENDCHAR
STARTCHAR uni2048
ENCODING 8264
SWIDTH 792 0
DWIDTH 16 0
BBX 13 13 1 0
BITMAP
7078
FC78
7E78
0678
1E78
7E38
7C30
2030
0000
7030
7878
F878
7078
ENDCHAR
STARTCHAR uni2049
ENCODING 8265
SWIDTH 772 0
DWIDTH 15 0
BBX 13 13 1 0
BITMAP
71E0
F9F0
79F8
7808
7078
71F8
31F0
20C0
0000
30C0
79E0
79E0
71E0
ENDCHAR
STARTCHAR zero.sups
ENCODING 8304
SWIDTH 374 0
DWIDTH 7 0
BBX 6 8 1 8
BITMAP
70
D8
CC
CC
CC
CC
D8
70
ENDCHAR
STARTCHAR i.sups
ENCODING 8305
SWIDTH 208 0
DWIDTH 4 0
BBX 4 10 0 8
BITMAP
60
60
00
20
E0
60
60
60
60
F0
ENDCHAR
STARTCHAR four.sups
ENCODING 8308
SWIDTH 374 0
DWIDTH 7 0
BBX 7 8 0 8
BITMAP
0C
1C
2C
2C
4C
FE
0C
0C
ENDCHAR
STARTCHAR five.sups
ENCODING 8309
SWIDTH 374 0
DWIDTH 7 0
BBX 6 8 1 8
BITMAP
7C
7C
80
F8
1C
9C
9C
F8
ENDCHAR
STARTCHAR six.sups
ENCODING 8310
SWIDTH 374 0
DWIDTH 7 0
BBX 6 8 1 8
BITMAP
18
60
E0
F8
CC
CC
CC
78
ENDCHAR
STARTCHAR seven.sups
ENCODING 8311
SWIDTH 374 0
DWIDTH 7 0
BBX 6 8 1 8
BITMAP
FC
FC
08
18
10
30
60
E0
ENDCHAR
STARTCHAR eight.sups
ENCODING 8312
SWIDTH 374 0
DWIDTH 7 0
BBX 6 8 1 8
BITMAP
78
CC
C8
F0
78
DC
CC
F8
ENDCHAR
STARTCHAR nine.sups
ENCODING 8313
SWIDTH 374 0
DWIDTH 7 0
BBX 7 8 0 8
BITMAP
3C
6E
E6
66
3E
0C
18
70
ENDCHAR
STARTCHAR parenleft.sups
ENCODING 8317
SWIDTH 292 0
DWIDTH 6 0
BBX 4 11 1 6
BITMAP
10
20
60
C0
C0
C0
C0
40
60
20
10
ENDCHAR
STARTCHAR parenright.sups
ENCODING 8318
SWIDTH 292 0
DWIDTH 6 0
BBX 4 11 1 6
BITMAP
80
C0
60
60
30
30
30
60
60
C0
80
ENDCHAR
STARTCHAR n.sups
ENCODING 8319
SWIDTH 413 0
DWIDTH 8 0
BBX 8 7 0 8
BITMAP
24
FE
66
66
66
66
FF
ENDCHAR
STARTCHAR zero.subs
ENCODING 8320
SWIDTH 374 0
DWIDTH 7 0
BBX 6 8 1 -4
BITMAP
70
D8
CC
CC
CC
CC
D8
70
ENDCHAR
STARTCHAR one.subs
ENCODING 8321
SWIDTH 374 0
DWIDTH 7 0
BBX 6 8 1 -4
BITMAP
70
B0
30
30
30
30
30
FC
ENDCHAR
STARTCHAR two.subs
ENCODING 8322
SWIDTH 374 0
DWIDTH 7 0
BBX 6 8 1 -4
BITMAP
78
DC
9C
18
30
60
FC
FC
ENDCHAR
STARTCHAR three.subs
ENCODING 8323
SWIDTH 374 0
DWIDTH 7 0
BBX 6 8 1 -4
BITMAP
78
DC
18
78
18
9C
9C
F8
ENDCHAR
STARTCHAR four.subs
ENCODING 8324
SWIDTH 374 0
DWIDTH 7 0
BBX 7 8 0 -4
BITMAP
0C
1C
2C
2C
4C
FE
0C
0C
ENDCHAR
STARTCHAR five.subs
ENCODING 8325
SWIDTH 374 0
DWIDTH 7 0
BBX 6 8 1 -4
BITMAP
7C
7C
80
F8
1C
9C
9C
F8
ENDCHAR
STARTCHAR six.subs
ENCODING 8326
SWIDTH 374 0
DWIDTH 7 0
BBX 6 8 1 -4
BITMAP
18
60
E0
F8
CC
CC
CC
78
ENDCHAR
STARTCHAR seven.subs
ENCODING 8327
SWIDTH 374 0
DWIDTH 7 0
BBX 6 8 1 -4
BITMAP
FC
FC
08
18
10
30
60
E0
ENDCHAR
STARTCHAR eight.subs
ENCODING 8328
SWIDTH 374 0
DWIDTH 7 0
BBX 6 8 1 -4
BITMAP
78
CC
C8
F0
78
DC
CC
F8
ENDCHAR
STARTCHAR nine.subs
ENCODING 8329
SWIDTH 374 0
DWIDTH 7 0
BBX 7 8 0 -4
BITMAP
3C
6E
E6
66
3E
0C
18
70
ENDCHAR
STARTCHAR parenleft.subs
ENCODING 8333
SWIDTH 292 0
DWIDTH 6 0
BBX 4 11 1 -6
BITMAP
10
20
60
C0
C0
C0
C0
40
60
20
10
ENDCHAR
STARTCHAR parenright.subs
ENCODING 8334
SWIDTH 292 0
DWIDTH 6 0
BBX 4 11 1 -6
BITMAP
80
C0
60
60
30
30
30
60
60
C0
80
ENDCHAR
STARTCHAR colonmonetary
ENCODING 8353
SWIDTH 560 0
DWIDTH 11 0
BBX 11 17 0 -2
BITMAP
0280
0500
0780
1DC0
3D60
7560
7500
F500
E500
EA00
FA00
7A00
7AC0
3AC0
1F80
0A00
0A00
ENDCHAR
STARTCHAR lira
ENCODING 8356
SWIDTH 560 0
DWIDTH 11 0
BBX 9 13 1 0
BITMAP
1E00
7B80
7380
7180
7000
FF00
7000
3000
FF00
7000
FF80
FF80
FF80
ENDCHAR
STARTCHAR uni20A6
ENCODING 8358
SWIDTH 560 0
DWIDTH 11 0
BBX 11 13 0 0
BITMAP
FDE0
FDE0
3C80
3E80
3E80
FFE0
2E80
FFE0
2F80
2780
2780
2780
FB80
ENDCHAR
STARTCHAR peseta
ENCODING 8359
SWIDTH 560 0
DWIDTH 11 0
BBX 11 13 0 0
BITMAP
F800
FF80
39C0
39C0
FFE0
39C0
39C0
3F80
3800
3800
3800
3800
FE00
ENDCHAR
STARTCHAR uni20A9
ENCODING 8361
SWIDTH 560 0
DWIDTH 11 0
BBX 11 13 0 0
BITMAP
F8E0
F8E0
7640
7740
7740
FFE0
3780
3B80
3B80
3B80
3B80
3B80
3300
ENDCHAR
STARTCHAR dong
ENCODING 8363
SWIDTH 560 0
DWIDTH 11 0
BBX 10 13 1 0
BITMAP
0F80
0780
7FC0
1780
7F80
F780
E780
E780
F780
F780
7F80
0000
FF80
ENDCHAR
STARTCHAR Euro
ENCODING 8364
SWIDTH 560 0
DWIDTH 11 0
BBX 11 13 0 0
BITMAP
0780
1CC0
38E0
38E0
3800
FF80
7800
FF80
FF80
3840
38E0
1CE0
0FC0
ENDCHAR
STARTCHAR uni20AE
ENCODING 8366
SWIDTH 560 0
DWIDTH 11 0
BBX 11 12 0 0
BITMAP
FFE0
CF60
CF60
0F40
0F80
0F00
3F80
0F80
1F00
2F00
0F00
3F80
ENDCHAR
STARTCHAR uni20B1
ENCODING 8369
SWIDTH 560 0
DWIDTH 11 0
BBX 11 13 0 0
BITMAP
F800
FF80
39C0
FFE0
39C0
FFE0
39C0
3F80
3800
3800
3800
3800
FE00
ENDCHAR
STARTCHAR uni20B2
ENCODING 8370
SWIDTH 560 0
DWIDTH 11 0
BBX 11 17 0 -2
BITMAP
0200
0200
0780
1CC0
38C0
70C0
7000
7000
F000
77E0
71C0
71C0
71C0
39C0
1FC0
0200
0200
ENDCHAR
STARTCHAR uni20B4
ENCODING 8372
SWIDTH 560 0
DWIDTH 11 0
BBX 10 13 1 0
BITMAP
1E00
6700
E380
6380
0780
FFC0
1E00
FFC0
FFC0
F100
F380
7380
3F00
ENDCHAR
STARTCHAR uni20B5
ENCODING 8373
SWIDTH 560 0
DWIDTH 11 0
BBX 10 17 1 -2
BITMAP
0400
0400
0F00
3D80
7580
7580
F400
E400
E400
E400
F400
F400
75C0
7580
1F80
0400
0400
ENDCHAR
STARTCHAR uni20B8
ENCODING 8376
SWIDTH 560 0
DWIDTH 11 0
BBX 11 13 0 0
BITMAP
FFE0
FFE0
0000
FFE0
CF60
CF60
0F00
0F00
0F00
0F00
0F00
0F00
3F80
ENDCHAR
STARTCHAR uni20B9
ENCODING 8377
SWIDTH 560 0
DWIDTH 11 0
BBX 9 13 1 0
BITMAP
FF80
FF80
1E00
FF80
0E00
1E00
3C00
F800
1E00
1E00
1E00
0E00
0F80
ENDCHAR
STARTCHAR uni20BA
ENCODING 8378
SWIDTH 560 0
DWIDTH 11 0
BBX 11 13 0 0
BITMAP
FF00
FF00
3C00
3D00
3E00
3C00
FD00
BE60
3C60
FC60
BC60
3CC0
3F80
ENDCHAR
STARTCHAR uni20BD
ENCODING 8381
SWIDTH 560 0
DWIDTH 11 0
BBX 11 13 0 0
BITMAP
FC00
FFC0
3DE0
3CE0
3CE0
3CE0
3DC0
FF80
3C00
FF80
3C00
3C00
FE00
ENDCHAR
STARTCHAR uni20BF
ENCODING 8383
SWIDTH 560 0
DWIDTH 11 0
BBX 11 17 0 -2
BITMAP
1A00
1A00
FE00
FFC0
39C0
39C0
39C0
3B80
3F00
39C0
39E0
39E0
39E0
3BC0
FF80
1A00
1A00
ENDCHAR
STARTCHAR uni2113
ENCODING 8467
SWIDTH 577 0
DWIDTH 12 0
BBX 10 15 1 0
BITMAP
0E00
3F00
3380
7380
7380
F380
F380
F300
F600
F600
FC00
7800
7840
7EC0
9F80
ENDCHAR
STARTCHAR uni2116
ENCODING 8470
SWIDTH 1044 0
DWIDTH 21 0
BBX 20 14 0 -1
BITMAP
001C00
7E1C00
1E3C00
1F21C0
1F2360
17A730
17A730
13E730
13E330
11E1E0
10E000
F0E7F0
F067F0
600000
ENDCHAR
STARTCHAR uni2117
ENCODING 8471
SWIDTH 740 0
DWIDTH 15 0
BBX 13 13 1 0
BITMAP
1FC0
3060
5030
CFD8
8EC8
8EC8
8FC8
8F08
8E08
DF18
4030
3060
1FC0
ENDCHAR
STARTCHAR uni2120
ENCODING 8480
SWIDTH 727 0
DWIDTH 15 0
BBX 13 6 1 7
BITMAP
F738
D370
F3F0
7DB0
9DB0
F6F8
ENDCHAR
STARTCHAR trademark
ENCODING 8482
SWIDTH 803 0
DWIDTH 16 0
BBX 14 6 1 7
BITMAP
FF9C
B5D8
31F8
31F8
3158
7B5C
ENDCHAR
STARTCHAR Omega
ENCODING 8486
SWIDTH 744 0
DWIDTH 15 0
BBX 15 13 0 0
BITMAP
1FE0
3C78
3838
783C
783C
783C
783C
7838
3878
DCF6
C6C6
FEFE
FCFC
ENDCHAR
STARTCHAR estimated
ENCODING 8494
SWIDTH 800 0
DWIDTH 16 0
BBX 14 13 1 0
BITMAP
0FC0
3030
6008
6008
E00C
E00C
FFFC
E000
E000
6000
6008
3010
0FE0
ENDCHAR
STARTCHAR onethird
ENCODING 8531
SWIDTH 880 0
DWIDTH 18 0
BBX 16 14 1 -1
BITMAP
7018
F010
7030
7060
7040
70DE
71B7
F906
031E
0606
0427
0C27
183E
1000
ENDCHAR
STARTCHAR twothirds
ENCODING 8532
SWIDTH 880 0
DWIDTH 18 0
BBX 16 14 1 -1
BITMAP
7808
DC18
9C10
1820
3060
60DE
FCB7
FD87
030E
0207
0623
0C37
181E
0800
ENDCHAR
STARTCHAR oneeighth
ENCODING 8539
SWIDTH 880 0
DWIDTH 18 0
BBX 15 14 1 -1
BITMAP
7018
F010
7030
7060
7040
70BE
71A6
F976
023C
061E
0426
0866
183E
1000
ENDCHAR
STARTCHAR threeeighths
ENCODING 8540
SWIDTH 880 0
DWIDTH 18 0
BBX 16 14 1 -1
BITMAP
7818
DC10
1C30
3860
1C40
8CDE
CDB3
7932
033C
061E
0437
0C33
183E
0800
ENDCHAR
STARTCHAR fiveeighths
ENCODING 8541
SWIDTH 880 0
DWIDTH 18 0
BBX 16 14 1 -1
BITMAP
7C18
7C10
4030
7860
1C40
8CDE
DDB3
F932
033C
061E
0437
0C33
183E
0800
ENDCHAR
STARTCHAR seveneighths
ENCODING 8542
SWIDTH 880 0
DWIDTH 18 0
BBX 14 14 2 -1
BITMAP
FC20
FC60
08C0
1880
1180
337C
62CC
E6EC
0C78
083C
18CC
30CC
6078
2000
ENDCHAR
STARTCHAR uni2190
ENCODING 8592
SWIDTH 660 0
DWIDTH 13 0
BBX 13 13 0 -1
BITMAP
0300
0600
0C00
3800
7000
E7F8
FFF8
6038
3000
1800
0C00
0700
0200
ENDCHAR
STARTCHAR arrowup
ENCODING 8593
SWIDTH 660 0
DWIDTH 13 0
BBX 13 13 0 -1
BITMAP
0700
0F80
0FC0
1AE0
3260
6230
C318
0300
0700
0700
0700
0700
0700
ENDCHAR
STARTCHAR uni2192
ENCODING 8594
SWIDTH 660 0
DWIDTH 13 0
BBX 13 13 0 -1
BITMAP
0200
0300
01C0
00E0
0070
FFB8
FFF8
E038
0060
00C0
0180
0300
0200
ENDCHAR
STARTCHAR arrowdown
ENCODING 8595
SWIDTH 660 0
DWIDTH 13 0
BBX 13 13 0 -1
BITMAP
0700
0700
0700
0700
0300
8308
C318
6230
3260
1AC0
0F80
0700
0300
ENDCHAR
STARTCHAR uni2196
ENCODING 8598
SWIDTH 660 0
DWIDTH 13 0
BBX 11 11 1 0
BITMAP
7C00
FFC0
7000
7800
4C00
4600
4700
43C0
41E0
40C0
0040
ENDCHAR
STARTCHAR uni2197
ENCODING 8599
SWIDTH 660 0
DWIDTH 13 0
BBX 11 11 1 0
BITMAP
07C0
7FE0
01E0
0360
0740
0E40
1C40
3840
F040
6040
4000
ENDCHAR
STARTCHAR uni2198
ENCODING 8600
SWIDTH 660 0
DWIDTH 13 0
BBX 11 10 1 1
BITMAP
6000
F040
7040
3840
1C40
0E40
0360
01E0
07E0
7FC0
ENDCHAR
STARTCHAR uni2199
ENCODING 8601
SWIDTH 660 0
DWIDTH 13 0
BBX 11 10 1 1
BITMAP
0040
40E0
41C0
4380
4700
4E00
7C00
7000
7E00
FFC0
ENDCHAR
STARTCHAR partialdiff
ENCODING 8706
SWIDTH 576 0
DWIDTH 12 0
BBX 10 13 1 0
BITMAP
1E00
7F00
0380
03C0
03C0
3FC0
73C0
F3C0
E3C0
E380
E380
E700
7E00
ENDCHAR
STARTCHAR Delta
ENCODING 8710
SWIDTH 626 0
DWIDTH 13 0
BBX 11 13 1 0
BITMAP
0E00
0E00
1F00
1F00
1780
2780
2780
63C0
43C0
43E0
81E0
FFE0
FFE0
ENDCHAR
STARTCHAR product
ENCODING 8719
SWIDTH 752 0
DWIDTH 15 0
BBX 13 15 1 -2
BITMAP
FFF8
78F0
78F0
78F0
78F0
78F0
78F0
78F0
78F0
78F0
78F0
78F0
78F0
78F0
FDF8
ENDCHAR
STARTCHAR summation
ENCODING 8721
SWIDTH 581 0
DWIDTH 12 0
BBX 11 15 0 -2
BITMAP
FFE0
7860
7C60
3C60
3E00
1E00
0F00
0E00
0C00
1800
1860
3060
6060
FFE0
FFE0
ENDCHAR
STARTCHAR minus
ENCODING 8722
SWIDTH 550 0
DWIDTH 11 0
BBX 9 2 1 5
BITMAP
FF80
FF80
ENDCHAR
STARTCHAR uni2215
ENCODING 8725
SWIDTH 140 0
DWIDTH 3 0
BBX 10 14 -4 -1
BITMAP
0040
00C0
0080
0100
0300
0200
0400
0C00
1800
1000
3000
6000
C000
4000
ENDCHAR
STARTCHAR uni2219
ENCODING 8729
SWIDTH 300 0
DWIDTH 6 0
BBX 4 4 1 5
BITMAP
60
F0
F0
F0
ENDCHAR
STARTCHAR radical
ENCODING 8730
SWIDTH 580 0
DWIDTH 12 0
BBX 11 17 1 -2
BITMAP
00E0
00E0
00C0
00C0
00C0
01C0
0180
0180
F180
F980
3B00
1B00
1B00
1F00
0E00
0E00
0E00
ENDCHAR
STARTCHAR infinity
ENCODING 8734
SWIDTH 790 0
DWIDTH 16 0
BBX 14 9 1 2
BITMAP
1010
7E78
FFFC
DF84
8784
87C4
CFFC
F9F8
7070
ENDCHAR
STARTCHAR integral
ENCODING 8747
SWIDTH 383 0
DWIDTH 8 0
BBX 11 20 -2 -5
BITMAP
01E0
07E0
0660
0E00
0E00
0E00
0E00
0E00
0E00
0E00
0F00
0F00
0700
0700
0700
0600
0600
EE00
FC00
3000
ENDCHAR
STARTCHAR approxequal
ENCODING 8776
SWIDTH 550 0
DWIDTH 11 0
BBX 9 9 1 2
BITMAP
7080
F980
DF80
8F00
0000
7080
F980
DF80
8F00
ENDCHAR
STARTCHAR notequal
ENCODING 8800
SWIDTH 550 0
DWIDTH 11 0
BBX 9 12 1 0
BITMAP
0100
0300
FF80
FF80
0C00
0800
1800
FF80
FF80
2000
4000
4000
ENDCHAR
STARTCHAR lessequal
ENCODING 8804
SWIDTH 550 0
DWIDTH 11 0
BBX 9 12 1 0
BITMAP
0080
0380
0F00
7C00
F000
F000
7C00
0F00
0380
0080
FF80
FF80
ENDCHAR
STARTCHAR greaterequal
ENCODING 8805
SWIDTH 550 0
DWIDTH 11 0
BBX 9 12 1 0
BITMAP
8000
E000
7800
1F00
0780
0780
1F00
7800
E000
8000
FF80
FF80
ENDCHAR
STARTCHAR uni25A0
ENCODING 9632
SWIDTH 720 0
DWIDTH 14 0
BBX 12 12 1 0
BITMAP
FFF0
FFF0
FFF0
FFF0
FFF0
FFF0
FFF0
FFF0
FFF0
FFF0
FFF0
FFF0
ENDCHAR
STARTCHAR triagup
ENCODING 9650
SWIDTH 620 0
DWIDTH 12 0
BBX 12 11 0 0
BITMAP
0200
0600
0F00
0F80
1F80
1FC0
3FC0
3FE0
7FE0
FFF0
FFF0
ENDCHAR
STARTCHAR uni25B3
ENCODING 9651
SWIDTH 620 0
DWIDTH 12 0
BBX 12 11 0 0
BITMAP
0200
0600
0F00
0F80
1D80
19C0
30C0
3060
6060
FFF0
FFF0
ENDCHAR
STARTCHAR uni25B6
ENCODING 9654
SWIDTH 620 0
DWIDTH 12 0
BBX 11 12 1 -1
BITMAP
E000
F000
FC00
FF00
FFC0
FFE0
FFC0
FF80
FE00
F800
E000
4000
ENDCHAR
STARTCHAR uni25B7
ENCODING 9655
SWIDTH 620 0
DWIDTH 12 0
BBX 11 12 1 -1
BITMAP
E000
F000
FC00
CF00
C3C0
C1E0
C3C0
C780
DE00
F800
E000
4000
ENDCHAR
STARTCHAR triagdn
ENCODING 9660
SWIDTH 620 0
DWIDTH 12 0
BBX 12 11 0 0
BITMAP
FFF0
FFF0
7FF0
7FE0
3FC0
1FC0
1F80
0F80
0F00
0600
0600
ENDCHAR
STARTCHAR uni25BD
ENCODING 9661
SWIDTH 620 0
DWIDTH 12 0
BBX 12 11 0 0
BITMAP
FFF0
FFF0
6070
7060
30C0
19C0
1D80
0F80
0F00
0600
0600
ENDCHAR
STARTCHAR uni25C0
ENCODING 9664
SWIDTH 620 0
DWIDTH 12 0
BBX 11 12 0 -1
BITMAP
0060
01E0
07E0
1FE0
3FE0
FFE0
7FE0
1FE0
07E0
03E0
00E0
0020
ENDCHAR
STARTCHAR uni25C1
ENCODING 9665
SWIDTH 620 0
DWIDTH 12 0
BBX 11 12 0 -1
BITMAP
0060
01E0
07E0
1E60
3C60
F060
7860
1E60
07E0
03E0
00E0
0020
ENDCHAR
STARTCHAR uni25C6
ENCODING 9670
SWIDTH 748 0
DWIDTH 15 0
BBX 15 14 0 -1
BITMAP
0100
0380
07C0
0FE0
1FF0
3FF8
7FFC
FFFE
3FF8
1FF0
0FE0
07C0
0380
0100
ENDCHAR
STARTCHAR uni25C9
ENCODING 9673
SWIDTH 500 0
DWIDTH 10 0
BBX 8 9 1 2
BITMAP
3C
42
99
BD
FF
BD
BD
42
3C
ENDCHAR
STARTCHAR lozenge
ENCODING 9674
SWIDTH 620 0
DWIDTH 12 0
BBX 12 16 0 -1
BITMAP
0200
0600
0F00
0F80
19C0
38C0
70E0
6070
E030
6070
70E0
38C0
1980
0F80
0F00
0600
ENDCHAR
STARTCHAR uni2610
ENCODING 9744
SWIDTH 800 0
DWIDTH 16 0
BBX 14 14 1 -1
BITMAP
FFFC
FFFC
C00C
C00C
C00C
C00C
C00C
C00C
C00C
C00C
C00C
C00C
FFFC
FFFC
ENDCHAR
STARTCHAR uni2611
ENCODING 9745
SWIDTH 800 0
DWIDTH 16 0
BBX 14 19 1 -1
BITMAP
000C
0018
0018
0038
0030
FFFC
FFFC
C06C
C8CC
DCCC
DCCC
CF8C
C78C
C78C
C38C
C30C
C00C
FFFC
FFFC
ENDCHAR
STARTCHAR musicalnote
ENCODING 9834
SWIDTH 570 0
DWIDTH 11 0
BBX 11 15 0 0
BITMAP
0200
0200
0300
0380
03C0
03E0
02E0
0260
0260
0260
0240
7E00
7E00
FC00
7C00
ENDCHAR
STARTCHAR uni2713
ENCODING 10003
SWIDTH 660 0
DWIDTH 13 0
BBX 12 16 1 0
BITMAP
0070
0060
00E0
00C0
01C0
0180
0180
0300
6300
E300
7600
3600
3E00
1C00
1C00
0C00
ENDCHAR
STARTCHAR uni2752
ENCODING 10066
SWIDTH 1000 0
DWIDTH 20 0
BBX 18 18 1 -2
BITMAP
1FFFC0
3FFFC0
7FFFC0
FFFFC0
C003C0
C003C0
C003C0
C003C0
C003C0
C003C0
C003C0
C003C0
C003C0
C003C0
C003C0
C00380
FFFF80
FFFF00
ENDCHAR
STARTCHAR uni2E3A
ENCODING 11834
SWIDTH 1620 0
DWIDTH 32 0
BBX 31 2 1 4
BITMAP
FFFFFFFE
FFFFFFFE
ENDCHAR
STARTCHAR uni2E3B
ENCODING 11835
SWIDTH 2390 0
DWIDTH 48 0
BBX 46 2 1 4
BITMAP
FFFFFFFFFFFC
FFFFFFFFFFFC
ENDCHAR
STARTCHAR f_f
ENCODING 64256
SWIDTH 685 0
DWIDTH 14 0
BBX 16 15 0 0
BITMAP
030C
0FBF
1BF7
38F0
38F0
FFFC
FFFC
78F0
78F0
78F0
78F0
78F0
78F0
78F0
7DF8
ENDCHAR
STARTCHAR f_i
ENCODING 64257
SWIDTH 634 0
DWIDTH 13 0
BBX 12 15 0 0
BITMAP
0180
0FE0
1CE0
3C40
3800
FFF0
FFF0
78E0
78E0
78E0
78E0
78E0
78E0
78E0
7DF0
ENDCHAR
STARTCHAR f_l
ENCODING 64258
SWIDTH 648 0
DWIDTH 13 0
BBX 13 15 0 0
BITMAP
0300
0FF0
1BF0
38F0
38F0
FEF0
FEF0
78F0
78F0
78F0
78F0
78F0
78F0
78F0
7DF8
ENDCHAR
STARTCHAR f_f_i
ENCODING 64259
SWIDTH 954 0
DWIDTH 19 0
BBX 19 15 0 0
BITMAP
030700
0FBB80
1BF380
387100
38F000
FFFFC0
FFFFC0
78F3C0
78F3C0
78F3C0
78F3C0
78F3C0
78F3C0
78F3C0
7DFFE0
ENDCHAR
STARTCHAR f_f_l
ENCODING 64260
SWIDTH 968 0
DWIDTH 19 0
BBX 19 15 0 0
BITMAP
030C00
0FBFC0
1BF7C0
38F3C0
38F3C0
FFFFC0
FFFFC0
78F3C0
78F3C0
78F3C0
78F3C0
78F3C0
78F3C0
78F3C0
7DFFE0
ENDCHAR
STARTCHAR u1F12F
ENCODING 127279
SWIDTH 740 0
DWIDTH 15 0
BBX 13 13 1 0
BITMAP
1FC0
3060
4E30
CB98
89C8
80C8
80C8
80C8
99C8
DB98
4630
3060
1FC0
ENDCHAR
STARTCHAR u1F16A
ENCODING 127338
SWIDTH 803 0
DWIDTH 16 0
BBX 15 6 0 7
BITMAP
773C
7764
7760
5B60
5B62
F73E
ENDCHAR
STARTCHAR u1F16B
ENCODING 127339
SWIDTH 803 0
DWIDTH 16 0
BBX 16 6 0 7
BITMAP
777E
7736
7737
5B37
5B36
F77C
ENDCHAR
STARTCHAR .notdef
ENCODING -1
SWIDTH 640 0
DWIDTH 13 0
BBX 9 13 2 0
BITMAP
FF80
E380
E380
B680
B680
9C80
9880
9C80
B680
B680
E380
C380
FF80
ENDCHAR
STARTCHAR uni00470303
ENCODING -1
SWIDTH 672 0
DWIDTH 13 0
BBX 12 17 1 0
BITMAP
0E40
1FC0
1380
0000
1FE0
7860
7860
F060
F000
F000
F3F0
F3F0
F1E0
F1E0
79E0
79E0
1FE0
ENDCHAR
STARTCHAR uni00670303
ENCODING -1
SWIDTH 553 0
DWIDTH 11 0
BBX 11 19 0 -4
BITMAP
1880
3F80
3F00
6200
0000
3F60
73E0
7380
7380
7380
3F00
6000
7000
7FC0
7FE0
7FE0
C0E0
E1C0
7F80
ENDCHAR
STARTCHAR idieresis.narrow
ENCODING -1
SWIDTH 324 0
DWIDTH 6 0
BBX 6 15 0 0
BITMAP
48
EC
EC
6C
00
18
F8
78
78
78
78
78
78
78
7C
ENDCHAR
STARTCHAR i.trk
ENCODING -1
SWIDTH 324 0
DWIDTH 6 0
BBX 6 15 0 0
BITMAP
30
38
78
30
00
18
F8
78
78
78
78
78
78
78
7C
ENDCHAR
STARTCHAR f_t
ENCODING -1
SWIDTH 697 0
DWIDTH 14 0
BBX 14 15 0 0
BITMAP
0300
0F80
1BB0
3870
3870
FFFC
FFFC
78F0
78F0
78F0
78F0
78F0
78F0
78FC
7E78
ENDCHAR
STARTCHAR zero.slash
ENCODING -1
SWIDTH 560 0
DWIDTH 11 0
BBX 11 13 0 0
BITMAP
0E00
3BE0
39C0
71C0
71C0
73C0
75E0
7DE0
79C0
71C0
71C0
7B80
9F00
ENDCHAR
STARTCHAR zero.lf
ENCODING -1
SWIDTH 540 0
DWIDTH 11 0
BBX 10 13 0 0
BITMAP
0E00
3B80
7380
73C0
71C0
71C0
F1C0
71C0
71C0
71C0
73C0
3B80
1F00
ENDCHAR
STARTCHAR one.lf
ENCODING -1
SWIDTH 372 0
DWIDTH 7 0
BBX 7 13 0 0
BITMAP
04
FC
FC
3C
3C
3C
3C
3C
3C
3C
3C
3C
FE
ENDCHAR
STARTCHAR two.lf
ENCODING -1
SWIDTH 540 0
DWIDTH 11 0
BBX 9 13 1 0
BITMAP
3E00
6F00
E780
E780
4780
0700
0F00
1E00
3800
6000
FF80
FF80
FF80
ENDCHAR
STARTCHAR three.lf
ENCODING -1
SWIDTH 540 0
DWIDTH 11 0
BBX 10 13 0 0
BITMAP
1E00
3780
73C0
73C0
03C0
0780
1E00
0780
03C0
63C0
E3C0
63C0
3F80
ENDCHAR
STARTCHAR four.lf
ENCODING -1
SWIDTH 540 0
DWIDTH 11 0
BBX 10 13 0 0
BITMAP
0380
0780
0780
0F80
1F80
1780
2780
6780
FFC0
FFC0
FFC0
0780
0780
ENDCHAR
STARTCHAR five.lf
ENCODING -1
SWIDTH 540 0
DWIDTH 11 0
BBX 10 12 0 0
BITMAP
3FC0
3FC0
2000
2000
3E00
3F80
03C0
03C0
E3C0
E3C0
63C0
3F00
ENDCHAR
STARTCHAR six.lf
ENCODING -1
SWIDTH 540 0
DWIDTH 11 0
BBX 11 13 0 0
BITMAP
0180
07C0
1E00
3C00
7800
7F80
FFC0
F3C0
F1E0
F1C0
71C0
7BC0
3F80
ENDCHAR
STARTCHAR seven.lf
ENCODING -1
SWIDTH 540 0
DWIDTH 11 0
BBX 9 12 1 0
BITMAP
FF80
FF80
0180
0300
0700
0600
0E00
1C00
1C00
3800
3800
7800
ENDCHAR
STARTCHAR eight.lf
ENCODING -1
SWIDTH 540 0
DWIDTH 11 0
BBX 9 13 1 0
BITMAP
1E00
7700
E380
E380
F300
FE00
7F00
3F80
EF80
E780
E380
E380
7F00
ENDCHAR
STARTCHAR nine.lf
ENCODING -1
SWIDTH 540 0
DWIDTH 11 0
BBX 10 13 0 0
BITMAP
1E00
3B80
73C0
F1C0
F1C0
F1C0
79C0
3FC0
03C0
0380
0700
1E00
7800
ENDCHAR
STARTCHAR zero.lfslash
ENCODING -1
SWIDTH 540 0
DWIDTH 11 0
BBX 11 13 0 0
BITMAP
0E00
3BE0
73C0
73C0
73C0
73C0
F5C0
79C0
79C0
71C0
73C0
FB80
9F00
ENDCHAR
STARTCHAR zero.tosf
ENCODING -1
SWIDTH 560 0
DWIDTH 11 0
BBX 10 11 1 0
BITMAP
1C00
7700
F380
F380
E380
E3C0
E380
E380
F380
7780
3E00
ENDCHAR
STARTCHAR one.tosf
ENCODING -1
SWIDTH 560 0
DWIDTH 11 0
BBX 9 11 1 0
BITMAP
0200
7C00
FC00
1C00
1C00
1C00
1C00
1C00
1C00
3E00
FF80
ENDCHAR
STARTCHAR two.tosf
ENCODING -1
SWIDTH 560 0
DWIDTH 11 0
BBX 9 11 1 0
BITMAP
0E00
7F00
7780
E780
6780
0700
0C00
3800
7F80
7F80
7F80
ENDCHAR
STARTCHAR three.tosf
ENCODING -1
SWIDTH 560 0
DWIDTH 11 0
BBX 10 13 1 -2
BITMAP
1E00
6700
6780
E780
0780
0700
1E00
0780
0780
C3C0
E380
E780
7F00
ENDCHAR
STARTCHAR four.tosf
ENCODING -1
SWIDTH 560 0
DWIDTH 11 0
BBX 11 13 0 -2
BITMAP
0380
0780
0780
0B80
1B80
1380
2380
6380
7FE0
FFE0
FFE0
0380
0380
ENDCHAR
STARTCHAR five.tosf
ENCODING -1
SWIDTH 560 0
DWIDTH 11 0
BBX 9 12 1 -2
BITMAP
7F80
7F80
4000
4000
7C00
7F00
0780
0780
C780
C780
E780
7F00
ENDCHAR
STARTCHAR six.tosf
ENCODING -1
SWIDTH 560 0
DWIDTH 11 0
BBX 11 13 0 0
BITMAP
0180
07C0
1E00
3C00
7800
7F80
7FC0
F1C0
F1E0
71E0
71C0
7BC0
3F80
ENDCHAR
STARTCHAR seven.tosf
ENCODING -1
SWIDTH 560 0
DWIDTH 11 0
BBX 9 12 1 -2
BITMAP
FF80
FF80
0180
0300
0300
0700
0E00
0E00
1C00
1C00
3800
7800
ENDCHAR
STARTCHAR eight.tosf
ENCODING -1
SWIDTH 560 0
DWIDTH 11 0
BBX 9 13 1 0
BITMAP
1E00
7700
E380
E380
F300
FE00
7F00
3F80
6780
E380
E380
E380
7F00
ENDCHAR
STARTCHAR nine.tosf
ENCODING -1
SWIDTH 560 0
DWIDTH 11 0
BBX 10 13 1 -2
BITMAP
1E00
7700
F380
E3C0
E3C0
E3C0
F3C0
7FC0
0380
0780
0F00
1E00
7800
ENDCHAR
STARTCHAR zero.osf
ENCODING -1
SWIDTH 540 0
DWIDTH 11 0
BBX 10 11 0 0
BITMAP
0E00
3B80
73C0
73C0
71C0
F1C0
71C0
71C0
73C0
7B80
1F00
ENDCHAR
STARTCHAR one.osf
ENCODING -1
SWIDTH 394 0
DWIDTH 8 0
BBX 8 11 0 0
BITMAP
04
7C
FC
3C
3C
3C
3C
3C
3C
3C
FF
ENDCHAR
STARTCHAR two.osf
ENCODING -1
SWIDTH 520 0
DWIDTH 10 0
BBX 9 11 1 0
BITMAP
1C00
7F00
EF00
E700
CF00
0E00
1C00
3000
FF80
FF80
FF80
ENDCHAR
STARTCHAR three.osf
ENCODING -1
SWIDTH 540 0
DWIDTH 11 0
BBX 10 13 0 -2
BITMAP
1E00
3780
73C0
73C0
03C0
0780
1E00
0780
03C0
63C0
E3C0
63C0
3F80
ENDCHAR
STARTCHAR four.osf
ENCODING -1
SWIDTH 540 0
DWIDTH 11 0
BBX 10 13 0 -2
BITMAP
0380
0780
0780
0F80
1F80
1780
2780
6780
FFC0
FFC0
FFC0
0780
0780
ENDCHAR
STARTCHAR five.osf
ENCODING -1
SWIDTH 540 0
DWIDTH 11 0
BBX 10 12 0 -2
BITMAP
3FC0
3FC0
2000
2000
3E00
3F80
03C0
03C0
E3C0
E3C0
63C0
3F00
ENDCHAR
STARTCHAR six.osf
ENCODING -1
SWIDTH 540 0
DWIDTH 11 0
BBX 11 13 0 0
BITMAP
0180
07C0
1E00
3C00
7800
7F80
FFC0
F3C0
F1E0
F1C0
71C0
7BC0
3F80
ENDCHAR
STARTCHAR seven.osf
ENCODING -1
SWIDTH 540 0
DWIDTH 11 0
BBX 9 12 1 -2
BITMAP
FF80
FF80
0180
0300
0700
0600
0E00
1C00
1C00
3800
3800
7800
ENDCHAR
STARTCHAR eight.osf
ENCODING -1
SWIDTH 540 0
DWIDTH 11 0
BBX 9 13 1 0
BITMAP
1E00
7700
E380
E380
F300
FE00
7F00
3F80
EF80
E780
E380
E380
7F00
ENDCHAR
STARTCHAR nine.osf
ENCODING -1
SWIDTH 540 0
DWIDTH 11 0
BBX 10 13 0 -2
BITMAP
1E00
3B80
73C0
F1C0
F1C0
F1C0
79C0
3FC0
03C0
0380
0700
1E00
7800
ENDCHAR
STARTCHAR zero.cap
ENCODING -1
SWIDTH 540 0
DWIDTH 11 0
BBX 10 13 0 0
BITMAP
1F00
3380
71C0
71C0
71C0
71C0
F1C0
71C0
71C0
71C0
71C0
3380
1F00
ENDCHAR
STARTCHAR one.cap
ENCODING -1
SWIDTH 372 0
DWIDTH 7 0
BBX 7 13 0 0
BITMAP
3C
FC
3C
3C
3C
3C
3C
3C
3C
3C
3C
3C
FE
ENDCHAR
STARTCHAR two.cap
ENCODING -1
SWIDTH 540 0
DWIDTH 11 0
BBX 9 13 1 0
BITMAP
7F00
E700
E780
C780
0780
0700
0E00
1C00
3800
6000
FF80
FF80
FF80
ENDCHAR
STARTCHAR three.cap
ENCODING -1
SWIDTH 540 0
DWIDTH 11 0
BBX 10 13 0 0
BITMAP
3F80
7380
73C0
23C0
0380
0700
1F00
03C0
03C0
63C0
E3C0
63C0
3F80
ENDCHAR
STARTCHAR four.cap
ENCODING -1
SWIDTH 540 0
DWIDTH 11 0
BBX 10 13 0 0
BITMAP
0380
0780
0F80
0F80
1780
3780
2780
4780
FFC0
FFC0
FFC0
0780
0780
ENDCHAR
STARTCHAR five.cap
ENCODING -1
SWIDTH 540 0
DWIDTH 11 0
BBX 10 13 0 0
BITMAP
3FC0
3FC0
3FC0
2000
2000
3F00
3F80
03C0
03C0
E3C0
E3C0
63C0
3F00
ENDCHAR
STARTCHAR six.cap
ENCODING -1
SWIDTH 540 0
DWIDTH 11 0
BBX 11 13 0 0
BITMAP
03C0
0F00
1C00
3800
7800
7780
FBC0
F1C0
F1E0
71C0
71C0
7BC0
1F80
ENDCHAR
STARTCHAR seven.cap
ENCODING -1
SWIDTH 540 0
DWIDTH 11 0
BBX 9 13 1 0
BITMAP
FF80
FF80
FF80
0300
0300
0600
0E00
0E00
1C00
1C00
3800
7800
7800
ENDCHAR
STARTCHAR eight.cap
ENCODING -1
SWIDTH 540 0
DWIDTH 11 0
BBX 9 13 1 0
BITMAP
7F00
E380
E380
E380
F700
FC00
7F00
7F80
E780
E380
E380
E380
7F00
ENDCHAR
STARTCHAR nine.cap
ENCODING -1
SWIDTH 540 0
DWIDTH 11 0
BBX 10 13 0 0
BITMAP
3F00
7380
71C0
F1C0
F1C0
F1C0
79C0
3FC0
03C0
0380
0700
1E00
3800
ENDCHAR
STARTCHAR exclamdown.cap
ENCODING -1
SWIDTH 370 0
DWIDTH 7 0
BBX 5 13 1 0
BITMAP
70
78
78
70
00
20
30
70
70
78
78
F8
78
ENDCHAR
STARTCHAR questiondown.cap
ENCODING -1
SWIDTH 462 0
DWIDTH 9 0
BBX 7 13 1 0
BITMAP
1C
1E
1E
0C
00
0C
7C
FC
F0
C0
7C
3E
1C
ENDCHAR
STARTCHAR guilsinglleft.cap
ENCODING -1
SWIDTH 354 0
DWIDTH 7 0
BBX 6 10 0 1
BITMAP
04
0C
18
70
E0
F0
30
18
0C
04
ENDCHAR
STARTCHAR guilsinglright.cap
ENCODING -1
SWIDTH 354 0
DWIDTH 7 0
BBX 6 10 1 1
BITMAP
80
C0
60
38
1C
1C
38
60
C0
80
ENDCHAR
STARTCHAR guillemotleft.cap
ENCODING -1
SWIDTH 578 0
DWIDTH 12 0
BBX 11 10 0 1
BITMAP
0440
0CE0
19C0
7380
E700
F700
3380
19C0
0C60
0440
ENDCHAR
STARTCHAR guillemotright.cap
ENCODING -1
SWIDTH 578 0
DWIDTH 12 0
BBX 10 10 1 1
BITMAP
8400
CE00
6300
3B80
1DC0
1DC0
3B80
6700
CE00
8400
ENDCHAR
STARTCHAR hyphen.cap
ENCODING -1
SWIDTH 350 0
DWIDTH 7 0
BBX 5 2 1 5
BITMAP
F8
F8
ENDCHAR
STARTCHAR endash.cap
ENCODING -1
SWIDTH 550 0
DWIDTH 11 0
BBX 9 2 1 5
BITMAP
FF80
FF80
ENDCHAR
STARTCHAR emdash.cap
ENCODING -1
SWIDTH 850 0
DWIDTH 17 0
BBX 15 2 1 5
BITMAP
FFFE
FFFE
ENDCHAR
STARTCHAR horizontalbar.cap
ENCODING -1
SWIDTH 850 0
DWIDTH 17 0
BBX 15 2 1 5
BITMAP
FFFE
FFFE
ENDCHAR
STARTCHAR parenleft.cap
ENCODING -1
SWIDTH 393 0
DWIDTH 8 0
BBX 6 17 1 -2
BITMAP
0C
1C
38
30
70
60
60
E0
E0
E0
60
70
70
30
38
1C
0C
ENDCHAR
STARTCHAR parenright.cap
ENCODING -1
SWIDTH 393 0
DWIDTH 8 0
BBX 5 17 1 -2
BITMAP
C0
E0
70
30
38
38
18
18
18
18
18
38
38
30
60
E0
C0
ENDCHAR
STARTCHAR bracketleft.cap
ENCODING -1
SWIDTH 360 0
DWIDTH 7 0
BBX 5 17 2 -2
BITMAP
F8
E0
E0
E0
E0
E0
E0
E0
E0
E0
E0
E0
E0
E0
E0
E0
F8
ENDCHAR
STARTCHAR bracketright.cap
ENCODING -1
SWIDTH 360 0
DWIDTH 7 0
BBX 5 17 0 -2
BITMAP
F8
38
38
38
38
38
38
38
38
38
38
38
38
38
38
38
F8
ENDCHAR
STARTCHAR braceleft.cap
ENCODING -1
SWIDTH 334 0
DWIDTH 7 0
BBX 5 17 1 -2
BITMAP
78
70
60
70
70
30
30
60
C0
60
30
30
70
70
60
70
38
ENDCHAR
STARTCHAR braceright.cap
ENCODING -1
SWIDTH 334 0
DWIDTH 7 0
BBX 5 17 1 -2
BITMAP
E0
70
70
70
60
60
60
70
18
70
60
60
60
70
70
70
E0
ENDCHAR
STARTCHAR at.cap
ENCODING -1
SWIDTH 913 0
DWIDTH 18 0
BBX 16 16 1 -2
BITMAP
03F0
0E0C
1806
31D3
63F9
4771
CE71
CE71
CE73
CE73
CFF6
CF3C
6000
7000
3C60
0FC0
ENDCHAR
STARTCHAR bracketleft.sups
ENCODING -1
SWIDTH 292 0
DWIDTH 6 0
BBX 3 11 2 6
BITMAP
E0
C0
C0
C0
C0
C0
C0
C0
C0
C0
E0
ENDCHAR
STARTCHAR bracketright.sups
ENCODING -1
SWIDTH 292 0
DWIDTH 6 0
BBX 3 11 1 6
BITMAP
E0
60
60
60
60
60
60
60
60
60
E0
ENDCHAR
STARTCHAR period.sups
ENCODING -1
SWIDTH 232 0
DWIDTH 5 0
BBX 3 2 1 8
BITMAP
E0
C0
ENDCHAR
STARTCHAR comma.sups
ENCODING -1
SWIDTH 232 0
DWIDTH 5 0
BBX 3 4 1 6
BITMAP
E0
E0
40
80
ENDCHAR
STARTCHAR colon.sups
ENCODING -1
SWIDTH 232 0
DWIDTH 5 0
BBX 3 7 1 8
BITMAP
40
E0
C0
00
00
E0
C0
ENDCHAR
STARTCHAR hyphen.sups
ENCODING -1
SWIDTH 264 0
DWIDTH 5 0
BBX 3 1 1 11
BITMAP
E0
ENDCHAR
STARTCHAR endash.sups
ENCODING -1
SWIDTH 392 0
DWIDTH 8 0
BBX 6 1 1 11
BITMAP
FC
ENDCHAR
STARTCHAR emdash.sups
ENCODING -1
SWIDTH 584 0
DWIDTH 12 0
BBX 10 1 1 11
BITMAP
FFC0
ENDCHAR
STARTCHAR bracketleft.subs
ENCODING -1
SWIDTH 292 0
DWIDTH 6 0
BBX 3 11 2 -6
BITMAP
E0
C0
C0
C0
C0
C0
C0
C0
C0
C0
E0
ENDCHAR
STARTCHAR bracketright.subs
ENCODING -1
SWIDTH 292 0
DWIDTH 6 0
BBX 3 11 1 -6
BITMAP
E0
60
60
60
60
60
60
60
60
60
E0
ENDCHAR
STARTCHAR period.subs
ENCODING -1
SWIDTH 232 0
DWIDTH 5 0
BBX 3 2 1 -4
BITMAP
E0
C0
ENDCHAR
STARTCHAR comma.subs
ENCODING -1
SWIDTH 232 0
DWIDTH 5 0
BBX 3 4 1 -6
BITMAP
E0
E0
40
80
ENDCHAR
STARTCHAR zero.dnom
ENCODING -1
SWIDTH 374 0
DWIDTH 7 0
BBX 6 8 1 0
BITMAP
70
D8
CC
CC
CC
CC
D8
70
ENDCHAR
STARTCHAR one.dnom
ENCODING -1
SWIDTH 374 0
DWIDTH 7 0
BBX 6 8 1 0
BITMAP
70
B0
30
30
30
30
30
FC
ENDCHAR
STARTCHAR two.dnom
ENCODING -1
SWIDTH 374 0
DWIDTH 7 0
BBX 6 8 1 0
BITMAP
78
DC
9C
18
30
60
FC
FC
ENDCHAR
STARTCHAR three.dnom
ENCODING -1
SWIDTH 374 0
DWIDTH 7 0
BBX 6 8 1 0
BITMAP
78
DC
18
78
18
9C
9C
F8
ENDCHAR
STARTCHAR four.dnom
ENCODING -1
SWIDTH 374 0
DWIDTH 7 0
BBX 7 8 0 0
BITMAP
0C
1C
2C
2C
4C
FE
0C
0C
ENDCHAR
STARTCHAR five.dnom
ENCODING -1
SWIDTH 374 0
DWIDTH 7 0
BBX 6 8 1 0
BITMAP
7C
7C
80
F8
1C
9C
9C
F8
ENDCHAR
STARTCHAR six.dnom
ENCODING -1
SWIDTH 374 0
DWIDTH 7 0
BBX 6 8 1 0
BITMAP
18
60
E0
F8
CC
CC
CC
78
ENDCHAR
STARTCHAR seven.dnom
ENCODING -1
SWIDTH 374 0
DWIDTH 7 0
BBX 6 8 1 0
BITMAP
FC
FC
08
18
10
30
60
E0
ENDCHAR
STARTCHAR eight.dnom
ENCODING -1
SWIDTH 374 0
DWIDTH 7 0
BBX 6 8 1 0
BITMAP
78
CC
C8
F0
78
DC
CC
F8
ENDCHAR
STARTCHAR nine.dnom
ENCODING -1
SWIDTH 374 0
DWIDTH 7 0
BBX 7 8 0 0
BITMAP
3C
6E
E6
66
3E
0C
18
70
ENDCHAR
STARTCHAR parenleft.dnom
ENCODING -1
SWIDTH 292 0
DWIDTH 6 0
BBX 4 11 1 -2
BITMAP
10
20
60
C0
C0
C0
C0
40
60
20
10
ENDCHAR
STARTCHAR parenright.dnom
ENCODING -1
SWIDTH 292 0
DWIDTH 6 0
BBX 4 11 1 -2
BITMAP
80
C0
60
60
30
30
30
60
60
C0
80
ENDCHAR
STARTCHAR bracketleft.dnom
ENCODING -1
SWIDTH 292 0
DWIDTH 6 0
BBX 3 11 2 -2
BITMAP
E0
C0
C0
C0
C0
C0
C0
C0
C0
C0
E0
ENDCHAR
STARTCHAR bracketright.dnom
ENCODING -1
SWIDTH 292 0
DWIDTH 6 0
BBX 3 11 1 -2
BITMAP
E0
60
60
60
60
60
60
60
60
60
E0
ENDCHAR
STARTCHAR period.dnom
ENCODING -1
SWIDTH 232 0
DWIDTH 5 0
BBX 3 2 1 0
BITMAP
E0
C0
ENDCHAR
STARTCHAR comma.dnom
ENCODING -1
SWIDTH 232 0
DWIDTH 5 0
BBX 3 4 1 -2
BITMAP
E0
E0
40
80
ENDCHAR
STARTCHAR zero.numr
ENCODING -1
SWIDTH 374 0
DWIDTH 7 0
BBX 6 8 1 5
BITMAP
70
D8
CC
CC
CC
CC
D8
70
ENDCHAR
STARTCHAR one.numr
ENCODING -1
SWIDTH 374 0
DWIDTH 7 0
BBX 6 8 1 5
BITMAP
70
B0
30
30
30
30
30
FC
ENDCHAR
STARTCHAR two.numr
ENCODING -1
SWIDTH 374 0
DWIDTH 7 0
BBX 6 8 1 5
BITMAP
78
DC
9C
18
30
60
FC
FC
ENDCHAR
STARTCHAR three.numr
ENCODING -1
SWIDTH 374 0
DWIDTH 7 0
BBX 6 8 1 5
BITMAP
78
DC
18
78
18
9C
9C
F8
ENDCHAR
STARTCHAR four.numr
ENCODING -1
SWIDTH 374 0
DWIDTH 7 0
BBX 7 8 0 5
BITMAP
0C
1C
2C
2C
4C
FE
0C
0C
ENDCHAR
STARTCHAR five.numr
ENCODING -1
SWIDTH 374 0
DWIDTH 7 0
BBX 6 8 1 5
BITMAP
7C
7C
80
F8
1C
9C
9C
F8
ENDCHAR
STARTCHAR six.numr
ENCODING -1
SWIDTH 374 0
DWIDTH 7 0
BBX 6 8 1 5
BITMAP
18
60
E0
F8
CC
CC
CC
78
ENDCHAR
STARTCHAR seven.numr
ENCODING -1
SWIDTH 374 0
DWIDTH 7 0
BBX 6 8 1 5
BITMAP
FC
FC
08
18
10
30
60
E0
ENDCHAR
STARTCHAR eight.numr
ENCODING -1
SWIDTH 374 0
DWIDTH 7 0
BBX 6 8 1 5
BITMAP
78
CC
C8
F0
78
DC
CC
F8
ENDCHAR
STARTCHAR nine.numr
ENCODING -1
SWIDTH 374 0
DWIDTH 7 0
BBX 7 8 0 5
BITMAP
3C
6E
E6
66
3E
0C
18
70
ENDCHAR
STARTCHAR parenleft.numr
ENCODING -1
SWIDTH 292 0
DWIDTH 6 0
BBX 4 11 1 3
BITMAP
10
20
60
C0
C0
C0
C0
40
60
20
10
ENDCHAR
STARTCHAR parenright.numr
ENCODING -1
SWIDTH 292 0
DWIDTH 6 0
BBX 4 11 1 3
BITMAP
80
C0
60
60
30
30
30
60
60
C0
80
ENDCHAR
STARTCHAR bracketleft.numr
ENCODING -1
SWIDTH 292 0
DWIDTH 6 0
BBX 3 11 2 3
BITMAP
E0
C0
C0
C0
C0
C0
C0
C0
C0
C0
E0
ENDCHAR
STARTCHAR bracketright.numr
ENCODING -1
SWIDTH 292 0
DWIDTH 6 0
BBX 3 11 1 3
BITMAP
E0
60
60
60
60
60
60
60
60
60
E0
ENDCHAR
STARTCHAR period.numr
ENCODING -1
SWIDTH 232 0
DWIDTH 5 0
BBX 3 2 1 5
BITMAP
E0
C0
ENDCHAR
STARTCHAR comma.numr
ENCODING -1
SWIDTH 232 0
DWIDTH 5 0
BBX 3 4 1 3
BITMAP
E0
E0
40
80
ENDCHAR
STARTCHAR A.sups
ENCODING -1
SWIDTH 459 0
DWIDTH 9 0
BBX 9 8 0 8
BITMAP
0C00
1C00
1E00
2E00
2600
3F00
4700
E780
ENDCHAR
STARTCHAR B.sups
ENCODING -1
SWIDTH 445 0
DWIDTH 9 0
BBX 9 8 0 8
BITMAP
FF00
7300
7700
7E00
7300
7380
7300
FE00
ENDCHAR
STARTCHAR C.sups
ENCODING -1
SWIDTH 420 0
DWIDTH 8 0
BBX 8 9 0 8
BITMAP
0E
31
61
60
E0
60
61
71
3F
ENDCHAR
STARTCHAR D.sups
ENCODING -1
SWIDTH 476 0
DWIDTH 10 0
BBX 9 8 0 8
BITMAP
FF00
7380
7380
7380
7380
7380
7300
FC00
ENDCHAR
STARTCHAR E.sups
ENCODING -1
SWIDTH 402 0
DWIDTH 8 0
BBX 8 8 0 8
BITMAP
FE
72
74
7C
74
70
73
FF
ENDCHAR
STARTCHAR F.sups
ENCODING -1
SWIDTH 394 0
DWIDTH 8 0
BBX 8 8 0 8
BITMAP
FE
73
74
7C
74
70
70
F8
ENDCHAR
STARTCHAR G.sups
ENCODING -1
SWIDTH 456 0
DWIDTH 9 0
BBX 9 9 0 8
BITMAP
1E00
3300
6100
6000
E000
6780
6300
7300
3F00
ENDCHAR
STARTCHAR H.sups
ENCODING -1
SWIDTH 510 0
DWIDTH 10 0
BBX 10 8 0 8
BITMAP
FFC0
7380
7380
7F80
7380
7380
7380
FFC0
ENDCHAR
STARTCHAR I.sups
ENCODING -1
SWIDTH 270 0
DWIDTH 5 0
BBX 5 8 0 8
BITMAP
F8
70
70
70
70
70
70
F8
ENDCHAR
STARTCHAR J.sups
ENCODING -1
SWIDTH 275 0
DWIDTH 6 0
BBX 6 10 -1 6
BITMAP
7C
18
18
18
18
18
18
18
D0
E0
ENDCHAR
STARTCHAR K.sups
ENCODING -1
SWIDTH 477 0
DWIDTH 10 0
BBX 9 8 0 8
BITMAP
FB80
7200
7400
7E00
7600
7700
7300
FF80
ENDCHAR
STARTCHAR L.sups
ENCODING -1
SWIDTH 391 0
DWIDTH 8 0
BBX 8 8 0 8
BITMAP
F8
70
70
70
70
73
73
FE
ENDCHAR
STARTCHAR M.sups
ENCODING -1
SWIDTH 603 0
DWIDTH 12 0
BBX 12 8 0 8
BITMAP
70F0
39E0
59E0
5DE0
5EE0
4EE0
4CE0
F5F0
ENDCHAR
STARTCHAR N.sups
ENCODING -1
SWIDTH 491 0
DWIDTH 10 0
BBX 9 8 0 8
BITMAP
F380
3900
5D00
4F00
4F00
4700
4300
F100
ENDCHAR
STARTCHAR O.sups
ENCODING -1
SWIDTH 474 0
DWIDTH 9 0
BBX 9 9 0 8
BITMAP
1C00
3300
6380
6380
E380
6380
6380
7300
3E00
ENDCHAR
STARTCHAR P.sups
ENCODING -1
SWIDTH 420 0
DWIDTH 8 0
BBX 8 8 0 8
BITMAP
FF
73
73
77
7C
70
70
F8
ENDCHAR
STARTCHAR Q.sups
ENCODING -1
SWIDTH 474 0
DWIDTH 9 0
BBX 9 11 0 6
BITMAP
1C00
3300
6380
6380
E380
6380
6380
7300
3E00
0C00
0F80
ENDCHAR
STARTCHAR R.sups
ENCODING -1
SWIDTH 469 0
DWIDTH 9 0
BBX 9 8 0 8
BITMAP
FF00
7300
7300
7C00
7700
7700
7300
FB80
ENDCHAR
STARTCHAR S.sups
ENCODING -1
SWIDTH 374 0
DWIDTH 7 0
BBX 7 9 0 8
BITMAP
3C
66
66
70
7C
1E
06
46
FC
ENDCHAR
STARTCHAR T.sups
ENCODING -1
SWIDTH 435 0
DWIDTH 9 0
BBX 8 8 0 8
BITMAP
FF
DD
1C
1C
1C
1C
1C
3E
ENDCHAR
STARTCHAR U.sups
ENCODING -1
SWIDTH 495 0
DWIDTH 10 0
BBX 10 8 0 8
BITMAP
FBC0
7100
7100
7100
7100
7100
3900
1E00
ENDCHAR
STARTCHAR V.sups
ENCODING -1
SWIDTH 445 0
DWIDTH 9 0
BBX 9 8 0 8
BITMAP
FB80
7100
3200
3A00
3C00
1C00
1C00
0800
ENDCHAR
STARTCHAR W.sups
ENCODING -1
SWIDTH 664 0
DWIDTH 13 0
BBX 13 8 0 8
BITMAP
F7F8
7390
3390
35A0
3DE0
1CE0
18C0
18C0
ENDCHAR
STARTCHAR X.sups
ENCODING -1
SWIDTH 445 0
DWIDTH 9 0
BBX 9 8 0 8
BITMAP
FB00
3A00
3C00
1C00
1C00
2E00
4700
EF80
ENDCHAR
STARTCHAR Y.sups
ENCODING -1
SWIDTH 422 0
DWIDTH 8 0
BBX 8 8 0 8
BITMAP
FB
72
3C
3C
18
18
18
3E
ENDCHAR
STARTCHAR Z.sups
ENCODING -1
SWIDTH 385 0
DWIDTH 8 0
BBX 7 8 0 8
BITMAP
7E
CE
1C
38
38
72
72
FE
ENDCHAR
STARTCHAR q.sups
ENCODING -1
SWIDTH 392 0
DWIDTH 8 0
BBX 8 10 0 5
BITMAP
12
7E
66
E6
E6
66
7E
06
06
0F
ENDCHAR
STARTCHAR egrave.sups
ENCODING -1
SWIDTH 348 0
DWIDTH 7 0
BBX 7 10 0 8
BITMAP
20
30
10
18
6C
66
FE
E0
62
3C
ENDCHAR
STARTCHAR eacute.sups
ENCODING -1
SWIDTH 348 0
DWIDTH 7 0
BBX 7 10 0 8
BITMAP
0C
08
10
18
6C
66
FE
E0
62
3C
ENDCHAR
STARTCHAR slash.frac
ENCODING -1
SWIDTH 140 0
DWIDTH 3 0
BBX 10 14 -4 -1
BITMAP
0040
00C0
0080
0100
0300
0200
0400
0C00
1800
1000
3000
6000
C000
4000
ENDCHAR
STARTCHAR space.frac
ENCODING -1
SWIDTH 106 0
DWIDTH 2 0
BBX 1 1 0 0
BITMAP
00
ENDCHAR
STARTCHAR gravecmb.cap
ENCODING -1
SWIDTH 0 0
DWIDTH 0 0
BBX 5 4 -3 14
BITMAP
C0
E0
F0
38
ENDCHAR
STARTCHAR acutecmb.cap
ENCODING -1
SWIDTH 0 0
DWIDTH 0 0
BBX 5 4 -2 14
BITMAP
18
38
78
E0
ENDCHAR
STARTCHAR circumflexcmb.cap
ENCODING -1
SWIDTH 0 0
DWIDTH 0 0
BBX 8 5 -4 13
BITMAP
18
3C
7E
E7
81
ENDCHAR
STARTCHAR tildecmb.cap
ENCODING -1
SWIDTH 0 0
DWIDTH 0 0
BBX 8 3 -4 14
BITMAP
73
7E
CE
ENDCHAR
STARTCHAR macroncmb.cap
ENCODING -1
SWIDTH 0 0
DWIDTH 0 0
BBX 6 2 -3 14
BITMAP
FC
FC
ENDCHAR
STARTCHAR brevecmb.cap
ENCODING -1
SWIDTH 0 0
DWIDTH 0 0
BBX 6 3 -3 14
BITMAP
84
FC
78
ENDCHAR
STARTCHAR dotaccentcmb.cap
ENCODING -1
SWIDTH 0 0
DWIDTH 0 0
BBX 4 3 -2 14
BITMAP
F0
F0
60
ENDCHAR
STARTCHAR dieresiscmb.cap
ENCODING -1
SWIDTH 0 0
DWIDTH 0 0
BBX 8 3 -4 14
BITMAP
E7
E7
E7
ENDCHAR
STARTCHAR ringcmb.cap
ENCODING -1
SWIDTH 0 0
DWIDTH 0 0
BBX 4 4 -2 14
BITMAP
60
90
90
F0
ENDCHAR
STARTCHAR hungarumlautcmb.cap
ENCODING -1
SWIDTH 0 0
DWIDTH 0 0
BBX 7 4 -3 14
BITMAP
36
6E
6C
D8
ENDCHAR
STARTCHAR caroncmb.cap
ENCODING -1
SWIDTH 0 0
DWIDTH 0 0
BBX 8 4 -4 14
BITMAP
C3
66
3C
18
ENDCHAR
STARTCHAR uni0309.cap
ENCODING -1
SWIDTH 0 0
DWIDTH 0 0
BBX 4 4 -2 14
BITMAP
60
F0
30
60
ENDCHAR
STARTCHAR uni03080301
ENCODING -1
SWIDTH 0 0
DWIDTH 0 0
BBX 8 7 -4 11
BITMAP
04
0E
0C
18
67
E7
E7
ENDCHAR
STARTCHAR uni03080301.cap
ENCODING -1
SWIDTH 0 0
DWIDTH 0 0
BBX 8 6 -4 14
BITMAP
06
0E
18
E7
E7
E7
ENDCHAR
STARTCHAR uni03080300
ENCODING -1
SWIDTH 0 0
DWIDTH 0 0
BBX 8 7 -4 11
BITMAP
20
70
30
18
E6
E7
E7
ENDCHAR
STARTCHAR uni03080300.cap
ENCODING -1
SWIDTH 0 0
DWIDTH 0 0
BBX 8 6 -4 14
BITMAP
60
70
18
E7
E7
E7
ENDCHAR
STARTCHAR uni03080304
ENCODING -1
SWIDTH 0 0
DWIDTH 0 0
BBX 8 6 -4 11
BITMAP
7E
7E
42
E7
E7
42
ENDCHAR
STARTCHAR uni03080304.cap
ENCODING -1
SWIDTH 0 0
DWIDTH 0 0
BBX 8 5 -4 14
BITMAP
7E
7E
E7
E7
E7
ENDCHAR
STARTCHAR uni0308030C
ENCODING -1
SWIDTH 0 0
DWIDTH 0 0
BBX 8 7 -4 11
BITMAP
C3
66
3C
5A
E7
E7
42
ENDCHAR
STARTCHAR uni0308030C.cap
ENCODING -1
SWIDTH 0 0
DWIDTH 0 0
BBX 8 7 -4 14
BITMAP
C3
66
3C
18
E7
E7
E7
ENDCHAR
STARTCHAR uni03020301
ENCODING -1
SWIDTH 0 0
DWIDTH 0 0
BBX 10 5 -4 11
BITMAP
01C0
1980
3D00
7E00
C300
ENDCHAR
STARTCHAR uni03020301.cap
ENCODING -1
SWIDTH 0 0
DWIDTH 0 0
BBX 10 6 -4 13
BITMAP
00C0
19C0
3DC0
7E00
E700
8100
ENDCHAR
STARTCHAR uni03020300
ENCODING -1
SWIDTH 0 0
DWIDTH 0 0
BBX 10 5 -6 11
BITMAP
E000
6600
2F00
1F80
30C0
ENDCHAR
STARTCHAR uni03020300.cap
ENCODING -1
SWIDTH 0 0
DWIDTH 0 0
BBX 10 6 -6 13
BITMAP
C000
E600
EF00
1F80
39C0
2040
ENDCHAR
STARTCHAR uni03020309
ENCODING -1
SWIDTH 0 0
DWIDTH 0 0
BBX 10 7 -4 11
BITMAP
0180
01C0
01C0
18C0
3D80
7E00
C300
ENDCHAR
STARTCHAR uni03020309.cap
ENCODING -1
SWIDTH 0 0
DWIDTH 0 0
BBX 10 7 -4 13
BITMAP
0380
03C0
18C0
3D80
7E00
E700
8100
ENDCHAR
STARTCHAR uni03020303
ENCODING -1
SWIDTH 0 0
DWIDTH 0 0
BBX 8 7 -4 11
BITMAP
02
7F
FE
00
3C
7E
C3
ENDCHAR
STARTCHAR uni03020303.cap
ENCODING -1
SWIDTH 0 0
DWIDTH 0 0
BBX 8 7 -4 13
BITMAP
7B
7E
C4
18
7E
E7
81
ENDCHAR
STARTCHAR uni03060301
ENCODING -1
SWIDTH 0 0
DWIDTH 0 0
BBX 6 7 -3 11
BITMAP
0C
1C
38
30
84
FC
78
ENDCHAR
STARTCHAR uni03060301.cap
ENCODING -1
SWIDTH 0 0
DWIDTH 0 0
BBX 6 7 -3 14
BITMAP
08
1C
1C
30
84
FC
78
ENDCHAR
STARTCHAR uni03060300
ENCODING -1
SWIDTH 0 0
DWIDTH 0 0
BBX 6 7 -3 11
BITMAP
C0
E0
70
30
84
FC
78
ENDCHAR
STARTCHAR uni03060300.cap
ENCODING -1
SWIDTH 0 0
DWIDTH 0 0
BBX 6 7 -3 14
BITMAP
40
E0
E0
30
84
FC
78
ENDCHAR
STARTCHAR uni03060309
ENCODING -1
SWIDTH 0 0
DWIDTH 0 0
BBX 6 7 -3 11
BITMAP
30
78
18
30
84
FC
78
ENDCHAR
STARTCHAR uni03060309.cap
ENCODING -1
SWIDTH 0 0
DWIDTH 0 0
BBX 6 6 -3 14
BITMAP
30
78
18
B4
FC
78
ENDCHAR
STARTCHAR uni03060303
ENCODING -1
SWIDTH 0 0
DWIDTH 0 0
BBX 8 7 -4 11
BITMAP
02
7F
FE
00
42
7E
3C
ENDCHAR
STARTCHAR uni03060303.cap
ENCODING -1
SWIDTH 0 0
DWIDTH 0 0
BBX 8 6 -4 14
BITMAP
7F
FE
00
42
7E
3C
ENDCHAR
STARTCHAR anoteleia.cap
ENCODING -1
SWIDTH 300 0
DWIDTH 6 0
BBX 4 4 1 9
BITMAP
60
F0
F0
F0
ENDCHAR
STARTCHAR uni0301.g
ENCODING -1
SWIDTH 0 0
DWIDTH 0 0
BBX 3 5 -1 11
BITMAP
60
60
60
C0
C0
ENDCHAR
STARTCHAR uni03080301.g
ENCODING -1
SWIDTH 0 0
DWIDTH 0 0
BBX 9 5 -4 11
BITMAP
0C00
1C00
FB00
FB80
1800
ENDCHAR
STARTCHAR uni0457.narrow
ENCODING -1
SWIDTH 324 0
DWIDTH 6 0
BBX 6 15 0 0
BITMAP
48
EC
EC
6C
00
18
F8
78
78
78
78
78
78
78
7C
ENDCHAR
STARTCHAR uni0431.srb
ENCODING -1
SWIDTH 580 0
DWIDTH 12 0
BBX 11 15 0 0
BITMAP
00E0
0FE0
3FC0
3F80
3800
3800
0F80
1BC0
79E0
79E0
F1E0
F1E0
79E0
79C0
3F80
ENDCHAR
STARTCHAR uni0418.bgr
ENCODING -1
SWIDTH 772 0
DWIDTH 15 0
BBX 14 13 1 0
BITMAP
FC7C
78F8
78F8
79F8
7978
7978
7A78
7A78
7C78
7C78
7C78
7878
F9FC
ENDCHAR
STARTCHAR uni0419.bgr
ENCODING -1
SWIDTH 772 0
DWIDTH 15 0
BBX 14 18 1 0
BITMAP
0860
1C60
1860
0FC0
0000
FC7C
78F8
78F8
79F8
7978
7978
7A78
7A78
7C78
7C78
7C78
7878
F9FC
ENDCHAR
STARTCHAR uni040D.bgr
ENCODING -1
SWIDTH 772 0
DWIDTH 15 0
BBX 14 18 1 0
BITMAP
0800
1C00
0F00
0380
0000
FC7C
78F8
78F8
79F8
7978
7978
7A78
7A78
7C78
7C78
7C78
7878
F9FC
ENDCHAR
STARTCHAR uni041B.bgr
ENCODING -1
SWIDTH 656 0
DWIDTH 13 0
BBX 13 13 0 0
BITMAP
0700
0700
0780
0F80
0BC0
0BC0
1BC0
11E0
11E0
31E0
21F0
20F0
F3F8
ENDCHAR
STARTCHAR uni0424.bgr
ENCODING -1
SWIDTH 830 0
DWIDTH 17 0
BBX 15 15 1 -1
BITMAP
0FE0
0380
1FF0
7BB8
F39C
F39E
E39E
E39E
E39E
F39E
F39C
7BB8
1FF0
0380
0FE0
ENDCHAR
STARTCHAR uni0432.bgr
ENCODING -1
SWIDTH 595 0
DWIDTH 12 0
BBX 10 15 1 0
BITMAP
0E00
3F80
73C0
71C0
F1C0
F380
F380
FF00
F380
F1C0
F1C0
F1C0
F1C0
F3C0
7F00
ENDCHAR
STARTCHAR uni0433.bgr
ENCODING -1
SWIDTH 486 0
DWIDTH 10 0
BBX 8 10 1 0
BITMAP
FE
CF
C7
0F
1E
78
F0
E1
FF
7E
ENDCHAR
STARTCHAR uni0434.bgr
ENCODING -1
SWIDTH 592 0
DWIDTH 12 0
BBX 10 15 1 -5
BITMAP
3CC0
7FC0
F3C0
F3C0
E3C0
E3C0
F3C0
F3C0
FFC0
3BC0
03C0
E3C0
E380
6F00
1C00
ENDCHAR
STARTCHAR uni0436.bgr
ENCODING -1
SWIDTH 860 0
DWIDTH 17 0
BBX 17 14 0 0
BITMAP
03E000
03E000
01E000
01E000
61E300
71E780
79E700
09E800
0FF800
1FFC00
39EF00
79EF00
79E700
F3E780
ENDCHAR
STARTCHAR uni0437.bgr
ENCODING -1
SWIDTH 496 0
DWIDTH 10 0
BBX 9 15 0 -5
BITMAP
7E00
6780
6380
6380
0380
0700
3E00
3F00
0780
0380
0380
E380
E380
6F00
1C00
ENDCHAR
STARTCHAR uni0438.bgr
ENCODING -1
SWIDTH 617 0
DWIDTH 12 0
BBX 12 10 0 0
BITMAP
38E0
FBE0
79E0
79E0
79E0
79E0
79E0
79E0
3FE0
3FF0
ENDCHAR
STARTCHAR uni0439.bgr
ENCODING -1
SWIDTH 617 0
DWIDTH 12 0
BBX 12 15 0 0
BITMAP
18C0
39C0
18C0
1F80
0000
38E0
FBE0
79E0
79E0
79E0
79E0
79E0
79E0
3FE0
3FF0
ENDCHAR
STARTCHAR uni043A.bgr
ENCODING -1
SWIDTH 603 0
DWIDTH 12 0
BBX 12 14 0 0
BITMAP
F800
7800
7800
7800
7860
78F0
78E0
7900
7F00
7F80
79C0
79E0
79E0
7CF0
ENDCHAR
STARTCHAR uni043B.bgr
ENCODING -1
SWIDTH 581 0
DWIDTH 12 0
BBX 11 10 0 0
BITMAP
0600
0E00
0F00
0F00
1780
1780
3380
23C0
23C0
F7E0
ENDCHAR
STARTCHAR uni043D.bgr
ENCODING -1
SWIDTH 650 0
DWIDTH 13 0
BBX 13 10 0 0
BITMAP
1870
F9F0
78F0
78F0
7FF0
7FF0
78F0
78F0
78F0
FDF8
ENDCHAR
STARTCHAR uni043F.bgr
ENCODING -1
SWIDTH 620 0
DWIDTH 12 0
BBX 12 10 0 0
BITMAP
1BC0
FFE0
79E0
79E0
79E0
79E0
79E0
79E0
79E0
FDF0
ENDCHAR
STARTCHAR uni0442.bgr
ENCODING -1
SWIDTH 910 0
DWIDTH 18 0
BBX 18 10 0 0
BITMAP
1BCF00
FFFF80
79E780
79E780
79E780
79E780
79E780
79E780
79E780
FDFFC0
ENDCHAR
STARTCHAR uni0444.bgr
ENCODING -1
SWIDTH 782 0
DWIDTH 16 0
BBX 15 18 0 -4
BITMAP
03C0
07C0
03C0
03C0
0FF0
3BFC
73DE
73CE
F3CE
F3CE
73CE
73DE
3BDC
1FF8
03C0
03C0
03C0
07E0
ENDCHAR
STARTCHAR uni0446.bgr
ENCODING -1
SWIDTH 650 0
DWIDTH 13 0
BBX 13 13 0 -3
BITMAP
38E0
FBE0
79E0
79E0
79E0
79E0
79E0
79E0
3FE0
3FF8
0018
0018
0018
ENDCHAR
STARTCHAR uni0447.bgr
ENCODING -1
SWIDTH 596 0
DWIDTH 12 0
BBX 11 10 0 0
BITMAP
38E0
FBE0
79E0
79E0
79E0
7FE0
11E0
01E0
01E0
03E0
ENDCHAR
STARTCHAR uni0448.bgr
ENCODING -1
SWIDTH 858 0
DWIDTH 17 0
BBX 17 10 0 0
BITMAP
39E700
FBDF00
79CF00
79CF00
79CF00
79CF00
79CF00
79CF00
3FFF00
3CFF80
ENDCHAR
STARTCHAR uni0449.bgr
ENCODING -1
SWIDTH 890 0
DWIDTH 18 0
BBX 18 13 0 -3
BITMAP
39E700
FBDF00
79CF00
79CF00
79CF00
79CF00
79CF00
79CF00
3FFF00
3CFFC0
0001C0
0000C0
000080
ENDCHAR
STARTCHAR uni044A.bgr
ENCODING -1
SWIDTH 671 0
DWIDTH 13 0
BBX 13 10 0 0
BITMAP
FF80
CF00
CF00
CF00
0FF0
0F78
0F38
0F38
0F38
07F0
ENDCHAR
STARTCHAR uni044C.bgr
ENCODING -1
SWIDTH 548 0
DWIDTH 11 0
BBX 11 10 0 0
BITMAP
3800
F800
7800
7800
7FC0
79E0
79E0
79E0
39C0
3F80
ENDCHAR
STARTCHAR uni044E.bgr
ENCODING -1
SWIDTH 844 0
DWIDTH 17 0
BBX 16 14 0 0
BITMAP
F800
7800
7800
7800
787C
78EE
79CF
79C7
7FC7
7BC7
79C7
79CF
79CE
7CFC
ENDCHAR
STARTCHAR uni045D.bgr
ENCODING -1
SWIDTH 617 0
DWIDTH 12 0
BBX 12 16 0 0
BITMAP
0800
1C00
1E00
0600
0300
0000
38E0
FBE0
79E0
79E0
79E0
79E0
79E0
79E0
3FE0
3FF0
ENDCHAR
STARTCHAR brevecmb.cyr
ENCODING -1
SWIDTH 0 0
DWIDTH 0 0
BBX 8 4 -4 11
BITMAP
E7
E7
C3
7E
ENDCHAR
STARTCHAR brevecmb.cyrcap
ENCODING -1
SWIDTH 0 0
DWIDTH 0 0
BBX 8 4 -4 14
BITMAP
42
E7
C3
7E
ENDCHAR
STARTCHAR A.sc
ENCODING -1
SWIDTH 636 0
DWIDTH 13 0
BBX 12 11 0 0
BITMAP
0700
0700
0700
0F80
0B80
1BC0
11C0
1FC0
21E0
20E0
F3F0
ENDCHAR
STARTCHAR B.sc
ENCODING -1
SWIDTH 626 0
DWIDTH 13 0
BBX 11 11 1 0
BITMAP
FF00
7BC0
79C0
79C0
7B80
7F80
79E0
79E0
79E0
79C0
FF80
ENDCHAR
STARTCHAR C.sc
ENCODING -1
SWIDTH 591 0
DWIDTH 12 0
BBX 10 11 1 0
BITMAP
1F80
78C0
70C0
F000
F000
F000
F000
F000
F040
78C0
1FC0
ENDCHAR
STARTCHAR D.sc
ENCODING -1
SWIDTH 673 0
DWIDTH 13 0
BBX 12 11 1 0
BITMAP
FE00
7BC0
79E0
78E0
78F0
78F0
78F0
78E0
79E0
7BC0
FF00
ENDCHAR
STARTCHAR E.sc
ENCODING -1
SWIDTH 565 0
DWIDTH 11 0
BBX 10 11 1 0
BITMAP
FF80
7980
7980
7800
7B00
7F00
7900
7800
78C0
78C0
FFC0
ENDCHAR
STARTCHAR F.sc
ENCODING -1
SWIDTH 555 0
DWIDTH 11 0
BBX 10 11 1 0
BITMAP
FF80
78C0
78C0
7800
7B00
7F00
7900
7800
7800
7800
FC00
ENDCHAR
STARTCHAR G.sc
ENCODING -1
SWIDTH 638 0
DWIDTH 13 0
BBX 11 11 1 0
BITMAP
1FC0
78C0
70C0
F000
F000
F000
F7E0
F1C0
F1C0
79C0
1FC0
ENDCHAR
STARTCHAR H.sc
ENCODING -1
SWIDTH 722 0
DWIDTH 14 0
BBX 13 11 1 0
BITMAP
FDF8
78E0
78E0
78E0
78E0
7FE0
78E0
78E0
78E0
78E0
FDF8
ENDCHAR
STARTCHAR I.sc
ENCODING -1
SWIDTH 389 0
DWIDTH 8 0
BBX 6 11 1 0
BITMAP
FC
78
78
78
78
78
78
78
78
78
FC
ENDCHAR
STARTCHAR J.sc
ENCODING -1
SWIDTH 390 0
DWIDTH 8 0
BBX 9 14 -2 -3
BITMAP
1F80
0F00
0F00
0F00
0F00
0F00
0F00
0F00
0F00
0F00
0E00
6E00
FC00
7800
ENDCHAR
STARTCHAR K.sc
ENCODING -1
SWIDTH 668 0
DWIDTH 13 0
BBX 12 11 1 0
BITMAP
FDE0
78C0
7980
7B00
7B00
7F80
7F80
7BC0
7BC0
79E0
FDF0
ENDCHAR
STARTCHAR L.sc
ENCODING -1
SWIDTH 545 0
DWIDTH 11 0
BBX 10 11 1 0
BITMAP
FC00
7800
7800
7800
7800
7800
7800
7800
78C0
78C0
FF80
ENDCHAR
STARTCHAR M.sc
ENCODING -1
SWIDTH 841 0
DWIDTH 17 0
BBX 16 11 0 0
BITMAP
7C1F
3C3E
3E3E
2E3E
3F7E
3F5E
375E
37DE
339E
339E
FBBF
ENDCHAR
STARTCHAR N.sc
ENCODING -1
SWIDTH 690 0
DWIDTH 14 0
BBX 12 11 1 0
BITMAP
F1F0
78E0
7C60
7E60
7F60
6FE0
67E0
63E0
61E0
61E0
F8E0
ENDCHAR
STARTCHAR O.sc
ENCODING -1
SWIDTH 670 0
DWIDTH 13 0
BBX 12 11 1 0
BITMAP
1F00
79C0
71E0
F0E0
F0F0
F0F0
F0F0
F0E0
F0E0
71C0
3F80
ENDCHAR
STARTCHAR P.sc
ENCODING -1
SWIDTH 591 0
DWIDTH 12 0
BBX 10 11 1 0
BITMAP
FE00
7BC0
79C0
79C0
79C0
7BC0
7F00
7800
7800
7800
FC00
ENDCHAR
STARTCHAR Q.sc
ENCODING -1
SWIDTH 670 0
DWIDTH 13 0
BBX 12 14 1 -3
BITMAP
1F00
79C0
71E0
F0E0
F0F0
F0F0
F0F0
F0E0
F0E0
71C0
3F80
0E00
0F00
07E0
ENDCHAR
STARTCHAR R.sc
ENCODING -1
SWIDTH 652 0
DWIDTH 13 0
BBX 12 11 1 0
BITMAP
FF00
7BC0
79E0
79C0
79C0
7E00
7BC0
79C0
79C0
79E0
FDF0
ENDCHAR
STARTCHAR S.sc
ENCODING -1
SWIDTH 533 0
DWIDTH 11 0
BBX 9 11 1 0
BITMAP
3F00
7300
E300
F000
FC00
7F00
1F80
0780
C380
C380
FF00
ENDCHAR
STARTCHAR T.sc
ENCODING -1
SWIDTH 611 0
DWIDTH 12 0
BBX 11 11 1 0
BITMAP
FFE0
DE60
9E60
1E00
1E00
1E00
1E00
1E00
1E00
1E00
3F00
ENDCHAR
STARTCHAR U.sc
ENCODING -1
SWIDTH 696 0
DWIDTH 14 0
BBX 12 11 1 0
BITMAP
FCF0
7860
7860
7860
7860
7860
7860
7860
7860
3CC0
1F80
ENDCHAR
STARTCHAR V.sc
ENCODING -1
SWIDTH 607 0
DWIDTH 12 0
BBX 12 11 0 0
BITMAP
FCF0
7820
3840
3C40
3CC0
1C80
1E80
0F00
0F00
0F00
0600
ENDCHAR
STARTCHAR W.sc
ENCODING -1
SWIDTH 911 0
DWIDTH 18 0
BBX 18 11 0 0
BITMAP
FDF9C0
787180
38F180
38F100
3CF900
1DBB00
1D3A00
1F3E00
0E1C00
0E1C00
0E1C00
ENDCHAR
STARTCHAR X.sc
ENCODING -1
SWIDTH 606 0
DWIDTH 12 0
BBX 12 11 0 0
BITMAP
FCE0
78C0
3C80
1F80
1F00
0F00
0F80
1F80
33C0
21E0
F3F0
ENDCHAR
STARTCHAR Y.sc
ENCODING -1
SWIDTH 577 0
DWIDTH 12 0
BBX 11 11 0 0
BITMAP
FCE0
7860
3CC0
3C80
1F80
1F00
0F00
0F00
0F00
0F00
1F80
ENDCHAR
STARTCHAR Z.sc
ENCODING -1
SWIDTH 539 0
DWIDTH 11 0
BBX 9 11 1 0
BITMAP
FF80
C780
CF00
0F00
1E00
3C00
3C00
7800
7980
F180
FF80
ENDCHAR
STARTCHAR Agrave.sc
ENCODING -1
SWIDTH 636 0
DWIDTH 13 0
BBX 12 16 0 0
BITMAP
0800
1C00
1E00
0700
0000
0700
0700
0700
0F80
0B80
1BC0
11C0
1FC0
21E0
20E0
F3F0
ENDCHAR
STARTCHAR Aacute.sc
ENCODING -1
SWIDTH 636 0
DWIDTH 13 0
BBX 12 16 0 0
BITMAP
0100
0380
0780
0C00
0000
0700
0700
0700
0F80
0B80
1BC0
11C0
1FC0
21E0
20E0
F3F0
ENDCHAR
STARTCHAR Acircumflex.sc
ENCODING -1
SWIDTH 636 0
DWIDTH 13 0
BBX 12 16 0 0
BITMAP
0300
0700
0F80
18E0
1040
0700
0700
0700
0F80
0B80
1BC0
11C0
1FC0
21E0
20E0
F3F0
ENDCHAR
STARTCHAR Atilde.sc
ENCODING -1
SWIDTH 636 0
DWIDTH 13 0
BBX 12 15 0 0
BITMAP
0E40
1FC0
1380
0000
0700
0700
0700
0F80
0B80
1BC0
11C0
1FC0
21E0
20E0
F3F0
ENDCHAR
STARTCHAR Adieresis.sc
ENCODING -1
SWIDTH 636 0
DWIDTH 13 0
BBX 12 15 0 0
BITMAP
18C0
39E0
18C0
0000
0700
0700
0700
0F80
0B80
1BC0
11C0
1FC0
21E0
20E0
F3F0
ENDCHAR
STARTCHAR Amacron.sc
ENCODING -1
SWIDTH 636 0
DWIDTH 13 0
BBX 12 14 0 0
BITMAP
1FC0
1FC0
0000
0700
0700
0700
0F80
0B80
1BC0
11C0
1FC0
21E0
20E0
F3F0
ENDCHAR
STARTCHAR Abreve.sc
ENCODING -1
SWIDTH 636 0
DWIDTH 13 0
BBX 12 15 0 0
BITMAP
10C0
1F80
0F80
0000
0700
0700
0700
0F80
0B80
1BC0
11C0
1FC0
21E0
20E0
F3F0
ENDCHAR
STARTCHAR uni1EAE.sc
ENCODING -1
SWIDTH 636 0
DWIDTH 13 0
BBX 12 19 0 0
BITMAP
0080
0180
0380
0600
10C0
1F80
0F80
0000
0700
0700
0700
0F80
0B80
1BC0
11C0
1FC0
21E0
20E0
F3F0
ENDCHAR
STARTCHAR uni1EB6.sc
ENCODING -1
SWIDTH 636 0
DWIDTH 13 0
BBX 12 20 0 -5
BITMAP
10C0
1F80
0F80
0000
0700
0700
0700
0F80
0B80
1BC0
11C0
1FC0
21E0
20E0
F3F0
0000
0600
0F00
0F00
0600
ENDCHAR
STARTCHAR uni1EB0.sc
ENCODING -1
SWIDTH 636 0
DWIDTH 13 0
BBX 12 19 0 0
BITMAP
0800
1C00
0E00
0700
10C0
1F80
0F80
0000
0700
0700
0700
0F80
0B80
1BC0
11C0
1FC0
21E0
20E0
F3F0
ENDCHAR
STARTCHAR uni1EB2.sc
ENCODING -1
SWIDTH 636 0
DWIDTH 13 0
BBX 12 18 0 0
BITMAP
0700
0700
0500
12C0
1F80
0F80
0000
0700
0700
0700
0F80
0B80
1BC0
11C0
1FC0
21E0
20E0
F3F0
ENDCHAR
STARTCHAR uni1EB4.sc
ENCODING -1
SWIDTH 636 0
DWIDTH 13 0
BBX 12 18 0 0
BITMAP
1FC0
1FC0
0000
10C0
1F80
0F80
0000
0700
0700
0700
0F80
0B80
1BC0
11C0
1FC0
21E0
20E0
F3F0
ENDCHAR
STARTCHAR uni01CD.sc
ENCODING -1
SWIDTH 636 0
DWIDTH 13 0
BBX 12 16 0 0
BITMAP
1040
1DC0
0F80
0700
0000
0700
0700
0700
0F80
0B80
1BC0
11C0
1FC0
21E0
20E0
F3F0
ENDCHAR
STARTCHAR uni1EA4.sc
ENCODING -1
SWIDTH 636 0
DWIDTH 13 0
BBX 13 17 0 0
BITMAP
0010
0238
0770
0F80
18C0
1040
0700
0700
0700
0F80
0B80
1BC0
11C0
1FC0
21E0
20E0
F3F0
ENDCHAR
STARTCHAR uni1EAC.sc
ENCODING -1
SWIDTH 636 0
DWIDTH 13 0
BBX 12 21 0 -5
BITMAP
0300
0700
0F80
18E0
1040
0700
0700
0700
0F80
0B80
1BC0
11C0
1FC0
21E0
20E0
F3F0
0000
0600
0F00
0F00
0600
ENDCHAR
STARTCHAR uni1EA6.sc
ENCODING -1
SWIDTH 636 0
DWIDTH 13 0
BBX 12 17 0 0
BITMAP
4000
E200
7700
0F80
18C0
1040
0700
0700
0700
0F80
0B80
1BC0
11C0
1FC0
21E0
20E0
F3F0
ENDCHAR
STARTCHAR uni1EA8.sc
ENCODING -1
SWIDTH 636 0
DWIDTH 13 0
BBX 12 18 0 0
BITMAP
0060
0070
0330
0770
0F80
18E0
1040
0700
0700
0700
0F80
0B80
1BC0
11C0
1FC0
21E0
20E0
F3F0
ENDCHAR
STARTCHAR uni1EAA.sc
ENCODING -1
SWIDTH 636 0
DWIDTH 13 0
BBX 12 18 0 0
BITMAP
0FC0
1FC0
1100
0700
0F80
1CC0
1040
0700
0700
0700
0F80
0B80
1BC0
11C0
1FC0
21E0
20E0
F3F0
ENDCHAR
STARTCHAR uni1EA0.sc
ENCODING -1
SWIDTH 636 0
DWIDTH 13 0
BBX 12 16 0 -5
BITMAP
0700
0700
0700
0F80
0B80
1BC0
11C0
1FC0
21E0
20E0
F3F0
0000
0600
0F00
0F00
0600
ENDCHAR
STARTCHAR uni1EA2.sc
ENCODING -1
SWIDTH 636 0
DWIDTH 13 0
BBX 12 16 0 0
BITMAP
0700
0780
0100
0300
0000
0700
0700
0700
0F80
0B80
1BC0
11C0
1FC0
21E0
20E0
F3F0
ENDCHAR
STARTCHAR Aring.sc
ENCODING -1
SWIDTH 636 0
DWIDTH 13 0
BBX 12 16 0 0
BITMAP
0700
0D00
0D80
0700
0000
0700
0700
0700
0F80
0B80
1BC0
11C0
1FC0
21E0
20E0
F3F0
ENDCHAR
STARTCHAR Aogonek.sc
ENCODING -1
SWIDTH 636 0
DWIDTH 13 0
BBX 13 16 0 -5
BITMAP
0700
0700
0700
0F80
0B80
1BC0
11C0
1FC0
21E0
20E0
F3F0
0060
00E0
00E0
00F8
0020
ENDCHAR
STARTCHAR AE.sc
ENCODING -1
SWIDTH 824 0
DWIDTH 16 0
BBX 16 11 0 0
BITMAP
0FFE
07E3
07E3
05E0
0DE4
09FC
1FE4
31E0
21E3
61E3
F3FF
ENDCHAR
STARTCHAR Ccedilla.sc
ENCODING -1
SWIDTH 591 0
DWIDTH 12 0
BBX 10 16 1 -5
BITMAP
1F80
78C0
70C0
F000
F000
F000
F000
F000
F040
78C0
1FC0
0600
0700
0380
0F00
0600
ENDCHAR
STARTCHAR Cacute.sc
ENCODING -1
SWIDTH 591 0
DWIDTH 12 0
BBX 10 16 1 0
BITMAP
0080
01C0
0380
0600
0000
1F80
78C0
70C0
F000
F000
F000
F000
F000
F040
78C0
1FC0
ENDCHAR
STARTCHAR Ccaron.sc
ENCODING -1
SWIDTH 591 0
DWIDTH 12 0
BBX 10 16 1 0
BITMAP
1040
1DC0
0F80
0700
0000
1F80
78C0
70C0
F000
F000
F000
F000
F000
F040
78C0
1FC0
ENDCHAR
STARTCHAR Ccircumflex.sc
ENCODING -1
SWIDTH 591 0
DWIDTH 12 0
BBX 10 16 1 0
BITMAP
0600
0F00
1F80
31C0
2040
1F80
78C0
70C0
F000
F000
F000
F000
F000
F040
78C0
1FC0
ENDCHAR
STARTCHAR Cdotaccent.sc
ENCODING -1
SWIDTH 591 0
DWIDTH 12 0
BBX 10 15 1 0
BITMAP
0F00
0F00
0600
0000
1F80
78C0
70C0
F000
F000
F000
F000
F000
F040
78C0
1FC0
ENDCHAR
STARTCHAR Dcaron.sc
ENCODING -1
SWIDTH 673 0
DWIDTH 13 0
BBX 12 16 1 0
BITMAP
6180
3300
1E00
0C00
0000
FE00
7BC0
79E0
78E0
78F0
78F0
78F0
78E0
79E0
7BC0
FF00
ENDCHAR
STARTCHAR Dcroat.sc
ENCODING -1
SWIDTH 673 0
DWIDTH 13 0
BBX 12 11 1 0
BITMAP
FE00
7BC0
79E0
78E0
78F0
FEF0
78F0
78E0
79E0
7BC0
FF00
ENDCHAR
STARTCHAR uni1E0C.sc
ENCODING -1
SWIDTH 673 0
DWIDTH 13 0
BBX 12 16 1 -5
BITMAP
FE00
7BC0
79E0
78E0
78F0
78F0
78F0
78E0
79E0
7BC0
FF00
0000
0600
0E00
0F00
0600
ENDCHAR
STARTCHAR uni1E0E.sc
ENCODING -1
SWIDTH 673 0
DWIDTH 13 0
BBX 12 15 1 -4
BITMAP
FE00
7BC0
79E0
78E0
78F0
78F0
78F0
78E0
79E0
7BC0
FF00
0000
0000
3F80
3F80
ENDCHAR
STARTCHAR Egrave.sc
ENCODING -1
SWIDTH 565 0
DWIDTH 11 0
BBX 10 16 1 0
BITMAP
3000
3800
3C00
0E00
0000
FF80
7980
7980
7800
7B00
7F00
7900
7800
78C0
78C0
FFC0
ENDCHAR
STARTCHAR Eacute.sc
ENCODING -1
SWIDTH 565 0
DWIDTH 11 0
BBX 10 16 1 0
BITMAP
0200
0700
0F00
1800
0000
FF80
7980
7980
7800
7B00
7F00
7900
7800
78C0
78C0
FFC0
ENDCHAR
STARTCHAR Ecircumflex.sc
ENCODING -1
SWIDTH 565 0
DWIDTH 11 0
BBX 10 16 1 0
BITMAP
0C00
1E00
3F00
7180
4080
FF80
7980
7980
7800
7B00
7F00
7900
7800
78C0
78C0
FFC0
ENDCHAR
STARTCHAR Ecaron.sc
ENCODING -1
SWIDTH 565 0
DWIDTH 11 0
BBX 10 16 1 0
BITMAP
2080
3B80
1F00
0E00
0000
FF80
7980
7980
7800
7B00
7F00
7900
7800
78C0
78C0
FFC0
ENDCHAR
STARTCHAR Edieresis.sc
ENCODING -1
SWIDTH 565 0
DWIDTH 11 0
BBX 10 15 1 0
BITMAP
7180
7380
7180
0000
FF80
7980
7980
7800
7B00
7F00
7900
7800
78C0
78C0
FFC0
ENDCHAR
STARTCHAR Emacron.sc
ENCODING -1
SWIDTH 565 0
DWIDTH 11 0
BBX 10 14 1 0
BITMAP
3F80
3F80
0000
FF80
7980
7980
7800
7B00
7F00
7900
7800
78C0
78C0
FFC0
ENDCHAR
STARTCHAR Edotaccent.sc
ENCODING -1
SWIDTH 565 0
DWIDTH 11 0
BBX 10 15 1 0
BITMAP
0E00
0E00
0E00
0000
FF80
7980
7980
7800
7B00
7F00
7900
7800
78C0
78C0
FFC0
ENDCHAR
STARTCHAR Eogonek.sc
ENCODING -1
SWIDTH 565 0
DWIDTH 11 0
BBX 11 16 1 -5
BITMAP
FF80
7980
7980
7800
7B00
7F00
7900
7800
78C0
78C0
FFC0
0100
0300
0700
03E0
0180
ENDCHAR
STARTCHAR Ebreve.sc
ENCODING -1
SWIDTH 565 0
DWIDTH 11 0
BBX 10 15 1 0
BITMAP
2180
3F00
1E00
0000
FF80
7980
7980
7800
7B00
7F00
7900
7800
78C0
78C0
FFC0
ENDCHAR
STARTCHAR uni1EBE.sc
ENCODING -1
SWIDTH 565 0
DWIDTH 11 0
BBX 11 17 1 0
BITMAP
0060
0C60
1EE0
3F00
7180
4080
FF80
7980
7980
7800
7B00
7F00
7900
7800
78C0
78C0
FFC0
ENDCHAR
STARTCHAR uni1EC6.sc
ENCODING -1
SWIDTH 565 0
DWIDTH 11 0
BBX 10 21 1 -5
BITMAP
0C00
1E00
3F00
7180
4080
FF80
7980
7980
7800
7B00
7F00
7900
7800
78C0
78C0
FFC0
0000
0400
0E00
0E00
0C00
ENDCHAR
STARTCHAR uni1EC0.sc
ENCODING -1
SWIDTH 565 0
DWIDTH 11 0
BBX 11 17 0 0
BITMAP
C000
E600
6F00
1F80
38C0
2040
7FC0
3CC0
3CC0
3C00
3D80
3F80
3C80
3C00
3C60
3C60
7FE0
ENDCHAR
STARTCHAR uni1EC2.sc
ENCODING -1
SWIDTH 565 0
DWIDTH 11 0
BBX 11 18 1 0
BITMAP
00C0
01E0
0C60
1EC0
3F00
7180
4080
FF80
7980
7980
7800
7B00
7F00
7900
7800
78C0
78C0
FFC0
ENDCHAR
STARTCHAR uni1EC4.sc
ENCODING -1
SWIDTH 565 0
DWIDTH 11 0
BBX 10 18 1 0
BITMAP
3D80
3F00
6200
0E00
1F00
7380
4080
FF80
7980
7980
7800
7B00
7F00
7900
7800
78C0
78C0
FFC0
ENDCHAR
STARTCHAR uni1EB8.sc
ENCODING -1
SWIDTH 565 0
DWIDTH 11 0
BBX 10 16 1 -5
BITMAP
FF80
7980
7980
7800
7B00
7F00
7900
7800
78C0
78C0
FFC0
0000
0400
0E00
0E00
0C00
ENDCHAR
STARTCHAR uni1EBA.sc
ENCODING -1
SWIDTH 565 0
DWIDTH 11 0
BBX 10 16 1 0
BITMAP
0C00
0E00
0600
0C00
0000
FF80
7980
7980
7800
7B00
7F00
7900
7800
78C0
78C0
FFC0
ENDCHAR
STARTCHAR uni1EBC.sc
ENCODING -1
SWIDTH 565 0
DWIDTH 11 0
BBX 10 15 1 0
BITMAP
3D80
3F80
2700
0000
FF80
7980
7980
7800
7B00
7F00
7900
7800
78C0
78C0
FFC0
ENDCHAR
STARTCHAR Gbreve.sc
ENCODING -1
SWIDTH 638 0
DWIDTH 13 0
BBX 11 15 1 0
BITMAP
3080
1F80
0F00
0000
1FC0
78C0
70C0
F000
F000
F000
F7E0
F1C0
F1C0
79C0
1FC0
ENDCHAR
STARTCHAR Gdotaccent.sc
ENCODING -1
SWIDTH 638 0
DWIDTH 13 0
BBX 11 15 1 0
BITMAP
0F00
0F00
0600
0000
1FC0
78C0
70C0
F000
F000
F000
F7E0
F1C0
F1C0
79C0
1FC0
ENDCHAR
STARTCHAR uni0122.sc
ENCODING -1
SWIDTH 638 0
DWIDTH 13 0
BBX 11 17 1 -6
BITMAP
1FC0
78C0
70C0
F000
F000
F000
F7E0
F1C0
F1C0
79C0
1FC0
0000
0700
0700
0700
0600
0800
ENDCHAR
STARTCHAR Gcaron.sc
ENCODING -1
SWIDTH 638 0
DWIDTH 13 0
BBX 11 16 1 0
BITMAP
1040
1980
0F80
0700
0000
1FC0
78C0
70C0
F000
F000
F000
F7E0
F1C0
F1C0
79C0
1FC0
ENDCHAR
STARTCHAR Gcircumflex.sc
ENCODING -1
SWIDTH 638 0
DWIDTH 13 0
BBX 11 16 1 0
BITMAP
0600
0F00
1F80
38C0
2040
1FC0
78C0
70C0
F000
F000
F000
F7E0
F1C0
F1C0
79C0
1FC0
ENDCHAR
STARTCHAR uni1E9E.sc
ENCODING -1
SWIDTH 719 0
DWIDTH 14 0
BBX 13 11 1 0
BITMAP
1FC0
3C60
79C0
79C0
79C0
79F0
78F0
7878
7B78
7B70
FBF0
ENDCHAR
STARTCHAR uni1E20.sc
ENCODING -1
SWIDTH 638 0
DWIDTH 13 0
BBX 11 14 1 0
BITMAP
1FC0
1FC0
0000
1FC0
78C0
70C0
F000
F000
F000
F7E0
F1C0
F1C0
79C0
1FC0
ENDCHAR
STARTCHAR uni00470303.sc
ENCODING -1
SWIDTH 638 0
DWIDTH 13 0
BBX 11 15 1 0
BITMAP
0E40
1FC0
1380
0000
1FC0
78C0
70C0
F000
F000
F000
F7E0
F1C0
F1C0
79C0
1FC0
ENDCHAR
STARTCHAR Hbar.sc
ENCODING -1
SWIDTH 722 0
DWIDTH 14 0
BBX 13 11 1 0
BITMAP
FDF8
78E0
78E0
FFF8
78E0
7FE0
7FE0
78E0
78E0
78E0
FDF8
ENDCHAR
STARTCHAR uni1E2A.sc
ENCODING -1
SWIDTH 722 0
DWIDTH 14 0
BBX 13 16 1 -5
BITMAP
FDF8
78E0
78E0
78E0
78E0
7FE0
78E0
78E0
78E0
78E0
FDF8
0000
10C0
1880
0F80
0700
ENDCHAR
STARTCHAR Hcircumflex.sc
ENCODING -1
SWIDTH 722 0
DWIDTH 14 0
BBX 13 16 1 0
BITMAP
0600
0F00
1F80
38C0
2040
FDF8
78E0
78E0
78E0
78E0
7FE0
78E0
78E0
78E0
78E0
FDF8
ENDCHAR
STARTCHAR uni1E24.sc
ENCODING -1
SWIDTH 722 0
DWIDTH 14 0
BBX 13 16 1 -5
BITMAP
FDF8
78E0
78E0
78E0
78E0
7FE0
78E0
78E0
78E0
78E0
FDF8
0000
0600
0F00
0F00
0600
ENDCHAR
STARTCHAR Igrave.sc
ENCODING -1
SWIDTH 389 0
DWIDTH 8 0
BBX 6 16 1 0
BITMAP
C0
E0
F0
38
00
FC
78
78
78
78
78
78
78
78
78
FC
ENDCHAR
STARTCHAR Iacute.sc
ENCODING -1
SWIDTH 389 0
DWIDTH 8 0
BBX 6 16 1 0
BITMAP
08
1C
3C
60
00
FC
78
78
78
78
78
78
78
78
78
FC
ENDCHAR
STARTCHAR Icircumflex.sc
ENCODING -1
SWIDTH 389 0
DWIDTH 8 0
BBX 8 16 0 0
BITMAP
18
3C
7E
C7
81
7E
3C
3C
3C
3C
3C
3C
3C
3C
3C
7E
ENDCHAR
STARTCHAR Idieresis.sc
ENCODING -1
SWIDTH 389 0
DWIDTH 8 0
BBX 7 15 0 0
BITMAP
66
EE
66
00
7E
3C
3C
3C
3C
3C
3C
3C
3C
3C
7E
ENDCHAR
STARTCHAR Imacron.sc
ENCODING -1
SWIDTH 389 0
DWIDTH 8 0
BBX 6 14 1 0
BITMAP
FC
FC
00
FC
78
78
78
78
78
78
78
78
78
FC
ENDCHAR
STARTCHAR Idotaccent.sc
ENCODING -1
SWIDTH 389 0
DWIDTH 8 0
BBX 6 15 1 0
BITMAP
78
78
30
00
FC
78
78
78
78
78
78
78
78
78
FC
ENDCHAR
STARTCHAR Iogonek.sc
ENCODING -1
SWIDTH 389 0
DWIDTH 8 0
BBX 6 16 1 -5
BITMAP
FC
78
78
78
78
78
78
78
78
78
FC
60
60
E0
7C
20
ENDCHAR
STARTCHAR uni01CF.sc
ENCODING -1
SWIDTH 389 0
DWIDTH 8 0
BBX 8 16 0 0
BITMAP
C3
66
3C
38
00
7E
3C
3C
3C
3C
3C
3C
3C
3C
3C
7E
ENDCHAR
STARTCHAR uni1ECA.sc
ENCODING -1
SWIDTH 389 0
DWIDTH 8 0
BBX 6 16 1 -5
BITMAP
FC
78
78
78
78
78
78
78
78
78
FC
00
30
78
78
30
ENDCHAR
STARTCHAR uni1EC8.sc
ENCODING -1
SWIDTH 389 0
DWIDTH 8 0
BBX 6 16 1 0
BITMAP
30
78
18
30
00
FC
78
78
78
78
78
78
78
78
78
FC
ENDCHAR
STARTCHAR Itilde.sc
ENCODING -1
SWIDTH 389 0
DWIDTH 8 0
BBX 8 15 0 0
BITMAP
73
7E
DE
00
7E
3C
3C
3C
3C
3C
3C
3C
3C
3C
7E
ENDCHAR
STARTCHAR Jcircumflex.sc
ENCODING -1
SWIDTH 390 0
DWIDTH 8 0
BBX 9 19 -2 -3
BITMAP
0400
0E00
1F00
3180
2080
1F80
0F00
0F00
0F00
0F00
0F00
0F00
0F00
0F00
0F00
0E00
6E00
FC00
7800
ENDCHAR
STARTCHAR uni0136.sc
ENCODING -1
SWIDTH 668 0
DWIDTH 13 0
BBX 12 17 1 -6
BITMAP
FDE0
78C0
7980
7B00
7B00
7F80
7F80
7BC0
7BC0
79E0
FDF0
0000
0600
0F00
0600
0C00
0800
ENDCHAR
STARTCHAR Lacute.sc
ENCODING -1
SWIDTH 545 0
DWIDTH 11 0
BBX 10 16 1 0
BITMAP
0400
0E00
1C00
3000
0000
FC00
7800
7800
7800
7800
7800
7800
7800
78C0
78C0
FF80
ENDCHAR
STARTCHAR Lcaron.sc
ENCODING -1
SWIDTH 545 0
DWIDTH 11 0
BBX 10 12 1 0
BITMAP
00C0
FCC0
78C0
7880
7800
7800
7800
7800
7800
78C0
78C0
FF80
ENDCHAR
STARTCHAR uni013B.sc
ENCODING -1
SWIDTH 545 0
DWIDTH 11 0
BBX 10 17 1 -6
BITMAP
FC00
7800
7800
7800
7800
7800
7800
7800
78C0
78C0
FF80
0000
0C00
1C00
0C00
1800
1000
ENDCHAR
STARTCHAR Ldot.sc
ENCODING -1
SWIDTH 545 0
DWIDTH 11 0
BBX 10 11 1 0
BITMAP
FC00
7800
7880
7BC0
7BC0
79C0
7800
7800
78C0
78C0
FF80
ENDCHAR
STARTCHAR uni1E36.sc
ENCODING -1
SWIDTH 545 0
DWIDTH 11 0
BBX 10 16 1 -5
BITMAP
FC00
7800
7800
7800
7800
7800
7800
7800
78C0
78C0
FF80
0000
0C00
1E00
1E00
0C00
ENDCHAR
STARTCHAR uni1E38.sc
ENCODING -1
SWIDTH 545 0
DWIDTH 11 0
BBX 10 19 1 -5
BITMAP
FC00
FC00
0000
FC00
7800
7800
7800
7800
7800
7800
7800
78C0
78C0
FF80
0000
0C00
1E00
1E00
0C00
ENDCHAR
STARTCHAR uni1E3A.sc
ENCODING -1
SWIDTH 545 0
DWIDTH 11 0
BBX 10 15 1 -4
BITMAP
FC00
7800
7800
7800
7800
7800
7800
7800
78C0
78C0
FF80
0000
0000
3F00
3F00
ENDCHAR
STARTCHAR Lslash.sc
ENCODING -1
SWIDTH 545 0
DWIDTH 11 0
BBX 10 11 1 0
BITMAP
FC00
7800
7800
7A00
7E00
7C00
F800
F800
78C0
78C0
FF80
ENDCHAR
STARTCHAR uni1E3E.sc
ENCODING -1
SWIDTH 841 0
DWIDTH 17 0
BBX 16 16 0 0
BITMAP
0020
0070
00E0
0180
0000
7C1F
3C3E
3E3E
2E3E
3F7E
3F5E
375E
37DE
339E
339E
FBBF
ENDCHAR
STARTCHAR uni1E42.sc
ENCODING -1
SWIDTH 841 0
DWIDTH 17 0
BBX 16 16 0 -5
BITMAP
7C1F
3C3E
3E3E
2E3E
3F7E
3F5E
375E
37DE
339E
339E
FBBF
0000
0100
0380
0380
0180
ENDCHAR
STARTCHAR Nacute.sc
ENCODING -1
SWIDTH 690 0
DWIDTH 14 0
BBX 12 16 1 0
BITMAP
0180
0380
0780
0E00
0000
F1F0
78E0
7C60
7E60
7F60
6FE0
67E0
63E0
61E0
61E0
F8E0
ENDCHAR
STARTCHAR uni01F8.sc
ENCODING -1
SWIDTH 690 0
DWIDTH 14 0
BBX 12 16 1 0
BITMAP
1000
1C00
1E00
0700
0000
F1F0
78E0
7C60
7E60
7F60
6FE0
67E0
63E0
61E0
61E0
F8E0
ENDCHAR
STARTCHAR Ncaron.sc
ENCODING -1
SWIDTH 690 0
DWIDTH 14 0
BBX 12 16 1 0
BITMAP
2080
1B80
1F00
0E00
0000
F1F0
78E0
7C60
7E60
7F60
6FE0
67E0
63E0
61E0
61E0
F8E0
ENDCHAR
STARTCHAR Ntilde.sc
ENCODING -1
SWIDTH 690 0
DWIDTH 14 0
BBX 12 15 1 0
BITMAP
1C80
3F80
2700
0000
F1F0
78E0
7C60
7E60
7F60
6FE0
67E0
63E0
61E0
61E0
F8E0
ENDCHAR
STARTCHAR uni0145.sc
ENCODING -1
SWIDTH 690 0
DWIDTH 14 0
BBX 12 17 1 -6
BITMAP
F1F0
78E0
7C60
7E60
7F60
6FE0
67E0
63E0
61E0
61E0
F8E0
0000
0700
0700
0700
0600
0800
ENDCHAR
STARTCHAR uni1E44.sc
ENCODING -1
SWIDTH 690 0
DWIDTH 14 0
BBX 12 15 1 0
BITMAP
0E00
0F00
0E00
0000
F1F0
78E0
7C60
7E60
7F60
6FE0
67E0
63E0
61E0
61E0
F8E0
ENDCHAR
STARTCHAR uni1E46.sc
ENCODING -1
SWIDTH 690 0
DWIDTH 14 0
BBX 12 16 1 -5
BITMAP
F1F0
78E0
7C60
7E60
7F60
6FE0
67E0
63E0
61E0
61E0
F8E0
0000
0600
0F00
0F00
0600
ENDCHAR
STARTCHAR uni1E48.sc
ENCODING -1
SWIDTH 690 0
DWIDTH 14 0
BBX 12 15 1 -4
BITMAP
F1F0
78E0
7C60
7E60
7F60
6FE0
67E0
63E0
61E0
61E0
F8E0
0000
0000
3F80
3F80
ENDCHAR
STARTCHAR Ograve.sc
ENCODING -1
SWIDTH 670 0
DWIDTH 13 0
BBX 12 16 1 0
BITMAP
1000
1C00
1E00
0700
0000
1F00
79C0
71E0
F0E0
F0F0
F0F0
F0F0
F0E0
F0E0
71C0
3F80
ENDCHAR
STARTCHAR Oacute.sc
ENCODING -1
SWIDTH 670 0
DWIDTH 13 0
BBX 12 16 1 0
BITMAP
0100
0380
0700
0C00
0000
1F00
79C0
71E0
F0E0
F0F0
F0F0
F0F0
F0E0
F0E0
71C0
3F80
ENDCHAR
STARTCHAR uni014E.sc
ENCODING -1
SWIDTH 670 0
DWIDTH 13 0
BBX 12 15 1 0
BITMAP
3080
1F80
0F00
0000
1F00
79C0
71E0
F0E0
F0F0
F0F0
F0F0
F0E0
F0E0
71C0
3F80
ENDCHAR
STARTCHAR Ocircumflex.sc
ENCODING -1
SWIDTH 670 0
DWIDTH 13 0
BBX 12 16 1 0
BITMAP
0600
0F00
1F80
31C0
2080
1F00
79C0
71E0
F0E0
F0F0
F0F0
F0F0
F0E0
F0E0
71C0
3F80
ENDCHAR
STARTCHAR Otilde.sc
ENCODING -1
SWIDTH 670 0
DWIDTH 13 0
BBX 12 15 1 0
BITMAP
1C80
3F80
2700
0000
1F00
79C0
71E0
F0E0
F0F0
F0F0
F0F0
F0E0
F0E0
71C0
3F80
ENDCHAR
STARTCHAR Odieresis.sc
ENCODING -1
SWIDTH 670 0
DWIDTH 13 0
BBX 12 15 1 0
BITMAP
31C0
39C0
31C0
0000
1F00
79C0
71E0
F0E0
F0F0
F0F0
F0F0
F0E0
F0E0
71C0
3F80
ENDCHAR
STARTCHAR Omacron.sc
ENCODING -1
SWIDTH 670 0
DWIDTH 13 0
BBX 12 14 1 0
BITMAP
3F80
3F80
0000
1F00
79C0
71E0
F0E0
F0F0
F0F0
F0F0
F0E0
F0E0
71C0
3F80
ENDCHAR
STARTCHAR Ohungarumlaut.sc
ENCODING -1
SWIDTH 670 0
DWIDTH 13 0
BBX 12 16 1 0
BITMAP
06C0
0DC0
0D80
1900
0000
1F00
79C0
71E0
F0E0
F0F0
F0F0
F0F0
F0E0
F0E0
71C0
3F80
ENDCHAR
STARTCHAR uni01D1.sc
ENCODING -1
SWIDTH 670 0
DWIDTH 13 0
BBX 12 16 1 0
BITMAP
2080
1B80
1F00
0E00
0000
1F00
79C0
71E0
F0E0
F0F0
F0F0
F0F0
F0E0
F0E0
71C0
3F80
ENDCHAR
STARTCHAR uni1ED0.sc
ENCODING -1
SWIDTH 670 0
DWIDTH 13 0
BBX 12 17 1 0
BITMAP
0030
0670
0F60
1F80
31C0
2080
1F00
79C0
71E0
F0E0
F0F0
F0F0
F0F0
F0E0
F0E0
71C0
3F80
ENDCHAR
STARTCHAR uni1ED8.sc
ENCODING -1
SWIDTH 670 0
DWIDTH 13 0
BBX 12 21 1 -5
BITMAP
0600
0F00
1F80
31C0
2080
1F00
79C0
71E0
F0E0
F0F0
F0F0
F0F0
F0E0
F0E0
71C0
3F80
0000
0600
0E00
0F00
0600
ENDCHAR
STARTCHAR uni1ED2.sc
ENCODING -1
SWIDTH 670 0
DWIDTH 13 0
BBX 12 17 1 0
BITMAP
C000
C600
EF00
1F80
31C0
2080
1F00
79C0
71E0
F0E0
F0F0
F0F0
F0F0
F0E0
F0E0
71C0
3F80
ENDCHAR
STARTCHAR uni1ED4.sc
ENCODING -1
SWIDTH 670 0
DWIDTH 13 0
BBX 12 18 1 0
BITMAP
00E0
00E0
0620
0F60
1F80
31C0
2080
1F00
79C0
71E0
F0E0
F0F0
F0F0
F0F0
F0E0
F0E0
71C0
3F80
ENDCHAR
STARTCHAR uni1ED6.sc
ENCODING -1
SWIDTH 670 0
DWIDTH 13 0
BBX 12 18 1 0
BITMAP
1E80
3F80
2100
0E00
1F00
39C0
2080
1F00
79C0
71E0
F0E0
F0F0
F0F0
F0F0
F0E0
F0E0
71C0
3F80
ENDCHAR
STARTCHAR uni1ECC.sc
ENCODING -1
SWIDTH 670 0
DWIDTH 13 0
BBX 12 16 1 -5
BITMAP
1F00
79C0
71E0
F0E0
F0F0
F0F0
F0F0
F0E0
F0E0
71C0
3F80
0000
0600
0E00
0F00
0600
ENDCHAR
STARTCHAR uni1ECE.sc
ENCODING -1
SWIDTH 670 0
DWIDTH 13 0
BBX 12 16 1 0
BITMAP
0E00
0F00
0300
0600
0000
1F00
79C0
71E0
F0E0
F0F0
F0F0
F0F0
F0E0
F0E0
71C0
3F80
ENDCHAR
STARTCHAR Ohorn.sc
ENCODING -1
SWIDTH 670 0
DWIDTH 13 0
BBX 12 15 1 0
BITMAP
0030
0030
0030
0030
1F60
79C0
71E0
F0E0
F0F0
F0F0
F0F0
F0E0
F0E0
71C0
3F80
ENDCHAR
STARTCHAR uni1EDA.sc
ENCODING -1
SWIDTH 670 0
DWIDTH 13 0
BBX 12 16 1 0
BITMAP
0100
03B0
0730
0C30
0030
1F60
79C0
71E0
F0E0
F0F0
F0F0
F0F0
F0E0
F0E0
71C0
3F80
ENDCHAR
STARTCHAR uni1EE2.sc
ENCODING -1
SWIDTH 670 0
DWIDTH 13 0
BBX 12 20 1 -5
BITMAP
0030
0030
0030
0030
1F60
79C0
71E0
F0E0
F0F0
F0F0
F0F0
F0E0
F0E0
71C0
3F80
0000
0600
0E00
0F00
0600
ENDCHAR
STARTCHAR uni1EDC.sc
ENCODING -1
SWIDTH 670 0
DWIDTH 13 0
BBX 12 16 1 0
BITMAP
1000
1C30
1E30
0730
0030
1F60
79C0
71E0
F0E0
F0F0
F0F0
F0F0
F0E0
F0E0
71C0
3F80
ENDCHAR
STARTCHAR uni1EDE.sc
ENCODING -1
SWIDTH 670 0
DWIDTH 13 0
BBX 12 16 1 0
BITMAP
0E00
0F30
0330
0630
0030
1F60
79C0
71E0
F0E0
F0F0
F0F0
F0F0
F0E0
F0E0
71C0
3F80
ENDCHAR
STARTCHAR uni1EE0.sc
ENCODING -1
SWIDTH 670 0
DWIDTH 13 0
BBX 12 15 1 0
BITMAP
1CB0
3FB0
2730
0030
1F60
79C0
71E0
F0E0
F0F0
F0F0
F0F0
F0E0
F0E0
71C0
3F80
ENDCHAR
STARTCHAR Oslash.sc
ENCODING -1
SWIDTH 670 0
DWIDTH 13 0
BBX 12 12 1 -1
BITMAP
1F60
79C0
71E0
F1E0
F3F0
F6F0
FCF0
F8E0
F0E0
71C0
FF80
4000
ENDCHAR
STARTCHAR OE.sc
ENCODING -1
SWIDTH 874 0
DWIDTH 17 0
BBX 16 11 1 0
BITMAP
1FFE
39E3
71E3
F1E0
F1E4
F1FC
F1E4
F1E0
F1E3
79E3
1FFF
ENDCHAR
STARTCHAR Racute.sc
ENCODING -1
SWIDTH 652 0
DWIDTH 13 0
BBX 12 16 1 0
BITMAP
0100
0380
0700
0C00
0000
FF00
7BC0
79E0
79C0
79C0
7E00
7BC0
79C0
79C0
79E0
FDF0
ENDCHAR
STARTCHAR Rcaron.sc
ENCODING -1
SWIDTH 652 0
DWIDTH 13 0
BBX 12 16 1 0
BITMAP
2080
3B80
1F00
0E00
0000
FF00
7BC0
79E0
79C0
79C0
7E00
7BC0
79C0
79C0
79E0
FDF0
ENDCHAR
STARTCHAR uni0156.sc
ENCODING -1
SWIDTH 652 0
DWIDTH 13 0
BBX 12 17 1 -6
BITMAP
FF00
7BC0
79E0
79C0
79C0
7E00
7BC0
79C0
79C0
79E0
FDF0
0000
0700
0700
0700
0600
0400
ENDCHAR
STARTCHAR uni1E5A.sc
ENCODING -1
SWIDTH 652 0
DWIDTH 13 0
BBX 12 16 1 -5
BITMAP
FF00
7BC0
79E0
79C0
79C0
7E00
7BC0
79C0
79C0
79E0
FDF0
0000
0600
0F00
0F00
0600
ENDCHAR
STARTCHAR uni1E5C.sc
ENCODING -1
SWIDTH 652 0
DWIDTH 13 0
BBX 12 19 1 -5
BITMAP
3F80
3F80
0000
FF00
7BC0
79E0
79C0
79C0
7E00
7BC0
79C0
79C0
79E0
FDF0
0000
0600
0F00
0F00
0600
ENDCHAR
STARTCHAR uni1E5E.sc
ENCODING -1
SWIDTH 652 0
DWIDTH 13 0
BBX 12 15 1 -4
BITMAP
FF00
7BC0
79E0
79C0
79C0
7E00
7BC0
79C0
79C0
79E0
FDF0
0000
0000
3F80
3F80
ENDCHAR
STARTCHAR Sacute.sc
ENCODING -1
SWIDTH 533 0
DWIDTH 11 0
BBX 9 16 1 0
BITMAP
0200
0F00
1E00
3800
0000
3F00
7300
E300
F000
FC00
7F00
1F80
0780
C380
C380
FF00
ENDCHAR
STARTCHAR Scaron.sc
ENCODING -1
SWIDTH 533 0
DWIDTH 11 0
BBX 9 16 1 0
BITMAP
4100
3300
3E00
1C00
0000
3F00
7300
E300
F000
FC00
7F00
1F80
0780
C380
C380
FF00
ENDCHAR
STARTCHAR uni015E.sc
ENCODING -1
SWIDTH 533 0
DWIDTH 11 0
BBX 9 16 1 -5
BITMAP
3F00
7300
E300
F000
FC00
7F00
1F80
0780
C380
C380
FF00
1800
1C00
0E00
3C00
1800
ENDCHAR
STARTCHAR uni0218.sc
ENCODING -1
SWIDTH 533 0
DWIDTH 11 0
BBX 9 17 1 -6
BITMAP
3F00
7300
E300
F000
FC00
7F00
1F80
0780
C380
C380
FF00
0000
1C00
1C00
1C00
1800
1000
ENDCHAR
STARTCHAR Scircumflex.sc
ENCODING -1
SWIDTH 533 0
DWIDTH 11 0
BBX 9 16 1 0
BITMAP
0800
1C00
3E00
6380
4100
3F00
7300
E300
F000
FC00
7F00
1F80
0780
C380
C380
FF00
ENDCHAR
STARTCHAR uni1E60.sc
ENCODING -1
SWIDTH 533 0
DWIDTH 11 0
BBX 9 15 1 0
BITMAP
1C00
1C00
1C00
0000
3F00
7300
E300
F000
FC00
7F00
1F80
0780
C380
C380
FF00
ENDCHAR
STARTCHAR uni1E62.sc
ENCODING -1
SWIDTH 533 0
DWIDTH 11 0
BBX 9 16 1 -5
BITMAP
3F00
7300
E300
F000
FC00
7F00
1F80
0780
C380
C380
FF00
0000
0800
1C00
1C00
1C00
ENDCHAR
STARTCHAR Tcaron.sc
ENCODING -1
SWIDTH 611 0
DWIDTH 12 0
BBX 11 16 1 0
BITMAP
6180
3300
1E00
0E00
0000
FFE0
DE60
9E60
1E00
1E00
1E00
1E00
1E00
1E00
1E00
3F00
ENDCHAR
STARTCHAR uni0162.sc
ENCODING -1
SWIDTH 611 0
DWIDTH 12 0
BBX 11 16 1 -5
BITMAP
FFE0
DE60
9E60
1E00
1E00
1E00
1E00
1E00
1E00
1E00
3F00
0C00
0E00
0700
1E00
0C00
ENDCHAR
STARTCHAR uni021A.sc
ENCODING -1
SWIDTH 611 0
DWIDTH 12 0
BBX 11 17 1 -6
BITMAP
FFE0
DE60
9E60
1E00
1E00
1E00
1E00
1E00
1E00
1E00
3F00
0000
0C00
1E00
0C00
1800
1000
ENDCHAR
STARTCHAR uni1E97.sc
ENCODING -1
SWIDTH 611 0
DWIDTH 12 0
BBX 11 15 1 0
BITMAP
7380
7380
7380
0000
FFE0
DE60
9E60
1E00
1E00
1E00
1E00
1E00
1E00
1E00
3F00
ENDCHAR
STARTCHAR uni1E6C.sc
ENCODING -1
SWIDTH 611 0
DWIDTH 12 0
BBX 11 16 1 -5
BITMAP
FFE0
DE60
9E60
1E00
1E00
1E00
1E00
1E00
1E00
1E00
3F00
0000
0C00
1E00
1E00
0C00
ENDCHAR
STARTCHAR uni1E6E.sc
ENCODING -1
SWIDTH 611 0
DWIDTH 12 0
BBX 11 15 1 -4
BITMAP
FFE0
DE60
9E60
1E00
1E00
1E00
1E00
1E00
1E00
1E00
3F00
0000
0000
3F80
3F80
ENDCHAR
STARTCHAR Ugrave.sc
ENCODING -1
SWIDTH 696 0
DWIDTH 14 0
BBX 12 16 1 0
BITMAP
0800
1C00
1E00
0300
0000
FCF0
7860
7860
7860
7860
7860
7860
7860
7860
3CC0
1F80
ENDCHAR
STARTCHAR Uacute.sc
ENCODING -1
SWIDTH 696 0
DWIDTH 14 0
BBX 12 16 1 0
BITMAP
0040
01C0
03C0
0700
0000
FCF0
7860
7860
7860
7860
7860
7860
7860
7860
3CC0
1F80
ENDCHAR
STARTCHAR Ucircumflex.sc
ENCODING -1
SWIDTH 696 0
DWIDTH 14 0
BBX 12 16 1 0
BITMAP
0300
0780
0FC0
1CE0
1020
FCF0
7860
7860
7860
7860
7860
7860
7860
7860
3CC0
1F80
ENDCHAR
STARTCHAR Udieresis.sc
ENCODING -1
SWIDTH 696 0
DWIDTH 14 0
BBX 12 15 1 0
BITMAP
1CE0
1CE0
1CE0
0000
FCF0
7860
7860
7860
7860
7860
7860
7860
7860
3CC0
1F80
ENDCHAR
STARTCHAR Umacron.sc
ENCODING -1
SWIDTH 696 0
DWIDTH 14 0
BBX 12 14 1 0
BITMAP
1FC0
1FC0
0000
FCF0
7860
7860
7860
7860
7860
7860
7860
7860
3CC0
1F80
ENDCHAR
STARTCHAR Uring.sc
ENCODING -1
SWIDTH 696 0
DWIDTH 14 0
BBX 12 16 1 0
BITMAP
0300
0480
0480
0780
0000
FCF0
7860
7860
7860
7860
7860
7860
7860
7860
3CC0
1F80
ENDCHAR
STARTCHAR Uhungarumlaut.sc
ENCODING -1
SWIDTH 696 0
DWIDTH 14 0
BBX 12 16 1 0
BITMAP
0360
0760
06C0
0C80
0000
FCF0
7860
7860
7860
7860
7860
7860
7860
7860
3CC0
1F80
ENDCHAR
STARTCHAR Uogonek.sc
ENCODING -1
SWIDTH 696 0
DWIDTH 14 0
BBX 12 15 1 -4
BITMAP
FCF0
7860
7860
7860
7860
7860
7860
7860
7860
3CC0
1F80
0300
0700
07C0
0380
ENDCHAR
STARTCHAR Ubreve.sc
ENCODING -1
SWIDTH 696 0
DWIDTH 14 0
BBX 12 15 1 0
BITMAP
1840
0FC0
0780
0000
FCF0
7860
7860
7860
7860
7860
7860
7860
7860
3CC0
1F80
ENDCHAR
STARTCHAR uni01D3.sc
ENCODING -1
SWIDTH 696 0
DWIDTH 14 0
BBX 12 16 1 0
BITMAP
1860
0CC0
0780
0700
0000
FCF0
7860
7860
7860
7860
7860
7860
7860
7860
3CC0
1F80
ENDCHAR
STARTCHAR uni01D7.sc
ENCODING -1
SWIDTH 696 0
DWIDTH 14 0
BBX 12 18 1 0
BITMAP
01C0
01C0
0300
1CE0
1CE0
1CE0
0000
FCF0
7860
7860
7860
7860
7860
7860
7860
7860
3CC0
1F80
ENDCHAR
STARTCHAR uni01D9.sc
ENCODING -1
SWIDTH 696 0
DWIDTH 14 0
BBX 12 19 1 0
BITMAP
1860
0CC0
0780
0700
1CE0
1CE0
1CE0
0000
FCF0
7860
7860
7860
7860
7860
7860
7860
7860
3CC0
1F80
ENDCHAR
STARTCHAR uni01DB.sc
ENCODING -1
SWIDTH 696 0
DWIDTH 14 0
BBX 12 18 1 0
BITMAP
0C00
0E00
0300
1CE0
1CE0
1CE0
0000
FCF0
7860
7860
7860
7860
7860
7860
7860
7860
3CC0
1F80
ENDCHAR
STARTCHAR uni01D5.sc
ENCODING -1
SWIDTH 696 0
DWIDTH 14 0
BBX 12 17 1 0
BITMAP
0FC0
0FC0
1CE0
1CE0
1CE0
0000
FCF0
7860
7860
7860
7860
7860
7860
7860
7860
3CC0
1F80
ENDCHAR
STARTCHAR uni1EE4.sc
ENCODING -1
SWIDTH 696 0
DWIDTH 14 0
BBX 12 16 1 -5
BITMAP
FCF0
7860
7860
7860
7860
7860
7860
7860
7860
3CC0
1F80
0000
0600
0F00
0F00
0600
ENDCHAR
STARTCHAR uni1EE6.sc
ENCODING -1
SWIDTH 696 0
DWIDTH 14 0
BBX 12 16 1 0
BITMAP
0300
0380
0180
0300
0000
FCF0
7860
7860
7860
7860
7860
7860
7860
7860
3CC0
1F80
ENDCHAR
STARTCHAR Uhorn.sc
ENCODING -1
SWIDTH 696 0
DWIDTH 14 0
BBX 13 13 1 0
BITMAP
0018
0018
FCF8
7860
7860
7860
7860
7860
7860
7860
7860
3CC0
1F80
ENDCHAR
STARTCHAR uni1EE8.sc
ENCODING -1
SWIDTH 696 0
DWIDTH 14 0
BBX 13 16 1 0
BITMAP
0040
01C0
03C0
0718
0018
FCF8
7860
7860
7860
7860
7860
7860
7860
7860
3CC0
1F80
ENDCHAR
STARTCHAR uni1EF0.sc
ENCODING -1
SWIDTH 696 0
DWIDTH 14 0
BBX 13 18 1 -5
BITMAP
0018
0018
FCF8
7860
7860
7860
7860
7860
7860
7860
7860
3CC0
1F80
0000
0200
0700
0700
0600
ENDCHAR
STARTCHAR uni1EEA.sc
ENCODING -1
SWIDTH 696 0
DWIDTH 14 0
BBX 13 16 1 0
BITMAP
1000
3C00
1E00
0718
0018
FCF8
7860
7860
7860
7860
7860
7860
7860
7860
3CC0
1F80
ENDCHAR
STARTCHAR uni1EEC.sc
ENCODING -1
SWIDTH 696 0
DWIDTH 14 0
BBX 13 16 1 0
BITMAP
0300
0780
0180
0318
0018
FCF8
7860
7860
7860
7860
7860
7860
7860
7860
3CC0
1F80
ENDCHAR
STARTCHAR uni1EEE.sc
ENCODING -1
SWIDTH 696 0
DWIDTH 14 0
BBX 13 15 1 0
BITMAP
0E40
1FC0
1398
0018
FCF8
7860
7860
7860
7860
7860
7860
7860
7860
3CC0
1F80
ENDCHAR
STARTCHAR Utilde.sc
ENCODING -1
SWIDTH 696 0
DWIDTH 14 0
BBX 12 15 1 0
BITMAP
0E60
0FC0
19C0
0000
FCF0
7860
7860
7860
7860
7860
7860
7860
7860
3CC0
1F80
ENDCHAR
STARTCHAR Wacute.sc
ENCODING -1
SWIDTH 911 0
DWIDTH 18 0
BBX 18 16 0 0
BITMAP
001000
003800
007800
00E000
000000
FDF9C0
787180
38F180
38F100
3CF900
1DBB00
1D3A00
1F3E00
0E1C00
0E1C00
0E1C00
ENDCHAR
STARTCHAR Wcircumflex.sc
ENCODING -1
SWIDTH 911 0
DWIDTH 18 0
BBX 18 16 0 0
BITMAP
006000
00F000
01F800
038C00
020400
FDF9C0
787180
38F180
38F100
3CF900
1DBB00
1D3A00
1F3E00
0E1C00
0E1C00
0E1C00
ENDCHAR
STARTCHAR Wdieresis.sc
ENCODING -1
SWIDTH 911 0
DWIDTH 18 0
BBX 18 15 0 0
BITMAP
039C00
039C00
039C00
000000
FDF9C0
787180
38F180
38F100
3CF900
1DBB00
1D3A00
1F3E00
0E1C00
0E1C00
0E1C00
ENDCHAR
STARTCHAR Wgrave.sc
ENCODING -1
SWIDTH 911 0
DWIDTH 18 0
BBX 18 16 0 0
BITMAP
010000
038000
03C000
00E000
000000
FDF9C0
787180
38F180
38F100
3CF900
1DBB00
1D3A00
1F3E00
0E1C00
0E1C00
0E1C00
ENDCHAR
STARTCHAR Yacute.sc
ENCODING -1
SWIDTH 577 0
DWIDTH 12 0
BBX 11 16 0 0
BITMAP
00C0
01C0
03C0
0700
0000
FCE0
7860
3CC0
3C80
1F80
1F00
0F00
0F00
0F00
0F00
1F80
ENDCHAR
STARTCHAR Ydieresis.sc
ENCODING -1
SWIDTH 577 0
DWIDTH 12 0
BBX 11 15 0 0
BITMAP
18E0
1CE0
18E0
0000
FCE0
7860
3CC0
3C80
1F80
1F00
0F00
0F00
0F00
0F00
1F80
ENDCHAR
STARTCHAR Ycircumflex.sc
ENCODING -1
SWIDTH 577 0
DWIDTH 12 0
BBX 11 16 0 0
BITMAP
0300
0780
0FC0
18E0
1020
FCE0
7860
3CC0
3C80
1F80
1F00
0F00
0F00
0F00
0F00
1F80
ENDCHAR
STARTCHAR uni1E8E.sc
ENCODING -1
SWIDTH 577 0
DWIDTH 12 0
BBX 11 15 0 0
BITMAP
0700
0700
0700
0000
FCE0
7860
3CC0
3C80
1F80
1F00
0F00
0F00
0F00
0F00
1F80
ENDCHAR
STARTCHAR uni1EF4.sc
ENCODING -1
SWIDTH 577 0
DWIDTH 12 0
BBX 11 16 0 -5
BITMAP
FCE0
7860
3CC0
3C80
1F80
1F00
0F00
0F00
0F00
0F00
1F80
0000
0600
0F00
0F00
0600
ENDCHAR
STARTCHAR Ygrave.sc
ENCODING -1
SWIDTH 577 0
DWIDTH 12 0
BBX 11 16 0 0
BITMAP
0800
1C00
1E00
0300
0000
FCE0
7860
3CC0
3C80
1F80
1F00
0F00
0F00
0F00
0F00
1F80
ENDCHAR
STARTCHAR uni1EF6.sc
ENCODING -1
SWIDTH 577 0
DWIDTH 12 0
BBX 11 16 0 0
BITMAP
0700
0780
0180
0300
0000
FCE0
7860
3CC0
3C80
1F80
1F00
0F00
0F00
0F00
0F00
1F80
ENDCHAR
STARTCHAR uni1EF8.sc
ENCODING -1
SWIDTH 577 0
DWIDTH 12 0
BBX 11 15 0 0
BITMAP
0E40
1FC0
1380
0000
FCE0
7860
3CC0
3C80
1F80
1F00
0F00
0F00
0F00
0F00
1F80
ENDCHAR
STARTCHAR Zacute.sc
ENCODING -1
SWIDTH 539 0
DWIDTH 11 0
BBX 9 16 1 0
BITMAP
0100
0780
0F00
1C00
0000
FF80
C780
CF00
0F00
1E00
3C00
3C00
7800
7980
F180
FF80
ENDCHAR
STARTCHAR Zcaron.sc
ENCODING -1
SWIDTH 539 0
DWIDTH 11 0
BBX 9 16 1 0
BITMAP
6180
3300
1E00
0C00
0000
FF80
C780
CF00
0F00
1E00
3C00
3C00
7800
7980
F180
FF80
ENDCHAR
STARTCHAR Zdotaccent.sc
ENCODING -1
SWIDTH 539 0
DWIDTH 11 0
BBX 9 15 1 0
BITMAP
1C00
1E00
1C00
0000
FF80
C780
CF00
0F00
1E00
3C00
3C00
7800
7980
F180
FF80
ENDCHAR
STARTCHAR uni1E92.sc
ENCODING -1
SWIDTH 539 0
DWIDTH 11 0
BBX 9 16 1 -5
BITMAP
FF80
C780
CF00
0F00
1E00
3C00
3C00
7800
7980
F180
FF80
0000
0800
1C00
1C00
0C00
ENDCHAR
STARTCHAR Eth.sc
ENCODING -1
SWIDTH 673 0
DWIDTH 13 0
BBX 12 11 1 0
BITMAP
FE00
7BC0
79E0
78E0
78F0
FEF0
78F0
78E0
79E0
7BC0
FF00
ENDCHAR
STARTCHAR Thorn.sc
ENCODING -1
SWIDTH 595 0
DWIDTH 12 0
BBX 11 11 1 0
BITMAP
FC00
7800
7F00
7BC0
79C0
79E0
79C0
7BC0
7F00
7800
FC00
ENDCHAR
STARTCHAR uni018F.sc
ENCODING -1
SWIDTH 638 0
DWIDTH 13 0
BBX 11 11 1 0
BITMAP
3F00
6380
01C0
01E0
01E0
FFE0
F1E0
F1E0
F1C0
71C0
3F80
ENDCHAR
STARTCHAR Alpha.sc
ENCODING -1
SWIDTH 636 0
DWIDTH 13 0
BBX 12 11 0 0
BITMAP
0700
0700
0700
0F80
0B80
1BC0
11C0
1FC0
21E0
20E0
F3F0
ENDCHAR
STARTCHAR Beta.sc
ENCODING -1
SWIDTH 626 0
DWIDTH 13 0
BBX 11 11 1 0
BITMAP
FF00
7BC0
79C0
79C0
7B80
7F80
79E0
79E0
79E0
79C0
FF80
ENDCHAR
STARTCHAR Gamma.sc
ENCODING -1
SWIDTH 554 0
DWIDTH 11 0
BBX 10 11 1 0
BITMAP
FF80
7880
78C0
78C0
7800
7800
7800
7800
7800
7800
FC00
ENDCHAR
STARTCHAR Delta.sc
ENCODING -1
SWIDTH 609 0
DWIDTH 12 0
BBX 10 11 1 0
BITMAP
0E00
0E00
1E00
1F00
2700
2780
6380
43C0
C3C0
FFC0
FFC0
ENDCHAR
STARTCHAR Epsilon.sc
ENCODING -1
SWIDTH 565 0
DWIDTH 11 0
BBX 10 11 1 0
BITMAP
FF80
7980
7980
7800
7B00
7F00
7900
7800
78C0
78C0
FFC0
ENDCHAR
STARTCHAR Zeta.sc
ENCODING -1
SWIDTH 539 0
DWIDTH 11 0
BBX 9 11 1 0
BITMAP
FF80
C780
CF00
0F00
1E00
3C00
3C00
7800
7980
F180
FF80
ENDCHAR
STARTCHAR Eta.sc
ENCODING -1
SWIDTH 722 0
DWIDTH 14 0
BBX 13 11 1 0
BITMAP
FDF8
78E0
78E0
78E0
78E0
7FE0
78E0
78E0
78E0
78E0
FDF8
ENDCHAR
STARTCHAR Theta.sc
ENCODING -1
SWIDTH 670 0
DWIDTH 13 0
BBX 12 11 1 0
BITMAP
1F00
71C0
70E0
E0E0
EBF0
EFF0
EFF0
E0E0
F0E0
71C0
3F80
ENDCHAR
STARTCHAR Iota.sc
ENCODING -1
SWIDTH 389 0
DWIDTH 8 0
BBX 6 11 1 0
BITMAP
FC
78
78
78
78
78
78
78
78
78
FC
ENDCHAR
STARTCHAR Kappa.sc
ENCODING -1
SWIDTH 668 0
DWIDTH 13 0
BBX 12 11 1 0
BITMAP
FDE0
78C0
7980
7B00
7B00
7F80
7F80
7BC0
7BC0
79E0
FDF0
ENDCHAR
STARTCHAR Lambda.sc
ENCODING -1
SWIDTH 608 0
DWIDTH 12 0
BBX 12 11 0 0
BITMAP
0600
0700
0F00
0F80
1F80
1380
13C0
33C0
21E0
61E0
F3F0
ENDCHAR
STARTCHAR Mu.sc
ENCODING -1
SWIDTH 841 0
DWIDTH 17 0
BBX 16 11 0 0
BITMAP
7C1F
3C3E
3E3E
2E3E
3F7E
3F5E
375E
37DE
339E
339E
FBBF
ENDCHAR
STARTCHAR Nu.sc
ENCODING -1
SWIDTH 690 0
DWIDTH 14 0
BBX 12 11 1 0
BITMAP
F1F0
78E0
7C60
7E60
7F60
6FE0
67E0
63E0
61E0
61E0
F8E0
ENDCHAR
STARTCHAR Xi.sc
ENCODING -1
SWIDTH 534 0
DWIDTH 11 0
BBX 9 11 1 0
BITMAP
FF80
FF80
FF80
8180
6200
7E00
7E00
0000
8180
FF80
FF80
ENDCHAR
STARTCHAR Omicron.sc
ENCODING -1
SWIDTH 670 0
DWIDTH 13 0
BBX 12 11 1 0
BITMAP
1F00
79C0
71E0
F0E0
F0F0
F0F0
F0F0
F0E0
F0E0
71C0
3F80
ENDCHAR
STARTCHAR Pi.sc
ENCODING -1
SWIDTH 718 0
DWIDTH 14 0
BBX 13 11 1 0
BITMAP
FFF8
78E0
78E0
78E0
78E0
78E0
78E0
78E0
78E0
78E0
FDF8
ENDCHAR
STARTCHAR Rho.sc
ENCODING -1
SWIDTH 591 0
DWIDTH 12 0
BBX 10 11 1 0
BITMAP
FE00
7BC0
79C0
79C0
79C0
7BC0
7F00
7800
7800
7800
FC00
ENDCHAR
STARTCHAR Sigma.sc
ENCODING -1
SWIDTH 545 0
DWIDTH 11 0
BBX 9 11 1 0
BITMAP
FF80
E180
7180
7980
3800
1C00
3800
3180
6180
FF80
FF80
ENDCHAR
STARTCHAR Tau.sc
ENCODING -1
SWIDTH 611 0
DWIDTH 12 0
BBX 11 11 1 0
BITMAP
FFE0
DE60
9E60
1E00
1E00
1E00
1E00
1E00
1E00
1E00
3F00
ENDCHAR
STARTCHAR Upsilon.sc
ENCODING -1
SWIDTH 577 0
DWIDTH 12 0
BBX 11 11 0 0
BITMAP
FCE0
7860
3CC0
3C80
1F80
1F00
0F00
0F00
0F00
0F00
1F80
ENDCHAR
STARTCHAR Phi.sc
ENCODING -1
SWIDTH 801 0
DWIDTH 16 0
BBX 14 11 1 0
BITMAP
0FC0
0780
3FF0
77B8
77B8
F79C
77B8
77B8
3FF0
0780
0FC0
ENDCHAR
STARTCHAR Chi.sc
ENCODING -1
SWIDTH 606 0
DWIDTH 12 0
BBX 12 11 0 0
BITMAP
FCE0
78C0
3C80
1F80
1F00
0F00
0F80
1F80
33C0
21E0
F3F0
ENDCHAR
ENDFONT
